SplineFontDB: 3.0
FontName: HiTallObl
FullName: Hi. Tall Obl
FamilyName: Hi.
Weight: Tall Oblique
Copyright: Copyright (c) 2015, Mew Too/Cannot Into Space Fonts, All Rights Reserved.
Version: 1.996
ItalicAngle: 0
UnderlinePosition: -100
UnderlineWidth: 50
Ascent: 800
Descent: 200
InvalidEm: 0
sfntRevision: 0x0001fefa
LayerCount: 2
Layer: 0 0 "Back" 1
Layer: 1 0 "Fore" 0
XUID: [1021 604 120746000 20143]
StyleMap: 0x0000
FSType: 0
OS2Version: 4
OS2_WeightWidthSlopeOnly: 0
OS2_UseTypoMetrics: 1
CreationTime: 1421008990
ModificationTime: 1428971067
PfmFamily: 17
TTFWeight: 400
TTFWidth: 5
LineGap: 90
VLineGap: 0
Panose: 2 0 5 3 0 0 0 0 0 0
OS2TypoAscent: 800
OS2TypoAOffset: 0
OS2TypoDescent: -200
OS2TypoDOffset: 0
OS2TypoLinegap: 90
OS2WinAscent: 813
OS2WinAOffset: 0
OS2WinDescent: 184
OS2WinDOffset: 0
HheadAscent: 813
HheadAOffset: 0
HheadDescent: -184
HheadDOffset: 0
OS2SubXSize: 650
OS2SubYSize: 699
OS2SubXOff: 0
OS2SubYOff: 140
OS2SupXSize: 650
OS2SupYSize: 699
OS2SupXOff: 0
OS2SupYOff: 479
OS2StrikeYSize: 49
OS2StrikeYPos: 258
OS2CapHeight: 590
OS2XHeight: 590
OS2FamilyClass: 2063
OS2Vendor: 'CiSf'
OS2CodePages: 00000001.00000000
OS2UnicodeRanges: 0000002f.10000000.00000000.00000000
Lookup: 3 0 0 "'salt' Stylistic Alternatives in Latin lookup 0" { "'salt' Stylistic Alternatives in Latin lookup 0 subtable"  } ['salt' ('DFLT' <'dflt' > 'latn' <'dflt' > ) ]
Lookup: 4 0 1 "'liga' Standard Ligatures lookup 1" { "'liga' Standard Ligatures lookup 1 subtable"  } ['liga' ('DFLT' <'dflt' > ) ]
Lookup: 258 0 0 "'kern' Horizontal Kerning lookup 0" { "'kern' Horizontal Kerning lookup 0 subtable"  } ['kern' ('DFLT' <'dflt' > 'arab' <'dflt' > 'latn' <'dflt' > ) ]
MarkAttachClasses: 1
DEI: 91125

StartChar: .notdef
Encoding: 65536 -1 0
Width: 540
Flags: MW
HStem: 0 50<122.065 439.324 122.065 482.297> 517 50<187.697 504.956 187.697 187.697>
LayerCount: 2
Back
Fore
SplineSet
65.0380859375 0 m 1
 144.724609375 567 l 1
 561.983398438 567 l 1
 482.296875 0 l 1
 65.0380859375 0 l 1
122.065429688 50 m 1
 439.32421875 50 l 1
 504.956054688 517 l 1
 187.697265625 517 l 1
 122.065429688 50 l 1
EndSplineSet
EndChar

StartChar: space
Encoding: 32 32 1
Width: 141
GlyphClass: 2
Flags: W
LayerCount: 2
Back
Fore
SplineSet
961.997070312 402 m 1024,0,0
EndSplineSet
EndChar

StartChar: exclam
Encoding: 33 33 2
Width: 198
GlyphClass: 2
Flags: MW
HStem: -0.25 92.5<98.8398 110.84> 130.491 29.9521<84.5449 127.834>
VStem: 61.0898 157.089
LayerCount: 2
Back
Fore
SplineSet
61.08984375 46 m 0
 64.603515625 71 86.33984375 92.25 111.33984375 92.25 c 0
 136.33984375 92.25 153.353515625 71 149.83984375 46 c 0
 146.326171875 21 123.33984375 -0.25 98.33984375 -0.25 c 0
 73.33984375 -0.25 57.576171875 21 61.08984375 46 c 0
218.178710938 584.047851562 m 2
 158.64453125 160.443359375 l 2
 156.389648438 144.397460938 138.284179688 130.491210938 117.384765625 130.491210938 c 0
 96.484375 130.491210938 82.3203125 144.619140625 84.544921875 160.443359375 c 2
 84.544921875 160.443359375 143.846679688 583.879882812 144.079101562 584.047851562 c 0
 146.333984375 600.09375 164.4375 614 185.337890625 614 c 0
 206.237304688 614 220.0078125 600.09375 218.178710938 584.047851562 c 2
EndSplineSet
EndChar

StartChar: quotedbl
Encoding: 34 34 3
Width: 320
GlyphClass: 2
Flags: MW
HStem: 557.5 21G 607.5 92.5<181.717 185.078 304.068 307.429>
VStem: 143.967 87.6621 266.318 87.6621
LayerCount: 2
Back
Fore
SplineSet
266.318359375 653.75 m 0
 269.83203125 678.75 291.568359375 700 316.568359375 700 c 0
 341.568359375 700 358.58203125 678.75 355.068359375 653.75 c 1
 357.197265625 633.318359375 362.513671875 600 353.98046875 583.75 c 0
 348.649414062 572.5 300.934570312 562.083984375 265.291015625 557.5 c 1
 295.364257812 571.014648438 320.896484375 577.020507812 325.643554688 613.06640625 c 1
 318.819335938 609.52734375 311.290039062 607.5 303.568359375 607.5 c 0
 278.568359375 607.5 262.8046875 628.75 266.318359375 653.75 c 0
143.966796875 653.75 m 0
 147.48046875 678.75 169.216796875 700 194.216796875 700 c 0
 219.216796875 700 236.23046875 678.75 232.716796875 653.75 c 1
 234.845703125 633.318359375 240.162109375 600 231.62890625 583.75 c 0
 226.297851562 572.5 178.583007812 562.083984375 142.939453125 557.5 c 1
 173.012695312 571.014648438 198.544921875 577.020507812 203.291992188 613.06640625 c 1
 196.467773438 609.52734375 188.938476562 607.5 181.216796875 607.5 c 0
 156.216796875 607.5 140.453125 628.75 143.966796875 653.75 c 0
EndSplineSet
EndChar

StartChar: numbersign
Encoding: 35 35 4
Width: 831
GlyphClass: 2
Flags: MW
HStem: 183.324 69.5684 363.392 69.5303
LayerCount: 2
Back
Fore
SplineSet
773.900390625 622.012695312 m 2
 678.456054688 432.63671875 l 1
 806.741210938 432.200195312 l 2
 823.635742188 432.142578125 841.987304688 416.908203125 846.784179688 397.2578125 c 0
 851.58203125 377.606445312 840.4140625 362.470703125 823.750976562 362.528320312 c 2
 823.750976562 362.528320312 744.272460938 362.791992188 641.641601562 363.141601562 c 1
 585.918945312 252.626953125 l 1
 732.446289062 252.126953125 l 2
 749.340820312 252.069335938 767.689453125 236.818359375 772.484375 217.147460938 c 0
 777.278320312 197.475585938 766.108398438 182.323242188 749.4453125 182.380859375 c 2
 749.4453125 182.380859375 660.392578125 182.67578125 549.08984375 183.055664062 c 1
 471.950195312 29.9892578125 l 2
 463.854492188 13.9248046875 439.758789062 0.001953125 417.657226562 0.001953125 c 0
 395.5546875 0.001953125 385.603515625 14.146484375 393.588867188 29.9892578125 c 2
 393.588867188 29.9892578125 426.586914062 95.513671875 470.815429688 183.32421875 c 1
 419.719726562 183.500976562 367.2890625 183.68359375 318.953125 183.857421875 c 1
 241.409179688 29.9892578125 l 2
 233.313476562 13.9248046875 209.217773438 0.001953125 187.116210938 0.001953125 c 0
 165.013671875 0.001953125 155.0625 14.146484375 163.047851562 29.9892578125 c 2
 163.047851562 29.9892578125 196.25 95.921875 240.6875 184.143554688 c 1
 167.58984375 184.3984375 116.526367188 184.596679688 116.462890625 184.65234375 c 0
 99.5673828125 184.709960938 81.21875 199.944335938 76.4208984375 219.595703125 c 0
 71.623046875 239.247070312 82.65625 253.982421875 99.453125 254.325195312 c 2
 277.50390625 253.67578125 l 1
 295.698242188 289.775390625 314.635742188 327.3515625 333.185546875 364.15234375 c 1
 250.50390625 364.4375 190.827148438 364.6640625 190.758789062 364.724609375 c 0
 173.86328125 364.782226562 155.516601562 380.033203125 150.721679688 399.70703125 c 0
 145.927734375 419.380859375 156.962890625 434.1328125 173.759765625 434.4765625 c 2
 370.025390625 433.760742188 l 1
 422.803710938 538.499023438 464.881835938 621.951171875 464.99609375 622.013671875 c 0
 473.091796875 638.078125 497.186523438 652.000976562 519.2890625 652.000976562 c 0
 541.390625 652.000976562 551.00390625 638.078125 543.358398438 622.013671875 c 2
 448.341796875 433.475585938 l 1
 600.14453125 432.921875 l 1
 653.12109375 538.052734375 695.423828125 621.950195312 695.538085938 622.012695312 c 0
 703.633789062 638.077148438 727.728515625 652 749.831054688 652 c 0
 771.932617188 652 781.545898438 638.077148438 773.900390625 622.012695312 c 2
411.494140625 363.887695312 m 1
 355.791015625 253.41015625 l 1
 507.62890625 252.892578125 l 1
 525.817382812 288.982421875 544.758789062 326.56640625 563.321289062 363.391601562 c 1
 512.892578125 363.553710938 460.502929688 363.724609375 411.494140625 363.887695312 c 1
EndSplineSet
AlternateSubs2: "'salt' Stylistic Alternatives in Latin lookup 0 subtable" uniE008
EndChar

StartChar: dollar
Encoding: 36 36 5
Width: 554
GlyphClass: 2
Flags: MW
HStem: 83.707 55.5742<79.9624 93.6123> 282.938 56.1436 482.201 55.5742<553.395 567.05>
LayerCount: 2
Back
Fore
SplineSet
306.024414062 480.700195312 m 1
 234.635742188 474.995117188 175.677734375 452.10546875 167.418945312 393.337890625 c 0
 167.203125 391.80078125 142.731445312 338.27734375 222.471679688 338.49609375 c 2
 222.471679688 338.49609375 245.747070312 338.654296875 286.090820312 338.805664062 c 1
 293.1953125 389.413085938 300.138671875 438.81640625 306.024414062 480.700195312 c 1
332.360351562 140.173828125 m 1
 407.58203125 144.704101562 471.015625 167.008789062 479.603515625 228.112304688 c 0
 479.819335938 229.649414062 504.275390625 283.056640625 424.547851562 282.938476562 c 0
 424.3359375 282.999023438 397.831054688 282.826171875 352.385742188 282.659179688 c 1
 332.360351562 140.173828125 l 1
396.104492188 593.743164062 m 2
 388.313476562 538.301757812 l 1
 493.198242188 538.211914062 561.205078125 537.775390625 561.205078125 537.775390625 c 2
 572.895507812 537.775390625 581.325195312 525.663085938 579.122070312 509.98828125 c 0
 576.919921875 494.313476562 565.084960938 482.201171875 553.39453125 482.201171875 c 2
 553.39453125 482.201171875 461.477539062 482.216796875 380.431640625 482.220703125 c 1
 360.306640625 339.01953125 l 1
 382.001953125 339.057617188 405.739257812 339.08203125 431.157226562 339.08203125 c 0
 488.41796875 339.08203125 558.885742188 352.124023438 541.377929688 227.55078125 c 0
 525.645507812 115.611328125 436.038085938 87.58203125 324.416015625 83.6572265625 c 1
 316.911132812 30.2548828125 l 2
 314.633789062 14.046875 296.508789062 0 275.609375 0 c 0
 254.708984375 0 240.564453125 14.2705078125 242.811523438 30.2548828125 c 2
 242.811523438 30.2548828125 245.634765625 50.39453125 250.227539062 83.1474609375 c 1
 150.166992188 83.2607421875 85.802734375 83.70703125 85.802734375 83.70703125 c 2
 74.1220703125 83.70703125 65.7001953125 95.8193359375 67.9033203125 111.494140625 c 0
 70.10546875 127.168945312 81.931640625 139.28125 93.6123046875 139.28125 c 2
 93.6123046875 139.28125 179.283203125 139.267578125 258.095703125 139.262695312 c 1
 263.982421875 181.2421875 270.984375 231.168945312 278.180664062 282.452148438 c 1
 258.823242188 282.419921875 237.940429688 282.399414062 215.765625 282.399414062 c 0
 158.55078125 282.399414062 88.1376953125 269.356445312 105.646484375 393.935546875 c 0
 120.98046875 503.044921875 206.427734375 532.4375 314.016601562 537.490234375 c 1
 318.909179688 572.20703125 321.959960938 593.734375 322.00390625 593.766601562 c 0
 324.280273438 609.961914062 342.403320312 623.998046875 363.3046875 623.998046875 c 0
 384.205078125 623.998046875 397.956054688 609.951171875 396.104492188 593.743164062 c 2
EndSplineSet
EndChar

StartChar: percent
Encoding: 37 37 6
Width: 627
GlyphClass: 2
Flags: MW
HStem: -0.44043 58.2041<453.465 490.525 453.465 498.535> 185.811 58.2041<471.461 508.521> 407.545 58.2041<214.627 251.687 214.627 259.696> 593.796 58.2041<232.623 269.682>
LayerCount: 2
Back
Fore
SplineSet
309.37890625 529.772460938 m 0
 314.154296875 563.750976562 288.211914062 593.795898438 251.15234375 593.795898438 c 0
 214.092773438 593.795898438 179.70703125 563.750976562 174.931640625 529.772460938 c 0
 170.15625 495.793945312 196.09765625 465.749023438 233.157226562 465.749023438 c 0
 270.216796875 465.749023438 304.603515625 495.793945312 309.37890625 529.772460938 c 0
368.115234375 529.772460938 m 0
 358.633789062 462.309570312 294.416015625 407.544921875 224.9765625 407.544921875 c 0
 155.537109375 407.544921875 106.713867188 462.309570312 116.1953125 529.772460938 c 0
 125.67578125 597.235351562 189.893554688 652 259.333007812 652 c 0
 328.772460938 652 377.595703125 597.235351562 368.115234375 529.772460938 c 0
413.76953125 121.787109375 m 0
 408.994140625 87.80859375 434.935546875 57.763671875 471.995117188 57.763671875 c 0
 509.0546875 57.763671875 543.44140625 87.80859375 548.216796875 121.787109375 c 0
 552.9921875 155.765625 527.05078125 185.810546875 489.991210938 185.810546875 c 0
 452.931640625 185.810546875 418.544921875 155.765625 413.76953125 121.787109375 c 0
355.033203125 121.787109375 m 0
 364.514648438 189.25 428.731445312 244.014648438 498.170898438 244.014648438 c 0
 567.610351562 244.014648438 616.434570312 189.25 606.953125 121.787109375 c 0
 597.471679688 54.32421875 533.254882812 -0.4404296875 463.815429688 -0.4404296875 c 0
 394.375976562 -0.4404296875 345.551757812 54.32421875 355.033203125 121.787109375 c 0
623.70703125 622.459960938 m 2
 175.963867188 29.541015625 l 2
 164.013671875 13.7158203125 136.858398438 0.0009765625 115.120117188 0.0009765625 c 0
 93.380859375 0.0009765625 87.103515625 13.9345703125 98.890625 29.541015625 c 2
 98.890625 29.541015625 546.291015625 622.293945312 546.633789062 622.459960938 c 0
 558.583984375 638.28515625 585.73828125 652 607.477539062 652 c 0
 629.215820312 652 635.21484375 638.28515625 623.70703125 622.459960938 c 2
EndSplineSet
EndChar

StartChar: ampersand
Encoding: 38 38 7
Width: 826
GlyphClass: 2
Flags: MW
HStem: 0 74.0996<150.964 599.354 150.964 633.654> 252.633 74.167 364 74.0996<433.428 672.834 809.345 809.345> 505.426 74.7959<426.878 538.444>
LayerCount: 2
Back
Fore
SplineSet
451.48046875 438.099609375 m 2
 672.833984375 438.099609375 l 2
 677.390625 439.354492188 682.284179688 440.049804688 687.345703125 440.049804688 c 0
 692.407226562 440.049804688 697.081054688 439.354492188 701.256835938 438.099609375 c 2
 820.05078125 438.099609375 l 2
 835.756835938 438.099609375 847.098632812 421.94921875 844.162109375 401.049804688 c 0
 841.224609375 380.149414062 824.987304688 363.999023438 809.344726562 364 c 2
 714.2109375 363.931640625 l 1
 668.270507812 37.0498046875 l 2
 665.333007812 16.1494140625 649.409179688 0 633.654296875 0 c 0
 633.458984375 -0.2080078125 72.79296875 0 72.79296875 0 c 2
 57.255859375 -0.0009765625 45.654296875 16.1494140625 48.591796875 37.0498046875 c 0
 61.73828125 130.59375 88.6474609375 213.970703125 142.8046875 267.137695312 c 1
 139.794921875 273.337890625 138.522460938 281.140625 139.732421875 289.75 c 0
 162.237304688 449.881835938 319.197265625 580.221679688 489.98828125 580.221679688 c 0
 660.779296875 580.221679688 635.826171875 579.5 635.826171875 579.5 c 2
 651.689453125 579.5 663.16796875 563.349609375 660.23046875 542.450195312 c 0
 657.29296875 521.549804688 641.275390625 505.400390625 625.412109375 505.400390625 c 2
 625.412109375 505.400390625 597.412109375 505.42578125 479.4765625 505.42578125 c 0
 374.279296875 505.42578125 288.659179688 426.551757812 242.104492188 326.799804688 c 1
 283.19140625 326.799804688 l 2
 290.171875 327.278320312 297.350585938 327.521484375 304.728515625 327.521484375 c 0
 475.51953125 327.521484375 477.00390625 326.799804688 477.00390625 326.799804688 c 2
 492.8671875 326.799804688 504.345703125 310.649414062 501.408203125 289.75 c 0
 498.470703125 268.849609375 482.453125 252.700195312 466.58984375 252.700195312 c 0
 466.48046875 252.583984375 371.543945312 252.59765625 288.076171875 252.6328125 c 0
 189.333984375 249.58203125 196.592773438 171.869140625 150.963867188 74.099609375 c 1
 599.354492188 74.099609375 l 1
 608.056640625 136.299804688 626.029296875 264.650390625 640.029296875 363.9140625 c 1
 535.528320312 363.897460938 441.419921875 363.907226562 441.359375 364 c 0
 425.49609375 364 414.017578125 380.149414062 416.955078125 401.049804688 c 0
 419.891601562 421.94921875 435.713867188 437.673828125 451.48046875 438.099609375 c 2
EndSplineSet
EndChar

StartChar: quotesingle
Encoding: 39 39 8
Width: 198
GlyphClass: 2
Flags: MW
HStem: 557.5 21G 607.5 92.5<181.717 185.078>
VStem: 143.967 87.6621
LayerCount: 2
Back
Fore
SplineSet
143.966796875 653.75 m 0
 147.48046875 678.75 169.216796875 700 194.216796875 700 c 0
 219.216796875 700 236.23046875 678.75 232.716796875 653.75 c 1
 234.845703125 633.318359375 240.162109375 600 231.62890625 583.75 c 0
 226.297851562 572.5 178.583007812 562.083984375 142.939453125 557.5 c 1
 173.012695312 571.014648438 198.544921875 577.020507812 203.291992188 613.06640625 c 1
 196.467773438 609.52734375 188.938476562 607.5 181.216796875 607.5 c 0
 156.216796875 607.5 140.453125 628.75 143.966796875 653.75 c 0
EndSplineSet
EndChar

StartChar: parenleft
Encoding: 40 40 9
Width: 408
GlyphClass: 2
Flags: MW
HStem: -0.171875 79.7803<244.548 292.303> 614.075 0.696289<378.63 378.728 294.938 386.562>
LayerCount: 2
Back
Fore
SplineSet
378.629882812 614.075195312 m 1
 394.493164062 614.075195312 405.971679688 597.924804688 403.034179688 577.025390625 c 0
 400.096679688 556.125 384.079101562 539.975585938 368.215820312 539.975585938 c 0
 250.280273438 539.975585938 188.587890625 436.6875 170.75390625 309.791992188 c 0
 152.919921875 182.896484375 185.580078125 79.6083984375 303.515625 79.6083984375 c 0
 319.37890625 79.6083984375 330.704101562 62.373046875 327.569335938 40.06640625 c 0
 324.434570312 17.7607421875 308.263671875 0.5244140625 292.400390625 0.5244140625 c 1
 292.302734375 -0.171875 l 1
 124.72265625 -0.171875 64.111328125 137.795898438 87.93359375 307.299804688 c 0
 111.755859375 476.803710938 211.147460938 614.771484375 378.727539062 614.771484375 c 1
 378.629882812 614.075195312 l 1
EndSplineSet
EndChar

StartChar: parenright
Encoding: 41 41 10
Width: 410
GlyphClass: 2
Flags: MW
HStem: -0.171875 0.696289<121.686 121.783 113.852 205.476> 534.991 79.084<200.081 208.013 200.081 255.866>
LayerCount: 2
Back
Fore
SplineSet
208.012695312 614.075195312 m 1
 208.110351562 614.771484375 l 1
 375.690429688 614.771484375 436.302734375 476.803710938 412.48046875 307.299804688 c 0
 388.658203125 137.795898438 289.265625 -0.171875 121.685546875 -0.171875 c 1
 121.783203125 0.5244140625 l 1
 105.919921875 0.5244140625 94.4423828125 16.6748046875 97.37890625 37.57421875 c 0
 100.31640625 58.474609375 116.333984375 74.6240234375 132.197265625 74.6240234375 c 0
 250.1328125 74.6240234375 311.825195312 177.912109375 329.659179688 304.807617188 c 0
 347.493164062 431.703125 314.833984375 534.991210938 196.8984375 534.991210938 c 0
 181.03515625 534.991210938 169.708984375 552.2265625 172.84375 574.533203125 c 0
 175.978515625 596.838867188 192.149414062 614.075195312 208.012695312 614.075195312 c 1
EndSplineSet
EndChar

StartChar: asterisk
Encoding: 42 42 11
Width: 343
GlyphClass: 2
Flags: MW
HStem: 607.58 29.6406<138.372 145.711 142.582 145.711 142.582 222.539>
VStem: 131.784 259.714<622 622>
LayerCount: 2
Back
Fore
SplineSet
292.258789062 734.80078125 m 2
 281.49609375 658.23046875 l 1
 317.080078125 687.935546875 346.358398438 712.364257812 346.400390625 712.358398438 c 0
 358.606445312 722.548828125 377.521484375 701.842773438 365.619140625 691.400390625 c 2
 300.750976562 637.256835938 l 1
 345.174804688 637.259765625 381.716796875 637.252929688 381.73828125 637.220703125 c 0
 388.083007812 637.220703125 392.672851562 630.760742188 391.498046875 622.400390625 c 0
 390.323242188 614.041015625 383.94140625 607.750976562 377.572265625 607.580078125 c 2
 296.596679688 607.580078125 l 1
 323.836914062 577.879882812 346.236328125 553.44140625 346.224609375 553.400390625 c 0
 355.569335938 543.212890625 330.771484375 522.575195312 321.115234375 532.442382812 c 2
 271.432617188 586.622070312 l 1
 260.6640625 510 l 2
 259.821289062 504 252.62890625 498.80078125 244.26953125 498.80078125 c 0
 235.909179688 498.80078125 230.192382812 504.083007812 231.0234375 510 c 2
 231.0234375 510 235.868164062 544.571289062 241.764648438 586.598632812 c 1
 176.880859375 532.442382812 l 2
 164.638671875 522.22265625 145.548828125 543.291992188 157.663085938 553.400390625 c 2
 157.663085938 553.400390625 186.942382812 577.85546875 222.5390625 607.580078125 c 1
 141.543945312 607.580078125 l 2
 135.19921875 607.580078125 130.609375 614.041015625 131.784179688 622.400390625 c 0
 132.958984375 630.760742188 139.453125 637.220703125 145.7109375 637.220703125 c 2
 145.7109375 637.220703125 182.2734375 637.233398438 226.719726562 637.243164062 c 1
 177.059570312 691.400390625 l 2
 167.688476562 701.618164062 192.899414062 722.469726562 202.16796875 712.358398438 c 2
 202.16796875 712.358398438 224.576171875 687.942382812 251.821289062 658.248046875 c 1
 257.719726562 700.239257812 262.580078125 734.775390625 262.618164062 734.80078125 c 0
 263.4609375 740.80078125 270.65234375 746 279.012695312 746 c 0
 287.372070312 746 292.930664062 740.80078125 292.258789062 734.80078125 c 2
EndSplineSet
AlternateSubs2: "'salt' Stylistic Alternatives in Latin lookup 0 subtable" uniE006
EndChar

StartChar: plus
Encoding: 43 43 12
Width: 595
GlyphClass: 2
Flags: MW
HStem: 288.904 74.0996<111.987 130.332 130.332 130.332 130.332 303.876>
LayerCount: 2
Back
Fore
SplineSet
561.931640625 288.904296875 m 2
 378.06640625 288.904296875 l 1
 364.1015625 189.413085938 351.578125 100.38671875 351.470703125 100.311523438 c 0
 349.185546875 84.048828125 331.0546875 69.9541015625 310.154296875 69.9541015625 c 0
 289.254882812 69.9541015625 275.51171875 84.048828125 277.37109375 100.311523438 c 2
 303.875976562 288.904296875 l 1
 119.918945312 288.904296875 l 2
 104.055664062 288.904296875 92.578125 305.0546875 95.5146484375 325.954101562 c 0
 98.4521484375 346.854492188 114.688476562 363.004882812 130.33203125 363.00390625 c 2
 130.33203125 363.00390625 217.208007812 363.046875 314.299804688 363.077148438 c 1
 340.793945312 551.596679688 l 2
 343.080078125 567.859375 361.2109375 581.954101562 382.110351562 581.954101562 c 0
 403.010742188 581.954101562 417.149414062 567.635742188 414.89453125 551.59765625 c 2
 414.89453125 551.59765625 402.427734375 462.59375 388.473632812 363.09765625 c 1
 485.4921875 363.115234375 572.287109375 363.103515625 572.345703125 363.00390625 c 0
 588.208984375 363.00390625 599.6875 346.854492188 596.75 325.954101562 c 0
 593.813476562 305.0546875 577.85546875 289.330078125 561.931640625 288.904296875 c 2
EndSplineSet
AlternateSubs2: "'salt' Stylistic Alternatives in Latin lookup 0 subtable" uniE005
EndChar

StartChar: comma
Encoding: 44 44 13
Width: 205
GlyphClass: 2
Flags: MW
HStem: 33.75 92.5<104.782 108.143>
VStem: 67.0322 84.1875
LayerCount: 2
Back
Fore
SplineSet
67.0322265625 80 m 0
 70.5458984375 105 92.2822265625 126.25 117.282226562 126.25 c 0
 142.282226562 126.25 159.295898438 105 155.782226562 80 c 1
 156.897460938 52.3505859375 160.559570312 7.2626953125 151.219726562 -14.7275390625 c 0
 145.330078125 -29.951171875 97.09765625 -44.046875 61.2265625 -50.25 c 1
 92.4619140625 -28.4658203125 118.51171875 -18.78515625 126.357421875 39.31640625 c 1
 119.534179688 35.77734375 112.00390625 33.75 104.282226562 33.75 c 0
 79.2822265625 33.75 63.5185546875 55 67.0322265625 80 c 0
EndSplineSet
EndChar

StartChar: hyphen
Encoding: 45 45 14
Width: 619
GlyphClass: 2
Flags: MW
HStem: 271.904 74.0996<120.174 584.796 138.519 574.382>
LayerCount: 2
Back
Fore
SplineSet
574.381835938 271.904296875 m 2
 128.10546875 271.904296875 l 2
 112.2421875 271.904296875 100.763671875 288.0546875 103.701171875 308.954101562 c 0
 106.638671875 329.854492188 122.875 346.004882812 138.518554688 346.00390625 c 2
 584.795898438 346.00390625 l 2
 600.659179688 346.00390625 612.137695312 329.854492188 609.200195312 308.954101562 c 0
 606.262695312 288.0546875 590.3046875 272.330078125 574.381835938 271.904296875 c 2
EndSplineSet
EndChar

StartChar: period
Encoding: 46 46 15
Width: 196
GlyphClass: 2
Flags: MW
HStem: -0.25 92.5<97.8398 109.84>
VStem: 60.0898 88.75<46 46>
LayerCount: 2
Back
Fore
SplineSet
60.08984375 46 m 0
 63.603515625 71 85.33984375 92.25 110.33984375 92.25 c 0
 135.33984375 92.25 152.353515625 71 148.83984375 46 c 0
 145.326171875 21 122.33984375 -0.25 97.33984375 -0.25 c 0
 72.33984375 -0.25 56.576171875 21 60.08984375 46 c 0
EndSplineSet
EndChar

StartChar: slash
Encoding: 47 47 16
Width: 363
GlyphClass: 2
Flags: W
LayerCount: 2
Back
Fore
SplineSet
411.877929688 622.459960938 m 2
 121.704101562 29.541015625 l 2
 113.959960938 13.7158203125 91.09765625 0.0009765625 70.1982421875 0.0009765625 c 0
 49.2978515625 0.0009765625 39.9658203125 13.9345703125 47.6044921875 29.541015625 c 2
 47.6044921875 29.541015625 337.48828125 622.293945312 337.778320312 622.459960938 c 0
 345.522460938 638.28515625 368.383789062 652 389.284179688 652 c 0
 410.18359375 652 419.196289062 638.28515625 411.877929688 622.459960938 c 2
EndSplineSet
EndChar

StartChar: zero
Encoding: 48 48 17
Width: 734
GlyphClass: 2
Flags: MW
HStem: 0 82.4707<315.249 447.604 315.249 457.716> 536.729 82.4707<379.091 511.446>
LayerCount: 2
Back
Fore
SplineSet
173.259765625 309.599609375 m 0
 156.318359375 189.056640625 249.071289062 82.470703125 381.426757812 82.470703125 c 0
 513.782226562 82.470703125 636.494140625 189.056640625 653.435546875 309.599609375 c 0
 670.375976562 430.141601562 577.624023438 536.728515625 445.268554688 536.728515625 c 0
 312.913085938 536.728515625 190.200195312 430.141601562 173.259765625 309.599609375 c 0
94.52734375 309.599609375 m 0
 118.54296875 480.482421875 281.098632812 619.19921875 456.858398438 619.19921875 c 0
 632.618164062 619.19921875 756.18359375 480.482421875 732.16796875 309.599609375 c 0
 708.151367188 138.716796875 545.595703125 0 369.8359375 0 c 0
 194.076171875 0 70.5107421875 138.716796875 94.52734375 309.599609375 c 0
EndSplineSet
AlternateSubs2: "'salt' Stylistic Alternatives in Latin lookup 0 subtable" uniE019
EndChar

StartChar: one
Encoding: 49 49 18
Width: 305
GlyphClass: 2
Flags: MW
HStem: 0 29.6133<188.565 231.903>
LayerCount: 2
Back
Fore
SplineSet
253.442382812 491.915039062 m 1
 174.051757812 422.299804688 l 2
 161.2578125 411.08203125 139.791015625 413.4375 126.359375 429.067382812 c 0
 112.92578125 444.697265625 113.810546875 466.65234375 126.427734375 477.71484375 c 2
 126.427734375 477.71484375 256.79296875 594.23828125 257.034179688 594.37890625 c 0
 269.592773438 605.596679688 281.6875 626.107421875 307.838867188 623.9921875 c 0
 329.477539062 623.9921875 343.826171875 610.243164062 342.037109375 594.37890625 c 2
 262.665039062 29.61328125 l 2
 260.435546875 13.7490234375 242.352539062 0 221.453125 0 c 0
 200.552734375 0 186.365234375 13.9677734375 188.565429688 29.61328125 c 2
 188.565429688 29.61328125 229.5234375 321.897460938 253.442382812 491.915039062 c 1
EndSplineSet
EndChar

StartChar: two
Encoding: 50 50 19
Width: 715
GlyphClass: 2
Flags: MW
HStem: 0.402344 74.7959<307.118 424.033 307.118 441.189> 210.55 74.7959<223.216 247.249> 503.976 74.7959<378.63 495.545>
LayerCount: 2
Back
Fore
SplineSet
638.415039062 1.1240234375 m 2
 638.415039062 1.1240234375 525.299804688 0.40234375 357.078125 0.40234375 c 0
 188.856445312 0.40234375 49.677734375 -18.2578125 71.62109375 137.874023438 c 0
 93.9853515625 297.005859375 184.694335938 285.345703125 261.73828125 285.345703125 c 0
 431.026367188 285.345703125 544.657226562 284.624023438 544.657226562 284.624023438 c 2
 601.805664062 284.624023438 632.84765625 329.40234375 641.827148438 393.299804688 c 0
 658.537109375 512.197265625 554.001953125 503.975585938 437.087890625 503.975585938 c 0
 320.172851562 503.975585938 154.0234375 503.950195312 154.0234375 503.950195312 c 2
 138.297851562 503.950195312 126.939453125 520.099609375 129.875976562 541 c 0
 132.813476562 561.899414062 148.624023438 578.049804688 164.248046875 578.049804688 c 2
 164.248046875 578.049804688 277.365234375 578.771484375 445.586914062 578.771484375 c 0
 613.80859375 578.771484375 746.802734375 553.431640625 724.297851562 393.299804688 c 0
 703.760742188 247.16796875 630.2734375 209.828125 530.16796875 209.828125 c 0
 360.879882812 209.828125 247.249023438 210.549804688 247.249023438 210.549804688 c 2
 130.3515625 210.549804688 154.356445312 139.771484375 154.08984375 137.874023438 c 0
 145.390625 75.9765625 248.661132812 75.1982421875 365.575195312 75.1982421875 c 0
 482.490234375 75.1982421875 648.639648438 75.2236328125 648.639648438 75.2236328125 c 2
 664.365234375 75.2236328125 675.724609375 59.07421875 672.787109375 38.173828125 c 0
 669.849609375 17.2744140625 654.0390625 1.1240234375 638.415039062 1.1240234375 c 2
EndSplineSet
EndChar

StartChar: three
Encoding: 51 51 20
Width: 802
GlyphClass: 2
Flags: MW
HStem: -0.175781 74.7979<405.228 523.164 405.228 536.036> 269.922 74.0996<108.654 543.666 127 533.253> 539.974 74.7939<470.629 588.565>
LayerCount: 2
Back
Fore
SplineSet
127 344.021484375 m 2
 543.666015625 344.021484375 l 2
 559.529296875 344.021484375 570.8671875 326.87109375 567.930664062 305.971679688 c 0
 564.993164062 285.071289062 548.896484375 269.920898438 533.252929688 269.921875 c 2
 116.5859375 269.921875 l 2
 100.72265625 269.921875 89.2451171875 286.071289062 92.181640625 306.971679688 c 0
 95.119140625 327.87109375 111.077148438 343.595703125 127 344.021484375 c 2
254.249023438 614.049804688 m 2
 254.249023438 614.049804688 368.219726562 614.767578125 537.712890625 614.767578125 c 0
 707.20703125 614.767578125 825.405273438 476.799804688 801.583007812 307.295898438 c 0
 777.760742188 137.791992188 620.782226562 -0.17578125 451.2890625 -0.17578125 c 0
 281.795898438 -0.17578125 168.02734375 0.5458984375 168.02734375 0.5458984375 c 2
 152.28515625 0.5458984375 140.911132812 16.697265625 143.848632812 37.59765625 c 0
 146.786132812 58.4990234375 162.803710938 74.6494140625 178.666992188 74.6494140625 c 2
 178.666992188 74.6494140625 346.259765625 74.6220703125 464.196289062 74.6220703125 c 0
 582.131835938 74.6220703125 701.087890625 179.028320312 719.114257812 307.297851562 c 0
 737.141601562 435.567382812 647.533203125 539.973632812 529.59765625 539.973632812 c 0
 411.661132812 539.973632812 244.060546875 539.946289062 244.060546875 539.946289062 c 2
 228.197265625 539.946289062 216.71875 556.096679688 219.65625 576.998046875 c 0
 222.59375 597.8984375 238.506835938 614.049804688 254.249023438 614.049804688 c 2
EndSplineSet
EndChar

StartChar: four
Encoding: 52 52 21
Width: 672
GlyphClass: 2
Flags: MW
HStem: 257.659 74.7939<362.514 410.936> 549.317 74.7988
LayerCount: 2
Back
Fore
SplineSet
597.392578125 591.344726562 m 1
 560.91015625 331.7578125 l 1
 649.7421875 331.7578125 l 2
 665.60546875 331.7578125 677.083007812 315.607421875 674.146484375 294.708007812 c 0
 671.208984375 273.807617188 654.971679688 257.657226562 639.329101562 257.658203125 c 2
 639.329101562 257.658203125 604.484375 257.614257812 550.458984375 257.584960938 c 1
 518.49609375 30.15625 l 2
 516.225585938 14.0009765625 498.107421875 -0.0009765625 477.208007812 -0.0009765625 c 0
 456.307617188 -0.0009765625 442.15625 14.2236328125 444.396484375 30.15625 c 2
 444.396484375 30.15625 458.4296875 130.323242188 476.282226562 257.55859375 c 1
 439.077148438 257.55859375 410.98046875 257.583007812 410.935546875 257.659179688 c 0
 314.091796875 257.659179688 266.528320312 256.766601562 107.3125 257.4296875 c 1
 63.4208984375 267.48828125 90.373046875 296.956054688 123.107421875 336.461914062 c 0
 252.981445312 493.208007812 365.015625 619.92578125 459.543945312 624.116210938 c 0
 612.502929688 630.610351562 597.392578125 591.344726562 597.392578125 591.344726562 c 1
517.379882812 549.857421875 m 1
 501.25 549.8203125 479.955078125 549.66796875 451.922851562 549.317382812 c 0
 407.134765625 548.713867188 352.057617188 501.37109375 229.248046875 350.413085938 c 0
 211.719726562 328.8671875 266.497070312 332.453125 421.446289062 332.453125 c 2
 421.446289062 332.453125 428.249023438 332.46484375 486.794921875 332.473632812 c 1
 498.892578125 418.651367188 510.694335938 502.55078125 517.379882812 549.857421875 c 1
EndSplineSet
AlternateSubs2: "'salt' Stylistic Alternatives in Latin lookup 0 subtable" uniE012
EndChar

StartChar: five
Encoding: 53 53 22
Width: 714
GlyphClass: 2
Flags: MW
HStem: -0.293945 74.7979<317.741 434.655 317.741 447.785> 314.093 74.793<226.725 271.781 213.333 349.891> 537.212 74.7988<371.519 488.433>
LayerCount: 2
Back
Fore
SplineSet
723.638671875 611.2890625 m 2
 739.262695312 611.2890625 750.53125 595.135742188 747.59375 574.235351562 c 0
 744.65625 553.333984375 728.7578125 537.18359375 713.032226562 537.18359375 c 2
 713.032226562 537.18359375 546.890625 537.211914062 429.975585938 537.211914062 c 0
 313.061523438 537.211914062 209.5625 536.359375 200.029296875 468.528320312 c 0
 199.736328125 466.44921875 154.883789062 388.885742188 271.78125 388.885742188 c 2
 271.78125 388.885742188 385.625 389.676757812 554.913085938 389.676757812 c 0
 655.018554688 389.676757812 717.7109375 350.208984375 696.002929688 195.749023438 c 0
 672.21484375 26.490234375 531.895507812 -0.2939453125 363.673828125 -0.2939453125 c 0
 195.452148438 -0.2939453125 82.5380859375 0.427734375 82.5380859375 0.427734375 c 2
 66.9140625 0.427734375 55.642578125 16.5791015625 58.580078125 37.4794921875 c 0
 61.517578125 58.380859375 77.416015625 74.53125 93.1416015625 74.53125 c 2
 93.1416015625 74.53125 259.283203125 74.50390625 376.198242188 74.50390625 c 0
 493.112304688 74.50390625 595.2265625 65.4970703125 613.533203125 195.754882812 c 0
 623.37109375 265.7578125 605.517578125 314.814453125 548.369140625 314.814453125 c 2
 548.369140625 314.814453125 434.53515625 314.092773438 265.247070312 314.092773438 c 0
 188.203125 314.092773438 94.142578125 301.901367188 117.525390625 468.279296875 c 0
 140.467773438 631.520507812 274.28125 612.010742188 442.502929688 612.010742188 c 0
 610.724609375 612.010742188 723.638671875 611.2890625 723.638671875 611.2890625 c 2
EndSplineSet
EndChar

StartChar: six
Encoding: 54 54 23
Width: 716
GlyphClass: 2
Flags: MW
HStem: 0 74.7979<358.633 374.132 358.633 374.132 359.726 374.132 362.538 374.132 365.351 374.132> 251.743 75.0342 503.573 74.7959<367.446 484.34>
LayerCount: 2
Back
Fore
SplineSet
406.198242188 0.62890625 m 2
 406.198242188 0.62890625 488.352539062 0.015625 366.443359375 0 c 2
 365.350585938 0 l 1
 362.538085938 0 l 1
 359.725585938 0 l 1
 358.6328125 0 l 2
 236.727539062 0.015625 319.052734375 0.62890625 319.052734375 0.62890625 c 2
 170.7890625 5.5205078125 60.7802734375 41.1689453125 80.919921875 184.471679688 c 0
 87.828125 233.625 100.784179688 266.005859375 117.55859375 287.286132812 c 1
 105.12109375 308.44921875 100.270507812 341.725585938 107.602539062 393.897460938 c 0
 129.545898438 550.029296875 270.096679688 578.369140625 438.333984375 578.369140625 c 0
 606.571289062 578.369140625 719.49609375 577.647460938 719.49609375 577.647460938 c 2
 735.122070312 577.647460938 746.39453125 561.497070312 743.45703125 540.59765625 c 0
 740.520507812 519.697265625 724.623046875 503.547851562 708.900390625 503.547851562 c 2
 708.900390625 503.547851562 542.787109375 503.573242188 425.892578125 503.573242188 c 0
 308.999023438 503.573242188 202.295898438 479.794921875 190.223632812 393.897460938 c 0
 189.977539062 392.145507812 162.9609375 335.720703125 241.708984375 327.274414062 c 0
 250.040039062 327.12890625 258.323242188 326.943359375 266.4609375 326.943359375 c 0
 319.126953125 326.943359375 366.404296875 326.873046875 406.546875 326.77734375 c 0
 446.716796875 326.873046875 494.013671875 326.943359375 546.680664062 326.943359375 c 0
 623.705078125 326.943359375 718.369140625 343.603515625 696.004882812 184.471679688 c 0
 675.865234375 41.1689453125 555.834960938 5.5205078125 406.198242188 0.62890625 c 2
434.184570312 251.743164062 m 0
 386.703125 251.577148438 325.15234375 251.42578125 253.73046875 251.42578125 c 0
 247.78515625 251.42578125 241.736328125 251.328125 235.643554688 251.219726562 c 0
 152.150390625 243.224609375 163.63671875 186.234375 163.388671875 184.471679688 c 0
 151.44140625 99.4599609375 250.186523438 75.29296875 366.547851562 74.8037109375 c 0
 368.715820312 74.8037109375 370.881835938 74.7978515625 373.048828125 74.7978515625 c 0
 375.215820312 74.7978515625 377.383789062 74.8037109375 379.551757812 74.8037109375 c 0
 496.051757812 75.29296875 601.58984375 99.4599609375 613.537109375 184.471679688 c 0
 613.801757812 186.352539062 645.129882812 251.17578125 542.048828125 252.13671875 c 0
 541.998046875 251.671875 541.985351562 251.42578125 542.015625 251.42578125 c 2
 542.015625 251.42578125 492.196289062 251.577148438 434.184570312 251.743164062 c 0
EndSplineSet
EndChar

StartChar: seven
Encoding: 55 55 24
Width: 715
GlyphClass: 2
Flags: MW
HStem: 539.978 74.7949<382.509 500.445>
LayerCount: 2
Back
Fore
SplineSet
591.604492188 29.8818359375 m 0
 591.657226562 29.8818359375 613.514648438 182.922851562 631.34765625 309.809570312 c 0
 649.180664062 436.696289062 559.413085938 539.977539062 441.477539062 539.977539062 c 0
 323.541015625 539.977539062 155.940429688 539.950195312 155.940429688 539.950195312 c 2
 140.077148438 539.950195312 128.598632812 556.099609375 131.536132812 577.000976562 c 0
 134.473632812 597.900390625 150.38671875 614.05078125 166.12890625 614.05078125 c 2
 166.12890625 614.05078125 280.100585938 614.772460938 449.59375 614.772460938 c 0
 619.087890625 614.772460938 726.396484375 477.568359375 713.817382812 309.807617188 c 1
 665.725585938 29.8818359375 l 2
 663.426757812 13.8740234375 645.37109375 0 624.465820312 0 c 0
 603.559570312 0 589.405273438 13.8740234375 591.604492188 29.8818359375 c 0
EndSplineSet
EndChar

StartChar: eight
Encoding: 56 56 25
Width: 717
GlyphClass: 2
Flags: MW
HStem: 0.000976562 74.7979<355.884 373.597 367.213 373.597> 251.625 75.1484 503.57 74.7979<431.063 437.44>
LayerCount: 2
Back
Fore
SplineSet
561.174804688 251.159179688 m 0
 553.98046875 251.2890625 546.829101562 251.42578125 539.788085938 251.42578125 c 0
 485.990234375 251.42578125 437.818359375 251.51171875 397.048828125 251.625 c 0
 356.248046875 251.51171875 308.052734375 251.42578125 254.254882812 251.42578125 c 0
 247.213867188 251.42578125 240.02734375 251.2890625 232.795898438 251.159179688 c 0
 149.982421875 242.940429688 161.411132812 186.229492188 161.1640625 184.471679688 c 0
 149.233398438 99.5830078125 247.678710938 75.3623046875 363.822265625 74.8056640625 c 0
 366.615234375 74.8056640625 369.407226562 74.798828125 372.200195312 74.798828125 c 0
 374.993164062 74.798828125 377.787109375 74.8056640625 380.580078125 74.8056640625 c 0
 496.879882812 75.3623046875 602.131835938 99.5830078125 614.0625 184.471679688 c 0
 614.309570312 186.229492188 641.677734375 242.940429688 561.174804688 251.159179688 c 0
398.224609375 577.749023438 m 2
 398.224609375 577.749023438 321.2109375 578.346679688 437.16796875 578.368164062 c 0
 437.711914062 578.368164062 438.2578125 578.369140625 438.802734375 578.369140625 c 2
 442.96875 578.369140625 l 1
 447.134765625 578.369140625 l 2
 447.6796875 578.369140625 448.225585938 578.368164062 448.76953125 578.368164062 c 0
 564.720703125 578.346679688 487.5390625 577.749023438 487.5390625 577.749023438 c 2
 635.94921875 572.892578125 746.11328125 537.288085938 725.9609375 393.897460938 c 0
 718.844726562 343.259765625 705.30859375 310.422851562 687.791015625 289.184570312 c 1
 699.338867188 267.946289062 703.64453125 235.109375 696.528320312 184.471679688 c 0
 676.375976562 41.0810546875 556.204101562 5.4765625 406.428710938 0.6201171875 c 2
 406.428710938 0.6201171875 483.442382812 0.0224609375 367.485351562 0.0009765625 c 0
 366.94140625 0.0009765625 366.395507812 0 365.850585938 0 c 2
 361.684570312 0 l 1
 357.518554688 0 l 2
 356.973632812 0 356.427734375 0.0009765625 355.883789062 0.0009765625 c 0
 239.932617188 0.0224609375 317.114257812 0.6201171875 317.114257812 0.6201171875 c 2
 168.704101562 5.4765625 58.5400390625 41.0810546875 78.6923828125 184.471679688 c 0
 85.80859375 235.109375 99.3447265625 267.946289062 116.86328125 289.184570312 c 1
 105.314453125 310.422851562 101.008789062 343.259765625 108.125 393.897460938 c 0
 128.27734375 537.288085938 248.44921875 572.892578125 398.224609375 577.749023438 c 2
407.610351562 326.7734375 m 0
 448.442382812 326.872070312 496.655273438 326.943359375 550.405273438 326.943359375 c 0
 557.538085938 326.943359375 564.821289062 327.083984375 572.149414062 327.215820312 c 0
 654.633789062 335.455078125 643.249023438 392.141601562 643.495117188 393.897460938 c 0
 655.42578125 478.786132812 556.981445312 503.006835938 440.837890625 503.563476562 c 0
 438.044921875 503.563476562 435.252929688 503.5703125 432.459960938 503.5703125 c 0
 429.666992188 503.5703125 426.873046875 503.563476562 424.080078125 503.563476562 c 0
 307.780273438 503.006835938 202.52734375 478.786132812 190.596679688 393.897460938 c 0
 190.350585938 392.141601562 163.032226562 335.455078125 243.200195312 327.215820312 c 0
 250.491210938 327.083984375 257.735351562 326.943359375 264.868164062 326.943359375 c 0
 318.618164062 326.943359375 366.805664062 326.872070312 407.610351562 326.7734375 c 0
EndSplineSet
EndChar

StartChar: nine
Encoding: 57 57 26
Width: 719
GlyphClass: 2
Flags: MW
HStem: 0.000976562 74.7969<320.816 437.744 320.816 450.87> 268.584 75.0352 537.571 74.7988<435.73 444.535>
LayerCount: 2
Back
Fore
SplineSet
403.676757812 611.70703125 m 2
 403.676757812 611.70703125 321.5234375 612.353515625 443.442382812 612.370117188 c 2
 444.53515625 612.370117188 l 1
 447.34765625 612.370117188 l 1
 450.16015625 612.370117188 l 1
 451.252929688 612.370117188 l 2
 573.166015625 612.353515625 490.831054688 611.704101562 490.831054688 611.704101562 c 2
 639.064453125 606.525390625 748.788085938 568.78125 727.46484375 417.0546875 c 0
 720.150390625 365.01171875 715.09375 308.196289062 715.09375 308.196289062 c 2
 699.006835938 195.317382812 706.770507812 250.556640625 699.006835938 195.317382812 c 0
 675.7734375 30.0068359375 534.98828125 0.0009765625 366.750976562 0.0009765625 c 0
 198.513671875 0.0009765625 85.5888671875 0.72265625 85.5888671875 0.72265625 c 2
 69.962890625 0.72265625 58.6904296875 16.8740234375 61.6279296875 37.7744140625 c 0
 64.5654296875 58.67578125 80.4658203125 74.826171875 96.193359375 74.826171875 c 2
 96.193359375 74.826171875 262.352539062 74.7978515625 379.280273438 74.7978515625 c 0
 496.20703125 74.7978515625 603.260742188 100.861328125 616.493164062 195.014648438 c 0
 616.763671875 196.934570312 644.547851562 258.782226562 565.891601562 268.040039062 c 0
 557.559570312 268.19921875 549.276367188 268.40234375 541.135742188 268.40234375 c 0
 488.454101562 268.40234375 441.1640625 268.479492188 401.010742188 268.583984375 c 0
 360.828125 268.479492188 313.516601562 268.40234375 260.834960938 268.40234375 c 0
 183.7890625 268.40234375 88.9755859375 250.875 112.504882812 418.291992188 c 0
 133.693359375 569.055664062 253.9921875 606.560546875 403.676757812 611.70703125 c 2
373.288085938 343.619140625 m 0
 420.771484375 343.80078125 482.325195312 343.965820312 553.747070312 343.965820312 c 0
 559.692382812 343.965820312 565.743164062 344.073242188 571.8359375 344.192382812 c 0
 655.436523438 352.956054688 644.720703125 415.423828125 644.9921875 417.35546875 c 0
 658.087890625 510.538085938 559.669921875 537.028320312 443.314453125 537.564453125 c 0
 441.146484375 537.564453125 438.98046875 537.571289062 436.813476562 537.571289062 c 0
 434.646484375 537.571289062 432.478515625 537.564453125 430.310546875 537.564453125 c 0
 313.8046875 537.028320312 207.940429688 510.543945312 194.84765625 417.379882812 c 0
 194.557617188 415.318359375 162.35546875 344.278320312 265.423828125 343.225585938 c 0
 265.477539062 343.709960938 265.4921875 343.966796875 265.461914062 343.966796875 c 2
 265.461914062 343.966796875 315.278320312 343.80078125 373.288085938 343.619140625 c 0
EndSplineSet
EndChar

StartChar: colon
Encoding: 58 58 27
Width: 200
GlyphClass: 2
Flags: MW
HStem: -0.5 92.5<99.8047 111.805> 216 92.5<130.231 142.231>
VStem: 62.0547 119.177
LayerCount: 2
Back
Fore
SplineSet
92.4814453125 262.25 m 0
 95.9951171875 287.25 117.731445312 308.5 142.731445312 308.5 c 0
 167.731445312 308.5 184.745117188 287.25 181.231445312 262.25 c 0
 177.71875 237.25 154.731445312 216 129.731445312 216 c 0
 104.731445312 216 88.96875 237.25 92.4814453125 262.25 c 0
62.0546875 45.75 m 0
 65.568359375 70.75 87.3046875 92 112.3046875 92 c 0
 137.3046875 92 154.318359375 70.75 150.8046875 45.75 c 0
 147.291015625 20.75 124.3046875 -0.5 99.3046875 -0.5 c 0
 74.3046875 -0.5 58.541015625 20.75 62.0546875 45.75 c 0
EndSplineSet
EndChar

StartChar: semicolon
Encoding: 59 59 28
Width: 206
GlyphClass: 2
Flags: MW
HStem: 11.6426 92.5<102.204 105.565> 216 92.5<130.924 142.924>
VStem: 64.4541 86.4209 93.1738 88.75<262 262>
LayerCount: 2
Back
Fore
SplineSet
64.4541015625 57.892578125 m 0xe0
 67.966796875 82.892578125 89.7041015625 104.142578125 114.704101562 104.142578125 c 0
 139.704101562 104.142578125 156.716796875 82.892578125 153.204101562 57.892578125 c 1
 154.970703125 34.8828125 159.696289062 -2.638671875 150.875 -20.9384765625 c 0
 145.34375 -33.607421875 97.4443359375 -45.337890625 61.7197265625 -50.5 c 1
 92.2080078125 -34.0322265625 117.92578125 -26.7138671875 123.779296875 17.208984375 c 1
 116.955078125 13.669921875 109.42578125 11.642578125 101.704101562 11.642578125 c 0
 76.7041015625 11.642578125 60.9404296875 32.892578125 64.4541015625 57.892578125 c 0xe0
93.173828125 262.25 m 0xd0
 96.6875 287.25 118.423828125 308.5 143.423828125 308.5 c 0
 168.423828125 308.5 185.4375 287.25 181.923828125 262.25 c 0
 178.411132812 237.25 155.423828125 216 130.423828125 216 c 0
 105.423828125 216 89.6611328125 237.25 93.173828125 262.25 c 0xd0
EndSplineSet
EndChar

StartChar: less
Encoding: 60 60 29
Width: 363
GlyphClass: 2
Flags: MW
VStem: 97.0947 296.102
LayerCount: 2
Back
Fore
SplineSet
97.0947265625 360 m 0
 100.29296875 382.75390625 116.49609375 405.547851562 132.340820312 411.557617188 c 0
 132.5390625 411.84765625 368.265625 567.560546875 368.265625 567.560546875 c 1
 383.68359375 572.006835938 395.594726562 562.7890625 393.196289062 545.72265625 c 0
 390.797851562 528.657226562 375.395507812 511.564453125 359.76171875 507.056640625 c 1
 163.76171875 360.001953125 l 1
 318.427734375 212.947265625 l 1
 332.793945312 208.439453125 343.391601562 191.346679688 340.993164062 174.28125 c 0
 338.594726562 157.21484375 324.092773438 147.997070312 309.924804688 152.443359375 c 1
 309.924804688 152.443359375 117.965820312 308.15625 117.849609375 308.446289062 c 0
 103.694335938 314.456054688 93.896484375 337.24609375 97.0947265625 360 c 0
EndSplineSet
EndChar

StartChar: equal
Encoding: 61 61 30
Width: 537
GlyphClass: 2
Flags: MW
HStem: 134 72<105.526 472.57 123.586 462.451> 311.329 72<130.45 497.493 148.509 487.375>
LayerCount: 2
Back
Fore
SplineSet
462.451171875 134 m 2
 117.697265625 134 l 2
 93.35546875 134 83.896484375 149.333007812 86.5205078125 168 c 0
 89.0498046875 186 101.405273438 198.666992188 123.5859375 206 c 1
 472.5703125 206 l 1
 497.907226562 200.666992188 508.463867188 188 504.243164062 168 c 0
 500.7265625 148 486.796875 136.666992188 462.451171875 134 c 2
487.375 311.329101562 m 2
 142.62109375 311.329101562 l 2
 118.279296875 311.329101562 108.819335938 326.662109375 111.443359375 345.329101562 c 0
 113.97265625 363.329101562 126.328125 375.99609375 148.508789062 383.329101562 c 1
 497.493164062 383.329101562 l 2
 523.75390625 382.588867188 533.974609375 366.99609375 530.365234375 346.329101562 c 0
 526.848632812 326.329101562 512.518554688 314.662109375 487.375 311.329101562 c 2
EndSplineSet
EndChar

StartChar: greater
Encoding: 62 62 31
Width: 365
GlyphClass: 2
Flags: MW
VStem: 71.9932 296.102
LayerCount: 2
Back
Fore
SplineSet
368.094726562 360 m 0
 364.896484375 337.24609375 348.693359375 314.452148438 332.848632812 308.442382812 c 0
 332.650390625 308.15234375 96.923828125 152.439453125 96.923828125 152.439453125 c 1
 81.505859375 147.993164062 69.5947265625 157.2109375 71.9931640625 174.27734375 c 0
 74.3916015625 191.342773438 89.7939453125 208.435546875 105.426757812 212.943359375 c 1
 301.427734375 359.998046875 l 1
 146.76171875 507.052734375 l 1
 132.395507812 511.560546875 121.797851562 528.653320312 124.1953125 545.71875 c 0
 126.594726562 562.78515625 141.096679688 572.002929688 155.264648438 567.556640625 c 1
 155.264648438 567.556640625 347.223632812 411.84375 347.33984375 411.553710938 c 0
 361.495117188 405.543945312 371.29296875 382.75390625 368.094726562 360 c 0
EndSplineSet
EndChar

StartChar: question
Encoding: 63 63 32
Width: 621
GlyphClass: 2
Flags: MW
HStem: -0.00195312 79.5498<265.736 276.057> 318.843 63.7988<341.42 341.42> 550.266 64.3242<342.618 437.637>
LayerCount: 2
Back
Fore
SplineSet
341.419921875 318.842773438 m 1
 315.984375 137.85546875 l 2
 314.006835938 123.780273438 298.40234375 111.580078125 280.428710938 111.580078125 c 0
 262.455078125 111.580078125 250.270507812 123.713867188 252.181640625 137.303710938 c 2
 281.877929688 348.603515625 l 2
 284.576171875 367.803710938 298.248046875 382.25 311.736328125 382.641601562 c 2
 550.063476562 382.641601562 l 1
 535.510742188 476.249023438 482.43359375 550.265625 392.83984375 550.265625 c 0
 292.395507812 550.265625 149.654296875 550.2421875 149.654296875 550.2421875 c 2
 136.143554688 550.2421875 126.387695312 564.130859375 128.9140625 582.10546875 c 0
 131.440429688 600.080078125 145.119140625 613.969726562 158.650390625 613.969726562 c 2
 158.650390625 613.969726562 256.609375 614.58984375 402.2890625 614.58984375 c 0
 547.967773438 614.58984375 649.688476562 496.92578125 629.372070312 352.366210938 c 0
 626.720703125 333.499023438 612.677734375 318.918945312 599.244140625 318.919921875 c 2
 599.244140625 318.919921875 423.840820312 318.809570312 341.419921875 318.842773438 c 1
233.271484375 39.7724609375 m 0
 236.29296875 61.2724609375 254.986328125 79.5478515625 276.486328125 79.5478515625 c 0
 297.986328125 79.5478515625 312.618164062 61.2724609375 309.596679688 39.7724609375 c 0
 306.575195312 18.2724609375 286.806640625 -0.001953125 265.306640625 -0.001953125 c 0
 243.806640625 -0.001953125 230.25 18.2724609375 233.271484375 39.7724609375 c 0
EndSplineSet
EndChar

StartChar: at
Encoding: 64 64 33
Width: 706
GlyphClass: 2
Flags: MW
HStem: 4.83691 74.7959 112.771 49.4824<375.221 454.634 375.221 462.626> 414.408 49.4824<410.659 487.51 405.438 490.072> 510.98 0.886719 510.984 74.7959<362.809 421.056 421.055 429.769>
LayerCount: 2
Back
Fore
SplineSet
669.358398438 130.504882812 m 0xe8
 687.20703125 150.815429688 580.250976562 3.5771484375 353.604492188 4.8369140625 c 0
 185.033203125 5.7744140625 66.267578125 135.176757812 88.7724609375 295.30859375 c 0
 111.27734375 455.440429688 266.581054688 585.780273438 435.33203125 585.780273438 c 0xe8
 604.083007812 585.780273438 717.352539062 585.05859375 717.352539062 585.05859375 c 2
 733.026367188 585.05859375 744.340820312 568.908203125 741.403320312 548.008789062 c 0
 738.465820312 527.108398438 722.448242188 510.958984375 706.584960938 510.958984375 c 1
 626.958984375 288.331054688 l 2
 593.10546875 193.680664062 515.770507812 112.771484375 409.482421875 112.771484375 c 0
 303.194335938 112.771484375 227.735351562 191.430664062 241.353515625 288.331054688 c 0
 254.971679688 385.231445312 352.387695312 463.890625 458.48828125 463.890625 c 0
 516.532226562 463.890625 565.360351562 440.348632812 595.456054688 403.158203125 c 1
 627.364257812 441.4453125 580.2265625 491.641601562 518.32421875 510.98046875 c 1
 504.159179688 510.98046875 489.918945312 510.982421875 475.890625 510.982421875 c 1
 487.918945312 511.23828125 501.3046875 511.545898438 515.401367188 511.8671875 c 1xf0
 484.73046875 520.899414062 450.73046875 522.301757812 421.0546875 510.984375 c 1
 438.483398438 510.984375 456.994140625 510.982421875 475.890625 510.982421875 c 1
 441.62109375 510.256835938 418.366210938 509.958984375 421.055664062 510.984375 c 1
 304.5625 510.984375 187.954101562 414.206054688 171.244140625 295.30859375 c 0
 154.534179688 176.411132812 245.2890625 83.5029296875 361.998046875 79.6328125 c 0
 513.5234375 74.6083984375 615.359375 176.868164062 620.08984375 181.608398438 c 0
 631.692382812 193.235351562 651.903320312 188.702148438 667.888671875 176.33203125 c 0
 693.375976562 156.608398438 658.530273438 118.254882812 669.358398438 130.504882812 c 0xe8
288.592773438 288.331054688 m 0
 279.188476562 221.418945312 335.514648438 162.25390625 414.927734375 162.25390625 c 0
 494.340820312 162.25390625 567.295898438 221.418945312 576.700195312 288.331054688 c 0
 586.103515625 355.243164062 529.778320312 414.408203125 450.365234375 414.408203125 c 0
 370.952148438 414.408203125 297.99609375 355.243164062 288.592773438 288.331054688 c 0
EndSplineSet
EndChar

StartChar: A
Encoding: 65 65 34
Width: 746
GlyphClass: 2
Flags: MW
HStem: 0 82.4707<321.595 426.501> 502.729 82.4707<380.658 513.014>
LayerCount: 2
Back
Fore
SplineSet
696.201171875 10.470703125 m 2
 694.092773438 -4.529296875 619.852539062 -5.529296875 621.9609375 9.470703125 c 0
 626.258789062 40.0546875 630.564453125 70.638671875 634.862304688 101.221679688 c 1
 567.282226562 39.236328125 474.872070312 0 378.130859375 0 c 0
 201.295898438 0 75.78515625 131.099609375 98.482421875 292.599609375 c 0
 121.1796875 454.099609375 282.725585938 585.19921875 458.55859375 585.19921875 c 0
 634.391601562 585.19921875 759.087890625 454.099609375 736.390625 292.599609375 c 2
 696.201171875 10.470703125 l 2
177.215820312 292.599609375 m 0
 161.54296875 181.079101562 255.416992188 82.470703125 387.772460938 82.470703125 c 0
 520.127929688 82.470703125 641.71875 181.079101562 657.391601562 292.599609375 c 0
 673.064453125 404.119140625 579.19140625 502.728515625 446.8359375 502.728515625 c 0
 314.48046875 502.728515625 192.888671875 404.119140625 177.215820312 292.599609375 c 0
EndSplineSet
EndChar

StartChar: B
Encoding: 66 66 35
Width: 749
GlyphClass: 2
Flags: MW
HStem: 0 82.4707<323.447 455.803 323.447 465.818> 502.729 82.4707<409.958 514.866>
LayerCount: 2
Back
Fore
SplineSet
160.497070312 718.728515625 m 2
 162.60546875 733.728515625 236.845703125 734.728515625 234.737304688 719.728515625 c 0
 230.438476562 689.14453125 205.895507812 514.560546875 201.59765625 483.977539062 c 1
 269.178710938 545.962890625 361.587890625 585.19921875 458.329101562 585.19921875 c 0
 635.1640625 585.19921875 760.674804688 454.099609375 737.977539062 292.599609375 c 0
 715.280273438 131.099609375 553.734375 0 377.901367188 0 c 0
 202.068359375 0 77.3720703125 131.099609375 100.069335938 292.599609375 c 2
 160.497070312 718.728515625 l 2
659.244140625 292.599609375 m 0
 674.916992188 404.120117188 581.043945312 502.728515625 448.688476562 502.728515625 c 0
 316.333007812 502.728515625 194.741210938 404.120117188 179.068359375 292.599609375 c 0
 163.395507812 181.080078125 257.26953125 82.470703125 389.625 82.470703125 c 0
 521.98046875 82.470703125 643.571289062 181.080078125 659.244140625 292.599609375 c 0
EndSplineSet
EndChar

StartChar: C
Encoding: 67 67 36
Width: 713
GlyphClass: 2
Flags: MW
HStem: -0.171875 74.7959<305.594 423.53 305.594 441.191> 539.976 74.7959<370.995 488.931>
LayerCount: 2
Back
Fore
SplineSet
726.131835938 614.049804688 m 2
 741.874023438 614.049804688 753.248046875 597.899414062 750.310546875 576.999023438 c 0
 747.373046875 556.09765625 731.35546875 539.948242188 715.4921875 539.948242188 c 2
 715.4921875 539.948242188 547.899414062 539.975585938 429.962890625 539.975585938 c 0
 312.02734375 539.975585938 193.071289062 435.569335938 175.044921875 307.299804688 c 0
 157.017578125 179.030273438 246.625976562 74.6240234375 364.561523438 74.6240234375 c 0
 482.498046875 74.6240234375 650.098632812 74.6513671875 650.098632812 74.6513671875 c 2
 665.961914062 74.6513671875 677.440429688 58.501953125 674.502929688 37.6005859375 c 0
 671.565429688 16.7001953125 655.65234375 0.5498046875 639.91015625 0.5498046875 c 2
 639.91015625 0.5498046875 525.938476562 -0.171875 356.444335938 -0.171875 c 0
 186.951171875 -0.171875 68.7529296875 137.795898438 92.5751953125 307.299804688 c 0
 116.397460938 476.803710938 273.375976562 614.771484375 442.869140625 614.771484375 c 0
 612.36328125 614.771484375 726.131835938 614.049804688 726.131835938 614.049804688 c 2
EndSplineSet
EndChar

StartChar: D
Encoding: 68 68 37
Width: 747
GlyphClass: 2
Flags: MW
HStem: 0 82.4707<322.123 454.479 322.123 464.742> 502.729 82.4707<381.187 509.275 372.487 513.542>
LayerCount: 2
Back
Fore
SplineSet
796.26953125 718.728515625 m 2
 736.890625 292.599609375 l 2
 714.193359375 131.099609375 552.654296875 0 376.829101562 0 c 0
 201.00390625 0 76.314453125 131.099609375 99.01171875 292.599609375 c 0
 121.708984375 454.099609375 284.069335938 585.19921875 460.904296875 585.19921875 c 0
 557.645507812 585.19921875 639.02734375 545.962890625 689.184570312 483.977539062 c 1
 693.482421875 514.560546875 718.01171875 689.14453125 722.310546875 719.728515625 c 0
 724.418945312 734.728515625 798.377929688 733.728515625 796.26953125 718.728515625 c 2
177.744140625 292.599609375 m 0
 162.071289062 181.080078125 255.9453125 82.470703125 388.30078125 82.470703125 c 0
 520.65625 82.470703125 642.247070312 181.080078125 657.919921875 292.599609375 c 0
 673.592773438 404.120117188 579.719726562 502.728515625 447.364257812 502.728515625 c 0
 315.008789062 502.728515625 193.416992188 404.120117188 177.744140625 292.599609375 c 0
EndSplineSet
EndChar

StartChar: E
Encoding: 69 69 38
Width: 710
GlyphClass: 2
Flags: W
LayerCount: 2
Back
Fore
SplineSet
686.83203125 165.966796875 m 0
 611.255859375 100.610351562 628.331054688 101.287109375 526.517578125 43.060546875 c 0
 376.744140625 -42.59375 170.573242188 -3.853515625 105.973632812 144.115234375 c 0
 41.3740234375 292.083984375 124.7890625 484.774414062 291.6953125 573.9375 c 0
 428.09375 646.8046875 578.77734375 628.373046875 664.561523438 538.443359375 c 0
 683.748046875 518.330078125 733.606445312 480.416015625 706.16015625 458.19921875 c 0
 631.12109375 394.526367188 553.243164062 334.637695312 473.459960938 277.290039062 c 0
 459.586914062 267.51953125 435.176757812 263.638671875 424.018554688 281.0625 c 0
 412.859375 298.486328125 416.795898438 319.64453125 430.1328125 330.186523438 c 0
 462.254882812 355.577148438 622.115234375 464.73046875 598.760742188 476.5703125 c 0
 519.462890625 516.768554688 425.19921875 552.072265625 324.684570312 498.375 c 0
 200.7578125 432.171875 139.328125 287.9375 183.936523438 185.76171875 c 0
 228.543945312 83.5849609375 378.192382812 30.041015625 492.788085938 113.33203125 c 2
 637.12890625 218.2421875 l 2
 650.864257812 228.225585938 669.955078125 231.133789062 684.952148438 216.985351562 c 0
 699.950195312 202.836914062 699.702148438 177.095703125 686.83203125 165.966796875 c 0
EndSplineSet
AlternateSubs2: "'salt' Stylistic Alternatives in Latin lookup 0 subtable" uniE00A
EndChar

StartChar: F
Encoding: 70 70 39
Width: 714
GlyphClass: 2
Flags: MW
HStem: 300.965 74.0996<226.805 641.723 245.149 631.309> 539.975 74.7959<372.023 489.954>
LayerCount: 2
Back
Fore
SplineSet
631.30859375 300.96484375 m 2
 234.736328125 300.96484375 l 2
 218.873046875 300.96484375 207.39453125 317.115234375 210.33203125 338.014648438 c 0
 213.26953125 358.915039062 229.505859375 375.065429688 245.149414062 375.064453125 c 2
 641.72265625 375.064453125 l 2
 657.5859375 375.064453125 669.064453125 358.915039062 666.126953125 338.014648438 c 0
 663.189453125 317.115234375 647.231445312 301.390625 631.30859375 300.96484375 c 2
137.514648438 30.2041015625 m 1
 135.190429688 14.0234375 117.120117188 -0.001953125 96.2197265625 -0.001953125 c 0
 75.3203125 -0.001953125 61.1904296875 14.021484375 63.4150390625 30.2021484375 c 0
 63.4677734375 30.2021484375 93.802734375 312.262695312 93.802734375 312.262695312 c 1
 128.196289062 478.671875 274.012695312 614.770507812 443.637695312 614.770507812 c 0
 613.262695312 614.770507812 727.120117188 614.048828125 727.120117188 614.048828125 c 2
 742.875 614.048828125 754.259765625 597.8984375 751.322265625 576.998046875 c 0
 748.384765625 556.096679688 732.368164062 539.947265625 716.505859375 539.947265625 c 2
 716.505859375 539.947265625 548.919921875 539.974609375 430.98828125 539.974609375 c 0
 313.057617188 539.974609375 194.2734375 436.758789062 176.451171875 309.952148438 c 0
 158.629882812 183.145507812 137.46484375 30.2041015625 137.514648438 30.2041015625 c 1
EndSplineSet
EndChar

StartChar: G
Encoding: 71 71 40
Width: 725
GlyphClass: 2
Flags: MW
HStem: -0.171875 74.7939<314.586 412.656 314.586 447.485> 539.974 74.7979<378.692 495.693>
LayerCount: 2
Back
Fore
SplineSet
731.059570312 614.049804688 m 2
 746.693359375 614.049804688 757.977539062 597.897460938 755.040039062 576.997070312 c 0
 752.102539062 556.095703125 736.194335938 539.946289062 720.45703125 539.946289062 c 2
 720.45703125 539.946289062 554.193359375 539.973632812 437.192382812 539.973632812 c 0
 320.192382812 539.973632812 202.063476562 435.567382812 184.036132812 307.297851562 c 0
 166.009765625 179.028320312 255.618164062 74.6220703125 373.553710938 74.6220703125 c 0
 451.758789062 74.6220703125 551.803710938 74.6337890625 610.333007812 74.642578125 c 1
 645.783203125 327.041015625 l 2
 648.056640625 343.223632812 666.177734375 357.248046875 687.078125 357.248046875 c 0
 707.977539062 357.248046875 722.188476562 343.451171875 719.951171875 327.53125 c 2
 679.5546875 39.9150390625 l 2
 676.422851562 17.71875 660.470703125 0.59375 644.84375 0.59375 c 2
 644.84375 0.59375 531.649414062 -0.171875 363.321289062 -0.171875 c 0
 194.993164062 -0.171875 77.7412109375 137.795898438 101.563476562 307.299804688 c 0
 125.385742188 476.803710938 281.41796875 614.771484375 449.74609375 614.771484375 c 0
 618.07421875 614.771484375 731.059570312 614.049804688 731.059570312 614.049804688 c 2
EndSplineSet
AlternateSubs2: "'salt' Stylistic Alternatives in Latin lookup 0 subtable" uniE003
EndChar

StartChar: H
Encoding: 72 72 41
Width: 686
GlyphClass: 2
Flags: MW
HStem: 425.532 82.4717<369.058 466.864>
LayerCount: 2
Back
Fore
SplineSet
98.107421875 0 m 2
 77.193359375 0 62.9736328125 13.8271484375 65.2158203125 29.779296875 c 2
 65.2158203125 29.779296875 64.5673828125 30.310546875 88.7060546875 202.064453125 c 0
 89.87890625 210.407226562 91.365234375 218.672851562 93.1533203125 226.850585938 c 0
 117.2578125 398.665039062 148.633789062 622.122070312 148.776367188 622.223632812 c 0
 151.017578125 638.17578125 169.110351562 652.000976562 190.010742188 652.000976562 c 0
 210.91015625 652.000976562 224.732421875 638.46875 222.96484375 622.85546875 c 2
 193.143554688 410.666992188 l 1
 257.317382812 470.431640625 324.323242188 508.00390625 413.791992188 508.00390625 c 0
 581.681640625 508.00390625 684.263671875 370.002929688 660.37109375 200.001953125 c 0
 636.479492188 30.0009765625 635.68359375 29.474609375 635.68359375 29.474609375 c 2
 633.463867188 13.6845703125 615.390625 0 594.491210938 0 c 0
 573.590820312 0 559.384765625 13.8251953125 561.625976562 29.77734375 c 2
 561.625976562 29.77734375 569.198242188 83.4619140625 585.8671875 202.0625 c 0
 602.53515625 320.662109375 529.732421875 425.532226562 403.995117188 425.532226562 c 0
 282.118164062 425.532226562 187.405273438 327.002929688 165.357421875 212.944335938 c 1
 139.614257812 29.77734375 l 2
 137.373046875 13.8251953125 119.267578125 0 98.353515625 0 c 2
 98.107421875 0 l 2
EndSplineSet
AlternateSubs2: "'salt' Stylistic Alternatives in Latin lookup 0 subtable" uniE004
EndChar

StartChar: I
Encoding: 73 73 42
Width: 197
GlyphClass: 2
Flags: MW
VStem: 69.1963 74.0996<29.6143 29.6143>
LayerCount: 2
Back
Fore
SplineSet
222.668945312 594.38671875 m 2
 143.295898438 29.6142578125 l 2
 141.06640625 13.75 122.983398438 0.0009765625 102.083984375 0.0009765625 c 0
 81.18359375 0.0009765625 66.99609375 13.96875 69.1962890625 29.6142578125 c 2
 148.569335938 594.38671875 l 2
 150.799804688 610.250976562 168.880859375 624 189.78125 624 c 0
 210.680664062 624 224.473632812 610.250976562 222.668945312 594.38671875 c 2
EndSplineSet
EndChar

StartChar: J
Encoding: 74 74 43
Width: 720
GlyphClass: 2
Flags: MW
HStem: 0.00195312 74.7949<319.765 437.696 319.765 450.57>
LayerCount: 2
Back
Fore
SplineSet
672.25 584.889648438 m 1
 674.548828125 600.897460938 692.598632812 614.774414062 713.499023438 614.774414062 c 0
 734.3984375 614.774414062 748.548828125 600.900390625 746.348632812 584.892578125 c 0
 746.298828125 584.892578125 715.7578125 304.966796875 715.7578125 304.966796875 c 1
 681.182617188 137.206054688 535.313476562 0.001953125 365.826171875 0.001953125 c 0
 196.338867188 0.001953125 82.57421875 0.7236328125 82.57421875 0.7236328125 c 2
 66.83203125 0.7236328125 55.458984375 16.8740234375 58.396484375 37.7734375 c 0
 61.333984375 58.6748046875 77.3505859375 74.82421875 93.212890625 74.82421875 c 2
 93.212890625 74.82421875 260.798828125 74.796875 378.73046875 74.796875 c 0
 496.661132812 74.796875 615.455078125 178.078125 633.288085938 304.96484375 c 0
 651.120117188 431.8515625 672.299804688 584.889648438 672.25 584.889648438 c 1
EndSplineSet
EndChar

StartChar: K
Encoding: 75 75 44
Width: 594
GlyphClass: 2
Flags: W
LayerCount: 2
Back
Fore
SplineSet
550.403320312 29.5400390625 m 0
 557.642578125 13.93359375 542.755859375 -0.0009765625 515.126953125 -0.0009765625 c 0
 487.5 -0.0009765625 459.7890625 13.7138671875 452.448242188 29.5390625 c 2
 342.11328125 279.0234375 l 1
 158.774414062 29.5390625 l 2
 147.145507812 13.7138671875 116.071289062 -0.0009765625 88.9033203125 -0.0009765625 c 0
 71.748046875 -0.0009765625 61.13671875 5.5546875 58.5322265625 13.5771484375 c 0
 55.220703125 18.26171875 53.7158203125 23.7861328125 54.5244140625 29.5390625 c 2
 137.853515625 622.458007812 l 2
 140.078125 638.283203125 158.155273438 651.998046875 179.055664062 651.998046875 c 0
 199.955078125 651.998046875 213.751953125 638.283203125 211.953125 622.458007812 c 2
 144.984375 145.947265625 l 1
 191.125 207.919921875 249.849609375 286.790039062 306.190429688 362.444335938 c 1
 305.287109375 370.807617188 310.713867188 378.127929688 321.006835938 382.340820312 c 1
 415.743164062 509.548828125 499.811523438 622.38671875 499.985351562 622.458984375 c 0
 511.774414062 638.284179688 543.338867188 651.999023438 570.967773438 651.999023438 c 0
 598.594726562 651.999023438 609.165039062 638.284179688 597.939453125 622.458984375 c 2
 403.169921875 360.990234375 l 2
 404.515625 359.115234375 548.887695312 32.96875 550.403320312 29.5400390625 c 0
EndSplineSet
EndChar

StartChar: L
Encoding: 76 76 45
Width: 710
GlyphClass: 2
Flags: MW
HStem: -0.000976562 74.7949<304.031 421.967 304.031 439.629>
LayerCount: 2
Back
Fore
SplineSet
212.873046875 584.889648438 m 0
 212.8203125 584.889648438 190.961914062 431.848632812 173.12890625 304.961914062 c 0
 155.295898438 178.075195312 245.063476562 74.7939453125 362.999023438 74.7939453125 c 0
 480.935546875 74.7939453125 648.536132812 74.8212890625 648.536132812 74.8212890625 c 2
 664.399414062 74.8212890625 675.877929688 58.671875 672.940429688 37.7705078125 c 0
 670.002929688 16.87109375 654.08984375 0.720703125 638.34765625 0.720703125 c 2
 638.34765625 0.720703125 524.375976562 -0.0009765625 354.8828125 -0.0009765625 c 0
 185.389648438 -0.0009765625 78.0810546875 137.203125 90.6611328125 304.963867188 c 1
 138.751953125 584.889648438 l 2
 141.05078125 600.897460938 159.106445312 614.771484375 180.01171875 614.771484375 c 0
 200.91796875 614.771484375 215.072265625 600.897460938 212.873046875 584.889648438 c 0
EndSplineSet
EndChar

StartChar: M
Encoding: 77 77 46
Width: 1107
GlyphClass: 2
Flags: MW
HStem: 542.131 82.4678<342.591 468.328 816.579 925.264>
LayerCount: 2
Back
Fore
SplineSet
1055.51269531 29.6123046875 m 2
 1053.28320312 13.7490234375 1035.19628906 0.0009765625 1014.29589844 0.0009765625 c 0
 993.395507812 0.0009765625 979.196289062 13.87109375 981.4453125 29.875 c 2
 981.4453125 29.875 1005.23535156 198.958984375 1021.95703125 317.94140625 c 0
 1038.67871094 436.922851562 988.131835938 542.130859375 862.395507812 542.130859375 c 0
 736.657226562 542.130859375 656.540039062 436.922851562 639.818359375 317.94140625 c 0
 623.096679688 198.958984375 599.360351562 29.875 599.360351562 29.875 c 2
 597.111328125 13.87109375 579.010742188 0.0009765625 558.109375 0.0009765625 c 0
 557.985351562 0.0009765625 557.860351562 0.001953125 557.736328125 0.001953125 c 0
 557.611328125 0.001953125 557.487304688 0.0009765625 557.36328125 0.0009765625 c 0
 536.461914062 0.0009765625 522.259765625 13.87109375 524.508789062 29.875 c 2
 524.508789062 29.875 548.298828125 198.958984375 565.020507812 317.94140625 c 0
 581.7421875 436.922851562 531.197265625 542.130859375 405.458984375 542.130859375 c 0
 279.72265625 542.130859375 198.545898438 436.922851562 181.82421875 317.94140625 c 0
 165.102539062 198.958984375 141.365234375 29.875 141.365234375 29.875 c 2
 139.116210938 13.87109375 121.018554688 0.0009765625 100.118164062 0.0009765625 c 0
 79.2177734375 0.0009765625 65 13.7490234375 67.2294921875 29.6123046875 c 2
 67.2294921875 29.6123046875 82.634765625 144.358398438 106.638671875 315.155273438 c 0
 130.642578125 485.952148438 250.700195312 624.598632812 417.865234375 624.598632812 c 0
 531.043945312 624.598632812 584.73046875 562.708984375 623.94921875 471.115234375 c 1
 688.912109375 562.708984375 759.991210938 624.598632812 873.166992188 624.598632812 c 0
 1040.32714844 624.598632812 1120.3671875 485.952148438 1096.36328125 315.155273438 c 0
 1072.359375 144.358398438 1055.51269531 29.6123046875 1055.51269531 29.6123046875 c 2
EndSplineSet
EndChar

StartChar: N
Encoding: 78 78 47
Width: 723
GlyphClass: 2
Flags: MW
HStem: 0.000976562 29.6113<67.3086 110.646> 542.131 82.4678<378.625 504.362>
LayerCount: 2
Back
Fore
SplineSet
671.623046875 29.6123046875 m 2
 669.393554688 13.7490234375 651.306640625 0.0009765625 630.407226562 0.0009765625 c 0
 609.506835938 0.0009765625 595.306640625 13.87109375 597.555664062 29.875 c 2
 597.555664062 29.875 621.346679688 198.958984375 638.068359375 317.94140625 c 0
 654.790039062 436.922851562 567.23046875 542.130859375 441.493164062 542.130859375 c 0
 315.755859375 542.130859375 198.624023438 436.922851562 181.90234375 317.94140625 c 0
 165.180664062 198.958984375 141.444335938 29.875 141.444335938 29.875 c 2
 139.1953125 13.87109375 121.096679688 0.0009765625 100.196289062 0.0009765625 c 0
 79.296875 0.0009765625 65.0791015625 13.7490234375 67.30859375 29.6123046875 c 2
 67.30859375 29.6123046875 82.712890625 144.358398438 106.716796875 315.155273438 c 0
 130.720703125 485.952148438 286.11328125 624.598632812 453.084960938 624.598632812 c 0
 620.056640625 624.598632812 736.478515625 485.952148438 712.474609375 315.155273438 c 0
 688.470703125 144.358398438 671.623046875 29.6123046875 671.623046875 29.6123046875 c 2
EndSplineSet
EndChar

StartChar: O
Encoding: 79 79 48
Width: 742
GlyphClass: 2
Flags: MW
HStem: 0 82.4707<319.479 451.834 319.479 461.945> 536.729 82.4707<383.32 515.676>
LayerCount: 2
Back
Fore
SplineSet
177.489257812 309.599609375 m 0
 160.547851562 189.056640625 253.30078125 82.470703125 385.65625 82.470703125 c 0
 518.01171875 82.470703125 640.723632812 189.056640625 657.665039062 309.599609375 c 0
 674.60546875 430.141601562 581.853515625 536.728515625 449.498046875 536.728515625 c 0
 317.142578125 536.728515625 194.4296875 430.141601562 177.489257812 309.599609375 c 0
98.7568359375 309.599609375 m 0
 122.772460938 480.482421875 285.328125 619.19921875 461.087890625 619.19921875 c 0
 636.84765625 619.19921875 760.413085938 480.482421875 736.397460938 309.599609375 c 0
 712.380859375 138.716796875 549.825195312 0 374.065429688 0 c 0
 198.305664062 0 74.740234375 138.716796875 98.7568359375 309.599609375 c 0
EndSplineSet
EndChar

StartChar: P
Encoding: 80 80 49
Width: 752
GlyphClass: 2
Flags: MW
HStem: 6.91504 82.4688<330.272 458.36 326.005 467.06> 536.728 82.4707<388.875 521.23>
LayerCount: 2
Back
Fore
SplineSet
47.7509765625 -94.787109375 m 2
 104.424804688 312.302734375 l 2
 128.23046875 481.693359375 290.676757812 619.198242188 466.509765625 619.198242188 c 0
 642.342773438 619.198242188 766.186523438 482.03125 742.438476562 313.056640625 c 0
 718.690429688 144.08203125 555.477539062 6.9150390625 378.642578125 6.9150390625 c 0
 281.901367188 6.9150390625 200.5859375 46.6201171875 150.532226562 109.345703125 c 1
 146.073242188 77.61328125 126.163085938 -64.1025390625 121.703125 -95.8359375 c 0
 119.4921875 -111.568359375 45.5400390625 -110.51953125 47.7509765625 -94.787109375 c 2
663.705078125 313.055664062 m 0
 680.388671875 431.762695312 587.408203125 536.727539062 455.052734375 536.727539062 c 0
 322.697265625 536.727539062 200.212890625 431.762695312 183.529296875 313.055664062 c 0
 166.845703125 194.34765625 259.827148438 89.3837890625 392.182617188 89.3837890625 c 0
 524.538085938 89.3837890625 647.021484375 194.34765625 663.705078125 313.055664062 c 0
EndSplineSet
EndChar

StartChar: Q
Encoding: 81 81 50
Width: 746
GlyphClass: 2
Flags: MW
HStem: 6.91602 82.4697<322.566 427.473> 536.729 82.4697<385.437 517.792>
LayerCount: 2
Back
Fore
SplineSet
681.408203125 -94.787109375 m 2
 679.197265625 -110.51953125 604.950195312 -111.567382812 607.161132812 -95.8349609375 c 0
 611.62109375 -64.1015625 631.544921875 77.6142578125 636.00390625 109.346679688 c 1
 568.319335938 46.62109375 475.84375 6.916015625 379.102539062 6.916015625 c 0
 202.267578125 6.916015625 77.6103515625 144.083007812 101.357421875 313.057617188 c 0
 125.10546875 482.032226562 287.50390625 619.19921875 463.336914062 619.19921875 c 0
 639.169921875 619.19921875 762.965820312 481.694335938 739.16015625 312.303710938 c 2
 681.408203125 -94.787109375 l 2
180.090820312 313.057617188 m 0
 163.408203125 194.349609375 256.388671875 89.3857421875 388.744140625 89.3857421875 c 0
 521.099609375 89.3857421875 643.583984375 194.349609375 660.266601562 313.057617188 c 0
 676.950195312 431.764648438 583.969726562 536.729492188 451.614257812 536.729492188 c 0
 319.258789062 536.729492188 196.774414062 431.764648438 180.090820312 313.057617188 c 0
EndSplineSet
EndChar

StartChar: R
Encoding: 82 82 51
Width: 715
GlyphClass: 2
Flags: MW
HStem: 539.975 74.7949<372.55 490.481>
LayerCount: 2
Back
Fore
SplineSet
137.99609375 29.8818359375 m 1
 135.697265625 13.8740234375 117.647460938 -0.0029296875 96.7470703125 -0.0029296875 c 0
 75.84765625 -0.0029296875 61.6962890625 13.87109375 63.896484375 29.87890625 c 0
 63.94921875 29.87890625 93.984375 309.8046875 93.984375 309.8046875 c 1
 128.568359375 477.565429688 274.540039062 614.76953125 444.165039062 614.76953125 c 0
 613.790039062 614.76953125 727.647460938 614.047851562 727.647460938 614.047851562 c 2
 743.40234375 614.047851562 754.787109375 597.897460938 751.849609375 576.998046875 c 0
 748.912109375 556.096679688 732.895507812 539.947265625 717.033203125 539.947265625 c 2
 717.033203125 539.947265625 549.447265625 539.974609375 431.515625 539.974609375 c 0
 313.584960938 539.974609375 194.791015625 436.693359375 176.958007812 309.806640625 c 0
 159.125976562 182.919921875 137.946289062 29.8818359375 137.99609375 29.8818359375 c 1
EndSplineSet
EndChar

StartChar: S
Encoding: 83 83 52
Width: 721
GlyphClass: 2
Flags: MW
HStem: 0.000976562 74.7969<321.983 438.911 321.983 452.037> 268.393 74.7939<268.534 268.534 268.534 346.647> 537.573 74.7969<374.762 491.689>
LayerCount: 2
Back
Fore
SplineSet
551.670898438 343.977539062 m 0
 628.716796875 343.977539062 723.530273438 361.506835938 700 194.083984375 c 0
 676.9140625 29.8173828125 536.155273438 0.0009765625 367.91796875 0.0009765625 c 0
 199.680664062 0.0009765625 86.755859375 0.72265625 86.755859375 0.72265625 c 2
 71.1298828125 0.72265625 59.857421875 16.8740234375 62.794921875 37.7744140625 c 0
 65.732421875 58.67578125 81.6328125 74.826171875 97.3603515625 74.826171875 c 2
 97.3603515625 74.826171875 263.51953125 74.7978515625 380.447265625 74.7978515625 c 0
 497.374023438 74.7978515625 604.426757812 100.850585938 617.653320312 194.96484375 c 0
 617.9453125 197.043945312 650.499023438 269.272460938 545.12890625 269.114257812 c 0
 544.625 269.258789062 431.29296875 268.392578125 262.001953125 268.392578125 c 0
 184.956054688 268.392578125 90.1435546875 250.864257812 113.672851562 418.287109375 c 0
 136.759765625 582.553710938 277.518554688 612.370117188 445.755859375 612.370117188 c 0
 613.993164062 612.370117188 726.91796875 611.6484375 726.91796875 611.6484375 c 2
 742.543945312 611.6484375 753.815429688 595.497070312 750.877929688 574.596679688 c 0
 747.940429688 553.6953125 732.041015625 537.544921875 716.313476562 537.544921875 c 2
 716.313476562 537.544921875 550.153320312 537.573242188 433.225585938 537.573242188 c 0
 316.298828125 537.573242188 209.245117188 511.510742188 196.013671875 417.36328125 c 0
 195.721679688 415.283203125 163.146484375 342.892578125 268.534179688 343.186523438 c 2
 268.534179688 343.186523438 382.379882812 343.977539062 551.670898438 343.977539062 c 0
EndSplineSet
AlternateSubs2: "'salt' Stylistic Alternatives in Latin lookup 0 subtable" uniE016
EndChar

StartChar: T
Encoding: 84 84 53
Width: 608
GlyphClass: 2
Flags: MW
HStem: 0.000976562 29.8389<273.81 317.116> 549.755 74.168<420.979 420.979>
LayerCount: 2
Back
Fore
SplineSet
158.3046875 623.921875 m 2
 380.0859375 623.922851562 l 2
 384.6640625 625.259765625 389.572265625 626.000976562 394.643554688 626.000976562 c 0
 399.71484375 626.000976562 404.391601562 625.259765625 408.5625 623.922851562 c 2
 630.400390625 623.922851562 l 2
 646.13671875 623.922851562 657.505859375 607.772460938 654.568359375 586.873046875 c 0
 651.630859375 565.97265625 635.39453125 549.822265625 619.750976562 549.823242188 c 2
 619.750976562 549.823242188 525.5546875 549.782226562 420.978515625 549.754882812 c 1
 347.909179688 29.83984375 l 2
 345.663085938 13.8544921875 327.565429688 0.0009765625 306.666015625 0.0009765625 c 0
 285.765625 0.0009765625 271.59375 14.0751953125 273.809570312 29.83984375 c 2
 273.809570312 29.83984375 326.346679688 404.70703125 346.797851562 549.736328125 c 1
 242.294921875 549.719726562 148.188476562 549.729492188 148.126953125 549.822265625 c 0
 132.263671875 549.822265625 120.78515625 565.971679688 123.72265625 586.872070312 c 0
 126.66015625 607.771484375 142.508789062 623.49609375 158.3046875 623.921875 c 2
EndSplineSet
EndChar

StartChar: U
Encoding: 85 85 54
Width: 720
GlyphClass: 2
Flags: MW
HStem: 0.000976562 82.4678<312.441 438.178 312.441 447.207> 594.725 29.874<175.945 219.246>
LayerCount: 2
Back
Fore
SplineSet
749.495117188 594.987304688 m 2
 749.495117188 594.987304688 734.092773438 480.241210938 710.088867188 309.444335938 c 0
 686.084960938 138.647460938 530.692382812 0.0009765625 363.720703125 0.0009765625 c 0
 196.749023438 0.0009765625 80.3271484375 138.647460938 104.331054688 309.444335938 c 0
 128.334960938 480.241210938 145.18359375 594.987304688 145.18359375 594.987304688 c 2
 147.413085938 610.850585938 165.495117188 624.598632812 186.39453125 624.598632812 c 0
 207.294921875 624.598632812 221.495117188 610.728515625 219.24609375 594.724609375 c 2
 219.24609375 594.724609375 195.45703125 425.640625 178.734375 306.658203125 c 0
 162.012695312 187.676757812 249.572265625 82.46875 375.309570312 82.46875 c 0
 501.046875 82.46875 618.178710938 187.676757812 634.900390625 306.658203125 c 0
 651.623046875 425.640625 675.358398438 594.724609375 675.358398438 594.724609375 c 2
 677.607421875 610.728515625 695.706054688 624.598632812 716.606445312 624.598632812 c 0
 737.505859375 624.598632812 751.724609375 610.850585938 749.495117188 594.987304688 c 2
EndSplineSet
EndChar

StartChar: V
Encoding: 86 86 55
Width: 615
GlyphClass: 2
Flags: MW
HStem: -0.720703 0.72168<259.062 270.112 259.062 349.86>
LayerCount: 2
Back
Fore
SplineSet
278.884765625 74.0908203125 m 2
 276.29296875 74.07421875 l 2
 277.15625 74.07421875 278.022460938 74.0908203125 278.884765625 74.0908203125 c 2
134.177734375 584.35546875 m 2
 131.021484375 600.234375 144.526367188 614 166.627929688 614 c 0
 188.73046875 614 208.91796875 600.125976562 212.506835938 584.118164062 c 0
 212.717773438 583.981445312 272.072265625 211.920898438 293.934570312 74.837890625 c 1
 405.81640625 84.4384765625 513.893554688 183.6875 530.836914062 304.245117188 c 0
 548.669921875 431.131835938 569.848632812 584.169921875 569.798828125 584.169921875 c 1
 572.098632812 600.177734375 590.1484375 614.051757812 611.048828125 614.051757812 c 0
 631.948242188 614.051757812 646.098632812 600.177734375 643.8984375 584.169921875 c 0
 643.848632812 584.169921875 613.307617188 304.244140625 613.307617188 304.244140625 c 1
 578.818359375 136.483398438 433.940429688 -0.720703125 265.780273438 -0.720703125 c 0
 94.9892578125 -0.720703125 270.112304688 0.0009765625 270.112304688 0.0009765625 c 2
 248.010742188 0.0009765625 227.806640625 13.7626953125 224.200195312 29.6416015625 c 2
 134.177734375 584.35546875 l 2
EndSplineSet
AlternateSubs2: "'salt' Stylistic Alternatives in Latin lookup 0 subtable" uniE015
EndChar

StartChar: W
Encoding: 87 87 56
Width: 1105
GlyphClass: 2
Flags: MW
HStem: 0.000976562 82.4678<275.878 384.562 732.814 858.552>
LayerCount: 2
Back
Fore
SplineSet
145.629882812 594.987304688 m 2
 147.859375 610.850585938 165.9453125 624.598632812 186.845703125 624.598632812 c 0
 207.74609375 624.598632812 221.9453125 610.728515625 219.696289062 594.724609375 c 2
 219.696289062 594.724609375 195.907226562 425.640625 179.184570312 306.658203125 c 0
 162.462890625 187.676757812 213.009765625 82.46875 338.74609375 82.46875 c 0
 464.484375 82.46875 544.6015625 187.676757812 561.323242188 306.658203125 c 0
 578.045898438 425.640625 601.782226562 594.724609375 601.782226562 594.724609375 c 2
 604.03125 610.728515625 622.131835938 624.598632812 643.033203125 624.598632812 c 0
 643.157226562 624.598632812 643.282226562 624.59765625 643.40625 624.59765625 c 0
 643.53125 624.59765625 643.655273438 624.598632812 643.779296875 624.598632812 c 0
 664.680664062 624.598632812 678.8828125 610.728515625 676.633789062 594.724609375 c 2
 676.633789062 594.724609375 652.844726562 425.640625 636.122070312 306.658203125 c 0
 619.400390625 187.676757812 669.9453125 82.46875 795.68359375 82.46875 c 0
 921.419921875 82.46875 1002.59667969 187.676757812 1019.31835938 306.658203125 c 0
 1036.04101562 425.640625 1059.77636719 594.724609375 1059.77636719 594.724609375 c 2
 1062.02539062 610.728515625 1080.12304688 624.598632812 1101.0234375 624.598632812 c 0
 1121.92382812 624.598632812 1136.14257812 610.850585938 1133.91308594 594.987304688 c 2
 1133.91308594 594.987304688 1118.50683594 480.241210938 1094.50292969 309.444335938 c 0
 1070.49902344 138.647460938 950.44140625 0.0009765625 783.276367188 0.0009765625 c 0
 670.09765625 0.0009765625 616.412109375 61.890625 577.193359375 153.484375 c 1
 512.23046875 61.890625 441.150390625 0.0009765625 327.974609375 0.0009765625 c 0
 160.814453125 0.0009765625 80.7744140625 138.647460938 104.778320312 309.444335938 c 0
 128.782226562 480.241210938 145.629882812 594.987304688 145.629882812 594.987304688 c 2
EndSplineSet
EndChar

StartChar: X
Encoding: 88 88 57
Width: 661
GlyphClass: 2
Flags: W
LayerCount: 2
Back
Fore
SplineSet
704.19921875 594.38671875 m 2
 425.999023438 312.052734375 l 1
 525.419921875 170.841796875 624.826171875 29.61328125 624.826171875 29.61328125 c 2
 632.403320312 13.9677734375 617.8203125 0 590.190429688 0 c 0
 562.564453125 0 534.555664062 13.7490234375 526.873046875 29.61328125 c 2
 368.823242188 254.026367188 l 1
 147.6953125 29.61328125 l 2
 135.553710938 13.7490234375 103.6796875 0 76.0537109375 0 c 0
 48.423828125 0 37.7666015625 13.9677734375 49.7421875 29.61328125 c 2
 49.7421875 29.61328125 188.842773438 170.841796875 327.958007812 312.052734375 c 1
 129.115234375 594.38671875 l 2
 121.995117188 610.250976562 136.123046875 624 163.750976562 624 c 0
 191.37890625 624 219.38671875 610.250976562 227.068359375 594.38671875 c 0
 227.220703125 594.315429688 301.09765625 489.4375 385.134765625 370.090820312 c 1
 502.717773438 489.4375 606.073242188 594.315429688 606.24609375 594.38671875 c 0
 618.388671875 610.250976562 650.259765625 624 677.887695312 624 c 0
 705.515625 624 715.780273438 610.250976562 704.19921875 594.38671875 c 2
EndSplineSet
EndChar

StartChar: Y
Encoding: 89 89 58
Width: 683
GlyphClass: 2
Flags: MW
HStem: -65.3203 74.7939<276.63 394.559 276.63 408.191> 114.717 82.4717<312.17 409.978>
LayerCount: 2
Back
Fore
SplineSet
681.165039062 624.599609375 m 2
 702.064453125 624.599609375 716.265625 610.716796875 714.013671875 594.694335938 c 2
 714.013671875 594.694335938 714.66015625 594.16015625 690.415039062 421.6484375 c 0
 689.237304688 413.268554688 687.748046875 404.965820312 685.961914062 396.751953125 c 0
 661.470703125 222.176757812 657.319335938 192.423828125 657.171875 192.3203125 c 0
 640.297851562 8.7451171875 492.786132812 -65.3203125 323.595703125 -65.3203125 c 0
 154.405273438 -65.3203125 194.838867188 -64.5986328125 194.838867188 -64.5986328125 c 2
 179.125 -64.5986328125 167.776367188 -48.4482421875 170.712890625 -27.548828125 c 0
 173.650390625 -6.6484375 189.666992188 9.5009765625 205.529296875 9.5009765625 c 2
 205.529296875 9.5009765625 217.665039062 9.4736328125 335.594726562 9.4736328125 c 0
 453.5234375 9.4736328125 563.46484375 49.77734375 580.83203125 173.352539062 c 0
 581.619140625 178.95703125 582.344726562 184.133789062 583.016601562 188.908203125 c 0
 582.966796875 190.098632812 583.009765625 191.307617188 583.147460938 192.528320312 c 2
 585.901367188 212.119140625 l 1
 521.721679688 152.314453125 454.711914062 114.716796875 365.243164062 114.716796875 c 0
 197.353515625 114.716796875 94.84375 253.227539062 118.82421875 423.857421875 c 0
 142.8046875 594.487304688 143.600585938 595.015625 143.600585938 595.015625 c 2
 145.828125 610.86328125 163.908203125 624.598632812 184.807617188 624.598632812 c 0
 205.708007812 624.598632812 219.90625 610.711914062 217.654296875 594.689453125 c 2
 217.654296875 594.689453125 210.048828125 540.768554688 193.306640625 421.64453125 c 0
 176.565429688 302.521484375 249.301757812 197.188476562 375.0390625 197.188476562 c 0
 496.916015625 197.188476562 591.690429688 296.153320312 613.809570312 410.71484375 c 1
 639.665039062 594.690429688 l 2
 641.916992188 610.712890625 660.01953125 624.599609375 680.918945312 624.599609375 c 2
 681.165039062 624.599609375 l 2
586.830078125 216.18359375 m 0
 594.54296875 271.553710938 586.938476562 219.00390625 585.995117188 212.72265625 c 1
 586.19140625 213.890625 586.471679688 215.044921875 586.830078125 216.18359375 c 0
EndSplineSet
AlternateSubs2: "'salt' Stylistic Alternatives in Latin lookup 0 subtable" uniE00D
EndChar

StartChar: Z
Encoding: 90 90 59
Width: 723
GlyphClass: 2
Flags: MW
HStem: 0 74.7969<310.78 427.707 310.78 444.868> 269.184 74.7939 537.572 74.7979<388.079 505.006>
LayerCount: 2
Back
Fore
SplineSet
273.681640625 343.977539062 m 0
 442.97265625 343.977539062 556.60546875 343.254882812 556.60546875 343.254882812 c 2
 661.911132812 342.9609375 649.6796875 415.326171875 649.971679688 417.405273438 c 0
 663.19921875 511.51953125 563.469726562 537.572265625 446.54296875 537.572265625 c 0
 329.615234375 537.572265625 163.447265625 537.544921875 163.447265625 537.544921875 c 2
 147.719726562 537.544921875 136.359375 553.6953125 139.296875 574.596679688 c 0
 142.234375 595.497070312 158.046875 611.6484375 173.672851562 611.6484375 c 2
 173.672851562 611.6484375 286.80078125 612.370117188 455.038085938 612.370117188 c 0
 623.275390625 612.370117188 755.653320312 582.553710938 732.56640625 418.287109375 c 0
 709.037109375 250.864257812 619.150390625 268.392578125 542.104492188 268.392578125 c 0
 372.813476562 268.392578125 259.737304688 269.341796875 259.190429688 269.18359375 c 0
 153.865234375 269.341796875 166.11328125 197.086914062 165.8203125 195.006835938 c 0
 152.588867188 100.859375 252.31640625 74.796875 369.243164062 74.796875 c 0
 486.170898438 74.796875 652.338867188 74.8251953125 652.338867188 74.8251953125 c 2
 668.06640625 74.8251953125 679.426757812 58.6748046875 676.489257812 37.7734375 c 0
 673.551757812 16.873046875 657.740234375 0.7216796875 642.114257812 0.7216796875 c 2
 642.114257812 0.7216796875 528.986328125 0 360.749023438 0 c 0
 192.51171875 0 60.1337890625 29.81640625 83.2197265625 194.083007812 c 0
 106.75 361.505859375 196.635742188 343.977539062 273.681640625 343.977539062 c 0
EndSplineSet
AlternateSubs2: "'salt' Stylistic Alternatives in Latin lookup 0 subtable" uniE017
EndChar

StartChar: bracketleft
Encoding: 91 91 60
Width: 363
GlyphClass: 2
Flags: MW
HStem: -0.171875 79.7803<200.132 247.887> 614.075 0.696289<334.214 334.312 250.865 342.146>
LayerCount: 2
Back
Fore
SplineSet
334.213867188 614.075195312 m 1
 350.077148438 614.075195312 361.555664062 597.924804688 358.618164062 577.025390625 c 0
 355.680664062 556.125 339.663085938 539.975585938 323.799804688 539.975585938 c 0
 205.864257812 539.975585938 188.587890625 436.6875 170.75390625 309.791992188 c 0
 152.919921875 182.896484375 141.1640625 79.6083984375 259.099609375 79.6083984375 c 0
 274.962890625 79.6083984375 286.288085938 62.373046875 283.153320312 40.06640625 c 0
 280.018554688 17.7607421875 263.84765625 0.5244140625 247.984375 0.5244140625 c 1
 247.88671875 -0.171875 l 1
 80.9931640625 -0.171875 64.1123046875 137.795898438 87.9345703125 307.299804688 c 0
 111.756835938 476.803710938 167.41796875 614.771484375 334.311523438 614.771484375 c 1
 334.213867188 614.075195312 l 1
EndSplineSet
EndChar

StartChar: backslash
Encoding: 92 92 61
Width: 362
GlyphClass: 2
Flags: MW
VStem: 130.277 197.613
LayerCount: 2
Back
Fore
SplineSet
130.27734375 622.459960938 m 2
 127.40625 638.28515625 140.274414062 652 161.173828125 652 c 0
 182.07421875 652 201.080078125 638.28515625 204.376953125 622.459960938 c 0
 204.620117188 622.293945312 327.890625 29.541015625 327.890625 29.541015625 c 2
 331.142578125 13.9345703125 317.89453125 0.0009765625 296.994140625 0.0009765625 c 0
 276.094726562 0.0009765625 257.087890625 13.7158203125 253.791015625 29.541015625 c 2
 130.27734375 622.459960938 l 2
EndSplineSet
EndChar

StartChar: bracketright
Encoding: 93 93 62
Width: 366
GlyphClass: 2
Flags: MW
HStem: -0.171875 0.696289<122.214 122.312 114.38 205.661> 534.991 79.084<200.609 208.541 200.609 256.395>
LayerCount: 2
Back
Fore
SplineSet
208.541015625 614.075195312 m 1
 208.638671875 614.771484375 l 1
 375.532226562 614.771484375 392.4140625 476.803710938 368.591796875 307.299804688 c 0
 344.76953125 137.795898438 289.107421875 -0.171875 122.213867188 -0.171875 c 1
 122.311523438 0.5244140625 l 1
 106.448242188 0.5244140625 94.970703125 16.6748046875 97.9072265625 37.57421875 c 0
 100.844726562 58.474609375 116.862304688 74.6240234375 132.725585938 74.6240234375 c 0
 250.661132812 74.6240234375 267.9375 177.912109375 285.771484375 304.807617188 c 0
 303.60546875 431.703125 315.362304688 534.991210938 197.426757812 534.991210938 c 0
 181.563476562 534.991210938 170.237304688 552.2265625 173.372070312 574.533203125 c 0
 176.506835938 596.838867188 192.677734375 614.075195312 208.541015625 614.075195312 c 1
EndSplineSet
EndChar

StartChar: asciicircum
Encoding: 94 94 63
Width: 498
GlyphClass: 2
Flags: MW
HStem: 494 270<132.426 370.117 348.014 509.81>
LayerCount: 2
Back
Fore
SplineSet
359.065429688 764 m 0
 381.16796875 764 401.4765625 751 405.20703125 736 c 0
 405.466796875 735.842773438 526.668945312 522 526.668945312 522 c 1
 528.909179688 507.20703125 518.098632812 494 501.521484375 494 c 0
 484.9453125 494 470.168945312 507 467.8984375 522 c 1
 349.6953125 697.333007812 l 1
 182.208984375 522 l 1
 175.721679688 507 157.291015625 494 140.71484375 494 c 0
 124.137695312 494 117.040039062 507.20703125 123.438476562 522 c 1
 123.438476562 522 304.748046875 735.842773438 305.052734375 736 c 0
 312.998046875 751 336.962890625 764 359.065429688 764 c 0
EndSplineSet
EndChar

StartChar: underscore
Encoding: 95 95 64
Width: 906
GlyphClass: 2
Flags: MW
HStem: -133.004 74.0996<75.4277 804.432 93.7734 794.019>
LayerCount: 2
Back
Fore
SplineSet
93.7734375 -58.904296875 m 2
 804.431640625 -58.904296875 l 2
 820.294921875 -58.904296875 831.7734375 -75.0546875 828.8359375 -95.9541015625 c 0
 825.8984375 -116.854492188 809.662109375 -133.004882812 794.018554688 -133.00390625 c 2
 794.018554688 -133.00390625 83.49609375 -133.211914062 83.359375 -133.00390625 c 0
 67.49609375 -133.00390625 56.017578125 -116.854492188 58.955078125 -95.9541015625 c 0
 61.892578125 -75.0546875 77.8505859375 -59.330078125 93.7734375 -58.904296875 c 2
EndSplineSet
EndChar

StartChar: grave
Encoding: 96 96 65
Width: 235
GlyphClass: 2
Flags: MW
HStem: 557.5 21G 607.5 92.5<163.028 212.944>
VStem: 146.287 127.791
LayerCount: 2
Back
Fore
SplineSet
146.287109375 653.75 m 0
 137.471679688 678.75 149.80859375 700 176.247070312 700 c 0
 202.685546875 700 231.329101562 678.75 240.14453125 653.75 c 1
 252.63671875 633.318359375 274.958007812 600 274.078125 583.75 c 0
 274.079101562 572.5 228.83984375 562.083984375 193.443359375 557.5 c 1
 218.47265625 571.014648438 242.462890625 577.020507812 229.416015625 613.06640625 c 1
 223.973632812 609.52734375 217.02734375 607.5 208.861328125 607.5 c 0
 182.422851562 607.5 155.1015625 628.75 146.287109375 653.75 c 0
EndSplineSet
EndChar

StartChar: a
Encoding: 97 97 66
Width: 746
GlyphClass: 2
Flags: MW
HStem: 0 82.4707<321.595 426.501> 502.729 82.4707<380.658 513.014>
LayerCount: 2
Back
Fore
SplineSet
696.201171875 10.470703125 m 2
 694.092773438 -4.529296875 619.852539062 -5.529296875 621.9609375 9.470703125 c 0
 626.258789062 40.0546875 630.564453125 70.638671875 634.862304688 101.221679688 c 1
 567.282226562 39.236328125 474.872070312 0 378.130859375 0 c 0
 201.295898438 0 75.78515625 131.099609375 98.482421875 292.599609375 c 0
 121.1796875 454.099609375 282.725585938 585.19921875 458.55859375 585.19921875 c 0
 634.391601562 585.19921875 759.087890625 454.099609375 736.390625 292.599609375 c 2
 696.201171875 10.470703125 l 2
177.215820312 292.599609375 m 0
 161.54296875 181.079101562 255.416992188 82.470703125 387.772460938 82.470703125 c 0
 520.127929688 82.470703125 641.71875 181.079101562 657.391601562 292.599609375 c 0
 673.064453125 404.119140625 579.19140625 502.728515625 446.8359375 502.728515625 c 0
 314.48046875 502.728515625 192.888671875 404.119140625 177.215820312 292.599609375 c 0
EndSplineSet
EndChar

StartChar: b
Encoding: 98 98 67
Width: 749
GlyphClass: 2
Flags: MW
HStem: 0 82.4707<323.447 455.803 323.447 465.818> 502.729 82.4707<409.958 514.866>
LayerCount: 2
Back
Fore
SplineSet
160.497070312 718.728515625 m 2
 162.60546875 733.728515625 236.845703125 734.728515625 234.737304688 719.728515625 c 0
 230.438476562 689.14453125 205.895507812 514.560546875 201.59765625 483.977539062 c 1
 269.178710938 545.962890625 361.587890625 585.19921875 458.329101562 585.19921875 c 0
 635.1640625 585.19921875 760.674804688 454.099609375 737.977539062 292.599609375 c 0
 715.280273438 131.099609375 553.734375 0 377.901367188 0 c 0
 202.068359375 0 77.3720703125 131.099609375 100.069335938 292.599609375 c 2
 160.497070312 718.728515625 l 2
659.244140625 292.599609375 m 0
 674.916992188 404.120117188 581.043945312 502.728515625 448.688476562 502.728515625 c 0
 316.333007812 502.728515625 194.741210938 404.120117188 179.068359375 292.599609375 c 0
 163.395507812 181.080078125 257.26953125 82.470703125 389.625 82.470703125 c 0
 521.98046875 82.470703125 643.571289062 181.080078125 659.244140625 292.599609375 c 0
EndSplineSet
EndChar

StartChar: c
Encoding: 99 99 68
Width: 713
GlyphClass: 2
Flags: MW
HStem: -0.171875 74.7959<305.594 423.53 305.594 441.191> 539.976 74.7959<370.995 488.931>
LayerCount: 2
Back
Fore
SplineSet
726.131835938 614.049804688 m 2
 741.874023438 614.049804688 753.248046875 597.899414062 750.310546875 576.999023438 c 0
 747.373046875 556.09765625 731.35546875 539.948242188 715.4921875 539.948242188 c 2
 715.4921875 539.948242188 547.899414062 539.975585938 429.962890625 539.975585938 c 0
 312.02734375 539.975585938 193.071289062 435.569335938 175.044921875 307.299804688 c 0
 157.017578125 179.030273438 246.625976562 74.6240234375 364.561523438 74.6240234375 c 0
 482.498046875 74.6240234375 650.098632812 74.6513671875 650.098632812 74.6513671875 c 2
 665.961914062 74.6513671875 677.440429688 58.501953125 674.502929688 37.6005859375 c 0
 671.565429688 16.7001953125 655.65234375 0.5498046875 639.91015625 0.5498046875 c 2
 639.91015625 0.5498046875 525.938476562 -0.171875 356.444335938 -0.171875 c 0
 186.951171875 -0.171875 68.7529296875 137.795898438 92.5751953125 307.299804688 c 0
 116.397460938 476.803710938 273.375976562 614.771484375 442.869140625 614.771484375 c 0
 612.36328125 614.771484375 726.131835938 614.049804688 726.131835938 614.049804688 c 2
EndSplineSet
EndChar

StartChar: d
Encoding: 100 100 69
Width: 747
GlyphClass: 2
Flags: MW
HStem: 0 82.4707<322.123 454.479 322.123 464.742> 502.729 82.4707<381.187 509.275 372.487 513.542>
LayerCount: 2
Back
Fore
SplineSet
796.26953125 718.728515625 m 2
 736.890625 292.599609375 l 2
 714.193359375 131.099609375 552.654296875 0 376.829101562 0 c 0
 201.00390625 0 76.314453125 131.099609375 99.01171875 292.599609375 c 0
 121.708984375 454.099609375 284.069335938 585.19921875 460.904296875 585.19921875 c 0
 557.645507812 585.19921875 639.02734375 545.962890625 689.184570312 483.977539062 c 1
 693.482421875 514.560546875 718.01171875 689.14453125 722.310546875 719.728515625 c 0
 724.418945312 734.728515625 798.377929688 733.728515625 796.26953125 718.728515625 c 2
177.744140625 292.599609375 m 0
 162.071289062 181.080078125 255.9453125 82.470703125 388.30078125 82.470703125 c 0
 520.65625 82.470703125 642.247070312 181.080078125 657.919921875 292.599609375 c 0
 673.592773438 404.120117188 579.719726562 502.728515625 447.364257812 502.728515625 c 0
 315.008789062 502.728515625 193.416992188 404.120117188 177.744140625 292.599609375 c 0
EndSplineSet
EndChar

StartChar: e
Encoding: 101 101 70
Width: 710
GlyphClass: 2
Flags: W
LayerCount: 2
Back
Fore
SplineSet
686.83203125 165.966796875 m 0
 611.255859375 100.610351562 628.331054688 101.287109375 526.517578125 43.060546875 c 0
 376.744140625 -42.59375 170.573242188 -3.853515625 105.973632812 144.115234375 c 0
 41.3740234375 292.083984375 124.7890625 484.774414062 291.6953125 573.9375 c 0
 428.09375 646.8046875 578.77734375 628.373046875 664.561523438 538.443359375 c 0
 683.748046875 518.330078125 733.606445312 480.416015625 706.16015625 458.19921875 c 0
 631.12109375 394.526367188 553.243164062 334.637695312 473.459960938 277.290039062 c 0
 459.586914062 267.51953125 435.176757812 263.638671875 424.018554688 281.0625 c 0
 412.859375 298.486328125 416.795898438 319.64453125 430.1328125 330.186523438 c 0
 462.254882812 355.577148438 622.115234375 464.73046875 598.760742188 476.5703125 c 0
 519.462890625 516.768554688 425.19921875 552.072265625 324.684570312 498.375 c 0
 200.7578125 432.171875 139.328125 287.9375 183.936523438 185.76171875 c 0
 228.543945312 83.5849609375 378.192382812 30.041015625 492.788085938 113.33203125 c 2
 637.12890625 218.2421875 l 2
 650.864257812 228.225585938 669.955078125 231.133789062 684.952148438 216.985351562 c 0
 699.950195312 202.836914062 699.702148438 177.095703125 686.83203125 165.966796875 c 0
EndSplineSet
AlternateSubs2: "'salt' Stylistic Alternatives in Latin lookup 0 subtable" uniE00A
EndChar

StartChar: f
Encoding: 102 102 71
Width: 714
GlyphClass: 2
Flags: MW
HStem: 300.965 74.0996<226.805 641.723 245.149 631.309> 539.975 74.7959<372.023 489.954>
LayerCount: 2
Back
Fore
SplineSet
631.30859375 300.96484375 m 2
 234.736328125 300.96484375 l 2
 218.873046875 300.96484375 207.39453125 317.115234375 210.33203125 338.014648438 c 0
 213.26953125 358.915039062 229.505859375 375.065429688 245.149414062 375.064453125 c 2
 641.72265625 375.064453125 l 2
 657.5859375 375.064453125 669.064453125 358.915039062 666.126953125 338.014648438 c 0
 663.189453125 317.115234375 647.231445312 301.390625 631.30859375 300.96484375 c 2
137.514648438 30.2041015625 m 1
 135.190429688 14.0234375 117.120117188 -0.001953125 96.2197265625 -0.001953125 c 0
 75.3203125 -0.001953125 61.1904296875 14.021484375 63.4150390625 30.2021484375 c 0
 63.4677734375 30.2021484375 93.802734375 312.262695312 93.802734375 312.262695312 c 1
 128.196289062 478.671875 274.012695312 614.770507812 443.637695312 614.770507812 c 0
 613.262695312 614.770507812 727.120117188 614.048828125 727.120117188 614.048828125 c 2
 742.875 614.048828125 754.259765625 597.8984375 751.322265625 576.998046875 c 0
 748.384765625 556.096679688 732.368164062 539.947265625 716.505859375 539.947265625 c 2
 716.505859375 539.947265625 548.919921875 539.974609375 430.98828125 539.974609375 c 0
 313.057617188 539.974609375 194.2734375 436.758789062 176.451171875 309.952148438 c 0
 158.629882812 183.145507812 137.46484375 30.2041015625 137.514648438 30.2041015625 c 1
EndSplineSet
EndChar

StartChar: g
Encoding: 103 103 72
Width: 725
GlyphClass: 2
Flags: MW
HStem: -0.171875 74.7939<314.586 412.656 314.586 447.485> 539.974 74.7979<378.692 495.693>
LayerCount: 2
Back
Fore
SplineSet
731.059570312 614.049804688 m 2
 746.693359375 614.049804688 757.977539062 597.897460938 755.040039062 576.997070312 c 0
 752.102539062 556.095703125 736.194335938 539.946289062 720.45703125 539.946289062 c 2
 720.45703125 539.946289062 554.193359375 539.973632812 437.192382812 539.973632812 c 0
 320.192382812 539.973632812 202.063476562 435.567382812 184.036132812 307.297851562 c 0
 166.009765625 179.028320312 255.618164062 74.6220703125 373.553710938 74.6220703125 c 0
 451.758789062 74.6220703125 551.803710938 74.6337890625 610.333007812 74.642578125 c 1
 645.783203125 327.041015625 l 2
 648.056640625 343.223632812 666.177734375 357.248046875 687.078125 357.248046875 c 0
 707.977539062 357.248046875 722.188476562 343.451171875 719.951171875 327.53125 c 2
 679.5546875 39.9150390625 l 2
 676.422851562 17.71875 660.470703125 0.59375 644.84375 0.59375 c 2
 644.84375 0.59375 531.649414062 -0.171875 363.321289062 -0.171875 c 0
 194.993164062 -0.171875 77.7412109375 137.795898438 101.563476562 307.299804688 c 0
 125.385742188 476.803710938 281.41796875 614.771484375 449.74609375 614.771484375 c 0
 618.07421875 614.771484375 731.059570312 614.049804688 731.059570312 614.049804688 c 2
EndSplineSet
AlternateSubs2: "'salt' Stylistic Alternatives in Latin lookup 0 subtable" uniE003
EndChar

StartChar: h
Encoding: 104 104 73
Width: 686
GlyphClass: 2
Flags: MW
HStem: 425.532 82.4717<369.058 466.864>
LayerCount: 2
Back
Fore
SplineSet
98.107421875 0 m 2
 77.193359375 0 62.9736328125 13.8271484375 65.2158203125 29.779296875 c 2
 65.2158203125 29.779296875 64.5673828125 30.310546875 88.7060546875 202.064453125 c 0
 89.87890625 210.407226562 91.365234375 218.672851562 93.1533203125 226.850585938 c 0
 117.2578125 398.665039062 148.633789062 622.122070312 148.776367188 622.223632812 c 0
 151.017578125 638.17578125 169.110351562 652.000976562 190.010742188 652.000976562 c 0
 210.91015625 652.000976562 224.732421875 638.46875 222.96484375 622.85546875 c 2
 193.143554688 410.666992188 l 1
 257.317382812 470.431640625 324.323242188 508.00390625 413.791992188 508.00390625 c 0
 581.681640625 508.00390625 684.263671875 370.002929688 660.37109375 200.001953125 c 0
 636.479492188 30.0009765625 635.68359375 29.474609375 635.68359375 29.474609375 c 2
 633.463867188 13.6845703125 615.390625 0 594.491210938 0 c 0
 573.590820312 0 559.384765625 13.8251953125 561.625976562 29.77734375 c 2
 561.625976562 29.77734375 569.198242188 83.4619140625 585.8671875 202.0625 c 0
 602.53515625 320.662109375 529.732421875 425.532226562 403.995117188 425.532226562 c 0
 282.118164062 425.532226562 187.405273438 327.002929688 165.357421875 212.944335938 c 1
 139.614257812 29.77734375 l 2
 137.373046875 13.8251953125 119.267578125 0 98.353515625 0 c 2
 98.107421875 0 l 2
EndSplineSet
AlternateSubs2: "'salt' Stylistic Alternatives in Latin lookup 0 subtable" uniE004
EndChar

StartChar: i
Encoding: 105 105 74
Width: 197
GlyphClass: 2
Flags: MW
VStem: 69.1963 74.0996<29.6143 29.6143>
LayerCount: 2
Back
Fore
SplineSet
222.668945312 594.38671875 m 2
 143.295898438 29.6142578125 l 2
 141.06640625 13.75 122.983398438 0.0009765625 102.083984375 0.0009765625 c 0
 81.18359375 0.0009765625 66.99609375 13.96875 69.1962890625 29.6142578125 c 2
 148.569335938 594.38671875 l 2
 150.799804688 610.250976562 168.880859375 624 189.78125 624 c 0
 210.680664062 624 224.473632812 610.250976562 222.668945312 594.38671875 c 2
EndSplineSet
EndChar

StartChar: j
Encoding: 106 106 75
Width: 720
GlyphClass: 2
Flags: MW
HStem: 0.00195312 74.7949<319.765 437.696 319.765 450.57>
LayerCount: 2
Back
Fore
SplineSet
672.25 584.889648438 m 1
 674.548828125 600.897460938 692.598632812 614.774414062 713.499023438 614.774414062 c 0
 734.3984375 614.774414062 748.548828125 600.900390625 746.348632812 584.892578125 c 0
 746.298828125 584.892578125 715.7578125 304.966796875 715.7578125 304.966796875 c 1
 681.182617188 137.206054688 535.313476562 0.001953125 365.826171875 0.001953125 c 0
 196.338867188 0.001953125 82.57421875 0.7236328125 82.57421875 0.7236328125 c 2
 66.83203125 0.7236328125 55.458984375 16.8740234375 58.396484375 37.7734375 c 0
 61.333984375 58.6748046875 77.3505859375 74.82421875 93.212890625 74.82421875 c 2
 93.212890625 74.82421875 260.798828125 74.796875 378.73046875 74.796875 c 0
 496.661132812 74.796875 615.455078125 178.078125 633.288085938 304.96484375 c 0
 651.120117188 431.8515625 672.299804688 584.889648438 672.25 584.889648438 c 1
EndSplineSet
EndChar

StartChar: k
Encoding: 107 107 76
Width: 594
GlyphClass: 2
Flags: W
LayerCount: 2
Back
Fore
SplineSet
550.403320312 29.5400390625 m 0
 557.642578125 13.93359375 542.755859375 -0.0009765625 515.126953125 -0.0009765625 c 0
 487.5 -0.0009765625 459.7890625 13.7138671875 452.448242188 29.5390625 c 2
 342.11328125 279.0234375 l 1
 158.774414062 29.5390625 l 2
 147.145507812 13.7138671875 116.071289062 -0.0009765625 88.9033203125 -0.0009765625 c 0
 71.748046875 -0.0009765625 61.13671875 5.5546875 58.5322265625 13.5771484375 c 0
 55.220703125 18.26171875 53.7158203125 23.7861328125 54.5244140625 29.5390625 c 2
 137.853515625 622.458007812 l 2
 140.078125 638.283203125 158.155273438 651.998046875 179.055664062 651.998046875 c 0
 199.955078125 651.998046875 213.751953125 638.283203125 211.953125 622.458007812 c 2
 144.984375 145.947265625 l 1
 191.125 207.919921875 249.849609375 286.790039062 306.190429688 362.444335938 c 1
 305.287109375 370.807617188 310.713867188 378.127929688 321.006835938 382.340820312 c 1
 415.743164062 509.548828125 499.811523438 622.38671875 499.985351562 622.458984375 c 0
 511.774414062 638.284179688 543.338867188 651.999023438 570.967773438 651.999023438 c 0
 598.594726562 651.999023438 609.165039062 638.284179688 597.939453125 622.458984375 c 2
 403.169921875 360.990234375 l 2
 404.515625 359.115234375 548.887695312 32.96875 550.403320312 29.5400390625 c 0
EndSplineSet
EndChar

StartChar: l
Encoding: 108 108 77
Width: 710
GlyphClass: 2
Flags: MW
HStem: -0.000976562 74.7949<304.031 421.967 304.031 439.629>
LayerCount: 2
Back
Fore
SplineSet
212.873046875 584.889648438 m 0
 212.8203125 584.889648438 190.961914062 431.848632812 173.12890625 304.961914062 c 0
 155.295898438 178.075195312 245.063476562 74.7939453125 362.999023438 74.7939453125 c 0
 480.935546875 74.7939453125 648.536132812 74.8212890625 648.536132812 74.8212890625 c 2
 664.399414062 74.8212890625 675.877929688 58.671875 672.940429688 37.7705078125 c 0
 670.002929688 16.87109375 654.08984375 0.720703125 638.34765625 0.720703125 c 2
 638.34765625 0.720703125 524.375976562 -0.0009765625 354.8828125 -0.0009765625 c 0
 185.389648438 -0.0009765625 78.0810546875 137.203125 90.6611328125 304.963867188 c 1
 138.751953125 584.889648438 l 2
 141.05078125 600.897460938 159.106445312 614.771484375 180.01171875 614.771484375 c 0
 200.91796875 614.771484375 215.072265625 600.897460938 212.873046875 584.889648438 c 0
EndSplineSet
EndChar

StartChar: m
Encoding: 109 109 78
Width: 1107
GlyphClass: 2
Flags: MW
HStem: 542.131 82.4678<342.591 468.328 816.579 925.264>
LayerCount: 2
Back
Fore
SplineSet
1055.51269531 29.6123046875 m 2
 1053.28320312 13.7490234375 1035.19628906 0.0009765625 1014.29589844 0.0009765625 c 0
 993.395507812 0.0009765625 979.196289062 13.87109375 981.4453125 29.875 c 2
 981.4453125 29.875 1005.23535156 198.958984375 1021.95703125 317.94140625 c 0
 1038.67871094 436.922851562 988.131835938 542.130859375 862.395507812 542.130859375 c 0
 736.657226562 542.130859375 656.540039062 436.922851562 639.818359375 317.94140625 c 0
 623.096679688 198.958984375 599.360351562 29.875 599.360351562 29.875 c 2
 597.111328125 13.87109375 579.010742188 0.0009765625 558.109375 0.0009765625 c 0
 557.985351562 0.0009765625 557.860351562 0.001953125 557.736328125 0.001953125 c 0
 557.611328125 0.001953125 557.487304688 0.0009765625 557.36328125 0.0009765625 c 0
 536.461914062 0.0009765625 522.259765625 13.87109375 524.508789062 29.875 c 2
 524.508789062 29.875 548.298828125 198.958984375 565.020507812 317.94140625 c 0
 581.7421875 436.922851562 531.197265625 542.130859375 405.458984375 542.130859375 c 0
 279.72265625 542.130859375 198.545898438 436.922851562 181.82421875 317.94140625 c 0
 165.102539062 198.958984375 141.365234375 29.875 141.365234375 29.875 c 2
 139.116210938 13.87109375 121.018554688 0.0009765625 100.118164062 0.0009765625 c 0
 79.2177734375 0.0009765625 65 13.7490234375 67.2294921875 29.6123046875 c 2
 67.2294921875 29.6123046875 82.634765625 144.358398438 106.638671875 315.155273438 c 0
 130.642578125 485.952148438 250.700195312 624.598632812 417.865234375 624.598632812 c 0
 531.043945312 624.598632812 584.73046875 562.708984375 623.94921875 471.115234375 c 1
 688.912109375 562.708984375 759.991210938 624.598632812 873.166992188 624.598632812 c 0
 1040.32714844 624.598632812 1120.3671875 485.952148438 1096.36328125 315.155273438 c 0
 1072.359375 144.358398438 1055.51269531 29.6123046875 1055.51269531 29.6123046875 c 2
EndSplineSet
EndChar

StartChar: n
Encoding: 110 110 79
Width: 723
GlyphClass: 2
Flags: MW
HStem: 0.000976562 29.6113<67.3086 110.646> 542.131 82.4678<378.625 504.362>
LayerCount: 2
Back
Fore
SplineSet
671.623046875 29.6123046875 m 2
 669.393554688 13.7490234375 651.306640625 0.0009765625 630.407226562 0.0009765625 c 0
 609.506835938 0.0009765625 595.306640625 13.87109375 597.555664062 29.875 c 2
 597.555664062 29.875 621.346679688 198.958984375 638.068359375 317.94140625 c 0
 654.790039062 436.922851562 567.23046875 542.130859375 441.493164062 542.130859375 c 0
 315.755859375 542.130859375 198.624023438 436.922851562 181.90234375 317.94140625 c 0
 165.180664062 198.958984375 141.444335938 29.875 141.444335938 29.875 c 2
 139.1953125 13.87109375 121.096679688 0.0009765625 100.196289062 0.0009765625 c 0
 79.296875 0.0009765625 65.0791015625 13.7490234375 67.30859375 29.6123046875 c 2
 67.30859375 29.6123046875 82.712890625 144.358398438 106.716796875 315.155273438 c 0
 130.720703125 485.952148438 286.11328125 624.598632812 453.084960938 624.598632812 c 0
 620.056640625 624.598632812 736.478515625 485.952148438 712.474609375 315.155273438 c 0
 688.470703125 144.358398438 671.623046875 29.6123046875 671.623046875 29.6123046875 c 2
EndSplineSet
EndChar

StartChar: o
Encoding: 111 111 80
Width: 742
GlyphClass: 2
Flags: MW
HStem: 0 82.4707<319.479 451.834 319.479 461.945> 536.729 82.4707<383.32 515.676>
LayerCount: 2
Back
Fore
SplineSet
177.489257812 309.599609375 m 0
 160.547851562 189.056640625 253.30078125 82.470703125 385.65625 82.470703125 c 0
 518.01171875 82.470703125 640.723632812 189.056640625 657.665039062 309.599609375 c 0
 674.60546875 430.141601562 581.853515625 536.728515625 449.498046875 536.728515625 c 0
 317.142578125 536.728515625 194.4296875 430.141601562 177.489257812 309.599609375 c 0
98.7568359375 309.599609375 m 0
 122.772460938 480.482421875 285.328125 619.19921875 461.087890625 619.19921875 c 0
 636.84765625 619.19921875 760.413085938 480.482421875 736.397460938 309.599609375 c 0
 712.380859375 138.716796875 549.825195312 0 374.065429688 0 c 0
 198.305664062 0 74.740234375 138.716796875 98.7568359375 309.599609375 c 0
EndSplineSet
EndChar

StartChar: p
Encoding: 112 112 81
Width: 752
GlyphClass: 2
Flags: MW
HStem: 6.91504 82.4688<330.272 458.36 326.005 467.06> 536.728 82.4707<388.875 521.23>
LayerCount: 2
Back
Fore
SplineSet
47.7509765625 -94.787109375 m 2
 104.424804688 312.302734375 l 2
 128.23046875 481.693359375 290.676757812 619.198242188 466.509765625 619.198242188 c 0
 642.342773438 619.198242188 766.186523438 482.03125 742.438476562 313.056640625 c 0
 718.690429688 144.08203125 555.477539062 6.9150390625 378.642578125 6.9150390625 c 0
 281.901367188 6.9150390625 200.5859375 46.6201171875 150.532226562 109.345703125 c 1
 146.073242188 77.61328125 126.163085938 -64.1025390625 121.703125 -95.8359375 c 0
 119.4921875 -111.568359375 45.5400390625 -110.51953125 47.7509765625 -94.787109375 c 2
663.705078125 313.055664062 m 0
 680.388671875 431.762695312 587.408203125 536.727539062 455.052734375 536.727539062 c 0
 322.697265625 536.727539062 200.212890625 431.762695312 183.529296875 313.055664062 c 0
 166.845703125 194.34765625 259.827148438 89.3837890625 392.182617188 89.3837890625 c 0
 524.538085938 89.3837890625 647.021484375 194.34765625 663.705078125 313.055664062 c 0
EndSplineSet
EndChar

StartChar: q
Encoding: 113 113 82
Width: 746
GlyphClass: 2
Flags: MW
HStem: 6.91602 82.4697<322.566 427.473> 536.729 82.4697<385.437 517.792>
LayerCount: 2
Back
Fore
SplineSet
681.408203125 -94.787109375 m 2
 679.197265625 -110.51953125 604.950195312 -111.567382812 607.161132812 -95.8349609375 c 0
 611.62109375 -64.1015625 631.544921875 77.6142578125 636.00390625 109.346679688 c 1
 568.319335938 46.62109375 475.84375 6.916015625 379.102539062 6.916015625 c 0
 202.267578125 6.916015625 77.6103515625 144.083007812 101.357421875 313.057617188 c 0
 125.10546875 482.032226562 287.50390625 619.19921875 463.336914062 619.19921875 c 0
 639.169921875 619.19921875 762.965820312 481.694335938 739.16015625 312.303710938 c 2
 681.408203125 -94.787109375 l 2
180.090820312 313.057617188 m 0
 163.408203125 194.349609375 256.388671875 89.3857421875 388.744140625 89.3857421875 c 0
 521.099609375 89.3857421875 643.583984375 194.349609375 660.266601562 313.057617188 c 0
 676.950195312 431.764648438 583.969726562 536.729492188 451.614257812 536.729492188 c 0
 319.258789062 536.729492188 196.774414062 431.764648438 180.090820312 313.057617188 c 0
EndSplineSet
EndChar

StartChar: r
Encoding: 114 114 83
Width: 715
GlyphClass: 2
Flags: MW
HStem: 539.975 74.7949<372.55 490.481>
LayerCount: 2
Back
Fore
SplineSet
137.99609375 29.8818359375 m 1
 135.697265625 13.8740234375 117.647460938 -0.0029296875 96.7470703125 -0.0029296875 c 0
 75.84765625 -0.0029296875 61.6962890625 13.87109375 63.896484375 29.87890625 c 0
 63.94921875 29.87890625 93.984375 309.8046875 93.984375 309.8046875 c 1
 128.568359375 477.565429688 274.540039062 614.76953125 444.165039062 614.76953125 c 0
 613.790039062 614.76953125 727.647460938 614.047851562 727.647460938 614.047851562 c 2
 743.40234375 614.047851562 754.787109375 597.897460938 751.849609375 576.998046875 c 0
 748.912109375 556.096679688 732.895507812 539.947265625 717.033203125 539.947265625 c 2
 717.033203125 539.947265625 549.447265625 539.974609375 431.515625 539.974609375 c 0
 313.584960938 539.974609375 194.791015625 436.693359375 176.958007812 309.806640625 c 0
 159.125976562 182.919921875 137.946289062 29.8818359375 137.99609375 29.8818359375 c 1
EndSplineSet
EndChar

StartChar: s
Encoding: 115 115 84
Width: 721
GlyphClass: 2
Flags: MW
HStem: 0.000976562 74.7969<321.983 438.911 321.983 452.037> 268.393 74.7939<268.534 268.534 268.534 346.647> 537.573 74.7969<374.762 491.689>
LayerCount: 2
Back
Fore
SplineSet
551.670898438 343.977539062 m 0
 628.716796875 343.977539062 723.530273438 361.506835938 700 194.083984375 c 0
 676.9140625 29.8173828125 536.155273438 0.0009765625 367.91796875 0.0009765625 c 0
 199.680664062 0.0009765625 86.755859375 0.72265625 86.755859375 0.72265625 c 2
 71.1298828125 0.72265625 59.857421875 16.8740234375 62.794921875 37.7744140625 c 0
 65.732421875 58.67578125 81.6328125 74.826171875 97.3603515625 74.826171875 c 2
 97.3603515625 74.826171875 263.51953125 74.7978515625 380.447265625 74.7978515625 c 0
 497.374023438 74.7978515625 604.426757812 100.850585938 617.653320312 194.96484375 c 0
 617.9453125 197.043945312 650.499023438 269.272460938 545.12890625 269.114257812 c 0
 544.625 269.258789062 431.29296875 268.392578125 262.001953125 268.392578125 c 0
 184.956054688 268.392578125 90.1435546875 250.864257812 113.672851562 418.287109375 c 0
 136.759765625 582.553710938 277.518554688 612.370117188 445.755859375 612.370117188 c 0
 613.993164062 612.370117188 726.91796875 611.6484375 726.91796875 611.6484375 c 2
 742.543945312 611.6484375 753.815429688 595.497070312 750.877929688 574.596679688 c 0
 747.940429688 553.6953125 732.041015625 537.544921875 716.313476562 537.544921875 c 2
 716.313476562 537.544921875 550.153320312 537.573242188 433.225585938 537.573242188 c 0
 316.298828125 537.573242188 209.245117188 511.510742188 196.013671875 417.36328125 c 0
 195.721679688 415.283203125 163.146484375 342.892578125 268.534179688 343.186523438 c 2
 268.534179688 343.186523438 382.379882812 343.977539062 551.670898438 343.977539062 c 0
EndSplineSet
AlternateSubs2: "'salt' Stylistic Alternatives in Latin lookup 0 subtable" uniE016
EndChar

StartChar: t
Encoding: 116 116 85
Width: 608
GlyphClass: 2
Flags: MW
HStem: 0.000976562 29.8389<273.81 317.116> 549.755 74.168<420.979 420.979>
LayerCount: 2
Back
Fore
SplineSet
158.3046875 623.921875 m 2
 380.0859375 623.922851562 l 2
 384.6640625 625.259765625 389.572265625 626.000976562 394.643554688 626.000976562 c 0
 399.71484375 626.000976562 404.391601562 625.259765625 408.5625 623.922851562 c 2
 630.400390625 623.922851562 l 2
 646.13671875 623.922851562 657.505859375 607.772460938 654.568359375 586.873046875 c 0
 651.630859375 565.97265625 635.39453125 549.822265625 619.750976562 549.823242188 c 2
 619.750976562 549.823242188 525.5546875 549.782226562 420.978515625 549.754882812 c 1
 347.909179688 29.83984375 l 2
 345.663085938 13.8544921875 327.565429688 0.0009765625 306.666015625 0.0009765625 c 0
 285.765625 0.0009765625 271.59375 14.0751953125 273.809570312 29.83984375 c 2
 273.809570312 29.83984375 326.346679688 404.70703125 346.797851562 549.736328125 c 1
 242.294921875 549.719726562 148.188476562 549.729492188 148.126953125 549.822265625 c 0
 132.263671875 549.822265625 120.78515625 565.971679688 123.72265625 586.872070312 c 0
 126.66015625 607.771484375 142.508789062 623.49609375 158.3046875 623.921875 c 2
EndSplineSet
EndChar

StartChar: u
Encoding: 117 117 86
Width: 720
GlyphClass: 2
Flags: MW
HStem: 0.000976562 82.4678<312.441 438.178 312.441 447.207> 594.725 29.874<175.945 219.246>
LayerCount: 2
Back
Fore
SplineSet
749.495117188 594.987304688 m 2
 749.495117188 594.987304688 734.092773438 480.241210938 710.088867188 309.444335938 c 0
 686.084960938 138.647460938 530.692382812 0.0009765625 363.720703125 0.0009765625 c 0
 196.749023438 0.0009765625 80.3271484375 138.647460938 104.331054688 309.444335938 c 0
 128.334960938 480.241210938 145.18359375 594.987304688 145.18359375 594.987304688 c 2
 147.413085938 610.850585938 165.495117188 624.598632812 186.39453125 624.598632812 c 0
 207.294921875 624.598632812 221.495117188 610.728515625 219.24609375 594.724609375 c 2
 219.24609375 594.724609375 195.45703125 425.640625 178.734375 306.658203125 c 0
 162.012695312 187.676757812 249.572265625 82.46875 375.309570312 82.46875 c 0
 501.046875 82.46875 618.178710938 187.676757812 634.900390625 306.658203125 c 0
 651.623046875 425.640625 675.358398438 594.724609375 675.358398438 594.724609375 c 2
 677.607421875 610.728515625 695.706054688 624.598632812 716.606445312 624.598632812 c 0
 737.505859375 624.598632812 751.724609375 610.850585938 749.495117188 594.987304688 c 2
EndSplineSet
EndChar

StartChar: v
Encoding: 118 118 87
Width: 615
GlyphClass: 2
Flags: MW
HStem: -0.720703 0.72168<259.062 270.112 259.062 349.86>
LayerCount: 2
Back
Fore
SplineSet
278.884765625 74.0908203125 m 2
 276.29296875 74.07421875 l 2
 277.15625 74.07421875 278.022460938 74.0908203125 278.884765625 74.0908203125 c 2
134.177734375 584.35546875 m 2
 131.021484375 600.234375 144.526367188 614 166.627929688 614 c 0
 188.73046875 614 208.91796875 600.125976562 212.506835938 584.118164062 c 0
 212.717773438 583.981445312 272.072265625 211.920898438 293.934570312 74.837890625 c 1
 405.81640625 84.4384765625 513.893554688 183.6875 530.836914062 304.245117188 c 0
 548.669921875 431.131835938 569.848632812 584.169921875 569.798828125 584.169921875 c 1
 572.098632812 600.177734375 590.1484375 614.051757812 611.048828125 614.051757812 c 0
 631.948242188 614.051757812 646.098632812 600.177734375 643.8984375 584.169921875 c 0
 643.848632812 584.169921875 613.307617188 304.244140625 613.307617188 304.244140625 c 1
 578.818359375 136.483398438 433.940429688 -0.720703125 265.780273438 -0.720703125 c 0
 94.9892578125 -0.720703125 270.112304688 0.0009765625 270.112304688 0.0009765625 c 2
 248.010742188 0.0009765625 227.806640625 13.7626953125 224.200195312 29.6416015625 c 2
 134.177734375 584.35546875 l 2
EndSplineSet
AlternateSubs2: "'salt' Stylistic Alternatives in Latin lookup 0 subtable" uniE015
EndChar

StartChar: w
Encoding: 119 119 88
Width: 1105
GlyphClass: 2
Flags: MW
HStem: 0.000976562 82.4678<275.878 384.562 732.814 858.552>
LayerCount: 2
Back
Fore
SplineSet
145.629882812 594.987304688 m 2
 147.859375 610.850585938 165.9453125 624.598632812 186.845703125 624.598632812 c 0
 207.74609375 624.598632812 221.9453125 610.728515625 219.696289062 594.724609375 c 2
 219.696289062 594.724609375 195.907226562 425.640625 179.184570312 306.658203125 c 0
 162.462890625 187.676757812 213.009765625 82.46875 338.74609375 82.46875 c 0
 464.484375 82.46875 544.6015625 187.676757812 561.323242188 306.658203125 c 0
 578.045898438 425.640625 601.782226562 594.724609375 601.782226562 594.724609375 c 2
 604.03125 610.728515625 622.131835938 624.598632812 643.033203125 624.598632812 c 0
 643.157226562 624.598632812 643.282226562 624.59765625 643.40625 624.59765625 c 0
 643.53125 624.59765625 643.655273438 624.598632812 643.779296875 624.598632812 c 0
 664.680664062 624.598632812 678.8828125 610.728515625 676.633789062 594.724609375 c 2
 676.633789062 594.724609375 652.844726562 425.640625 636.122070312 306.658203125 c 0
 619.400390625 187.676757812 669.9453125 82.46875 795.68359375 82.46875 c 0
 921.419921875 82.46875 1002.59667969 187.676757812 1019.31835938 306.658203125 c 0
 1036.04101562 425.640625 1059.77636719 594.724609375 1059.77636719 594.724609375 c 2
 1062.02539062 610.728515625 1080.12304688 624.598632812 1101.0234375 624.598632812 c 0
 1121.92382812 624.598632812 1136.14257812 610.850585938 1133.91308594 594.987304688 c 2
 1133.91308594 594.987304688 1118.50683594 480.241210938 1094.50292969 309.444335938 c 0
 1070.49902344 138.647460938 950.44140625 0.0009765625 783.276367188 0.0009765625 c 0
 670.09765625 0.0009765625 616.412109375 61.890625 577.193359375 153.484375 c 1
 512.23046875 61.890625 441.150390625 0.0009765625 327.974609375 0.0009765625 c 0
 160.814453125 0.0009765625 80.7744140625 138.647460938 104.778320312 309.444335938 c 0
 128.782226562 480.241210938 145.629882812 594.987304688 145.629882812 594.987304688 c 2
EndSplineSet
EndChar

StartChar: x
Encoding: 120 120 89
Width: 661
GlyphClass: 2
Flags: W
LayerCount: 2
Back
Fore
SplineSet
704.19921875 594.38671875 m 2
 425.999023438 312.052734375 l 1
 525.419921875 170.841796875 624.826171875 29.61328125 624.826171875 29.61328125 c 2
 632.403320312 13.9677734375 617.8203125 0 590.190429688 0 c 0
 562.564453125 0 534.555664062 13.7490234375 526.873046875 29.61328125 c 2
 368.823242188 254.026367188 l 1
 147.6953125 29.61328125 l 2
 135.553710938 13.7490234375 103.6796875 0 76.0537109375 0 c 0
 48.423828125 0 37.7666015625 13.9677734375 49.7421875 29.61328125 c 2
 49.7421875 29.61328125 188.842773438 170.841796875 327.958007812 312.052734375 c 1
 129.115234375 594.38671875 l 2
 121.995117188 610.250976562 136.123046875 624 163.750976562 624 c 0
 191.37890625 624 219.38671875 610.250976562 227.068359375 594.38671875 c 0
 227.220703125 594.315429688 301.09765625 489.4375 385.134765625 370.090820312 c 1
 502.717773438 489.4375 606.073242188 594.315429688 606.24609375 594.38671875 c 0
 618.388671875 610.250976562 650.259765625 624 677.887695312 624 c 0
 705.515625 624 715.780273438 610.250976562 704.19921875 594.38671875 c 2
EndSplineSet
EndChar

StartChar: y
Encoding: 121 121 90
Width: 683
GlyphClass: 2
Flags: MW
HStem: -65.3203 74.7939<276.63 394.559 276.63 408.191> 114.717 82.4717<312.17 409.978>
LayerCount: 2
Back
Fore
SplineSet
681.165039062 624.599609375 m 2
 702.064453125 624.599609375 716.265625 610.716796875 714.013671875 594.694335938 c 2
 714.013671875 594.694335938 714.66015625 594.16015625 690.415039062 421.6484375 c 0
 689.237304688 413.268554688 687.748046875 404.965820312 685.961914062 396.751953125 c 0
 661.470703125 222.176757812 657.319335938 192.423828125 657.171875 192.3203125 c 0
 640.297851562 8.7451171875 492.786132812 -65.3203125 323.595703125 -65.3203125 c 0
 154.405273438 -65.3203125 194.838867188 -64.5986328125 194.838867188 -64.5986328125 c 2
 179.125 -64.5986328125 167.776367188 -48.4482421875 170.712890625 -27.548828125 c 0
 173.650390625 -6.6484375 189.666992188 9.5009765625 205.529296875 9.5009765625 c 2
 205.529296875 9.5009765625 217.665039062 9.4736328125 335.594726562 9.4736328125 c 0
 453.5234375 9.4736328125 563.46484375 49.77734375 580.83203125 173.352539062 c 0
 581.619140625 178.95703125 582.344726562 184.133789062 583.016601562 188.908203125 c 0
 582.966796875 190.098632812 583.009765625 191.307617188 583.147460938 192.528320312 c 2
 585.901367188 212.119140625 l 1
 521.721679688 152.314453125 454.711914062 114.716796875 365.243164062 114.716796875 c 0
 197.353515625 114.716796875 94.84375 253.227539062 118.82421875 423.857421875 c 0
 142.8046875 594.487304688 143.600585938 595.015625 143.600585938 595.015625 c 2
 145.828125 610.86328125 163.908203125 624.598632812 184.807617188 624.598632812 c 0
 205.708007812 624.598632812 219.90625 610.711914062 217.654296875 594.689453125 c 2
 217.654296875 594.689453125 210.048828125 540.768554688 193.306640625 421.64453125 c 0
 176.565429688 302.521484375 249.301757812 197.188476562 375.0390625 197.188476562 c 0
 496.916015625 197.188476562 591.690429688 296.153320312 613.809570312 410.71484375 c 1
 639.665039062 594.690429688 l 2
 641.916992188 610.712890625 660.01953125 624.599609375 680.918945312 624.599609375 c 2
 681.165039062 624.599609375 l 2
586.830078125 216.18359375 m 0
 594.54296875 271.553710938 586.938476562 219.00390625 585.995117188 212.72265625 c 1
 586.19140625 213.890625 586.471679688 215.044921875 586.830078125 216.18359375 c 0
EndSplineSet
AlternateSubs2: "'salt' Stylistic Alternatives in Latin lookup 0 subtable" uniE00D
EndChar

StartChar: z
Encoding: 122 122 91
Width: 723
GlyphClass: 2
Flags: MW
HStem: 0 74.7969<310.78 427.707 310.78 444.868> 269.184 74.7939 537.572 74.7979<388.079 505.006>
LayerCount: 2
Back
Fore
SplineSet
273.681640625 343.977539062 m 0
 442.97265625 343.977539062 556.60546875 343.254882812 556.60546875 343.254882812 c 2
 661.911132812 342.9609375 649.6796875 415.326171875 649.971679688 417.405273438 c 0
 663.19921875 511.51953125 563.469726562 537.572265625 446.54296875 537.572265625 c 0
 329.615234375 537.572265625 163.447265625 537.544921875 163.447265625 537.544921875 c 2
 147.719726562 537.544921875 136.359375 553.6953125 139.296875 574.596679688 c 0
 142.234375 595.497070312 158.046875 611.6484375 173.672851562 611.6484375 c 2
 173.672851562 611.6484375 286.80078125 612.370117188 455.038085938 612.370117188 c 0
 623.275390625 612.370117188 755.653320312 582.553710938 732.56640625 418.287109375 c 0
 709.037109375 250.864257812 619.150390625 268.392578125 542.104492188 268.392578125 c 0
 372.813476562 268.392578125 259.737304688 269.341796875 259.190429688 269.18359375 c 0
 153.865234375 269.341796875 166.11328125 197.086914062 165.8203125 195.006835938 c 0
 152.588867188 100.859375 252.31640625 74.796875 369.243164062 74.796875 c 0
 486.170898438 74.796875 652.338867188 74.8251953125 652.338867188 74.8251953125 c 2
 668.06640625 74.8251953125 679.426757812 58.6748046875 676.489257812 37.7734375 c 0
 673.551757812 16.873046875 657.740234375 0.7216796875 642.114257812 0.7216796875 c 2
 642.114257812 0.7216796875 528.986328125 0 360.749023438 0 c 0
 192.51171875 0 60.1337890625 29.81640625 83.2197265625 194.083007812 c 0
 106.75 361.505859375 196.635742188 343.977539062 273.681640625 343.977539062 c 0
EndSplineSet
AlternateSubs2: "'salt' Stylistic Alternatives in Latin lookup 0 subtable" uniE017
EndChar

StartChar: braceleft
Encoding: 123 123 92
Width: 355
GlyphClass: 2
Flags: MW
HStem: -0.168945 79.7803<195.815 243.571> 614.075 0.696289<329.897 329.995 259.216 337.829>
VStem: 84.417 269.885
LayerCount: 2
Back
Fore
SplineSet
329.897460938 614.075195312 m 1
 345.760742188 614.075195312 357.239257812 597.927734375 354.301757812 577.028320312 c 0
 351.364257812 556.127929688 335.346679688 539.978515625 319.483398438 539.978515625 c 0
 201.547851562 539.978515625 220.333984375 332.09765625 217.200195312 309.794921875 c 0
 213.465820312 283.22265625 136.84765625 79.611328125 254.783203125 79.611328125 c 0
 270.646484375 79.611328125 281.97265625 62.3759765625 278.837890625 40.0693359375 c 0
 275.702148438 17.763671875 259.532226562 0.52734375 243.668945312 0.52734375 c 1
 243.571289062 -0.1689453125 l 1
 99.39453125 -0.1689453125 105.438476562 104.375 125.13671875 243.260742188 c 1
 110.513671875 263.290039062 94.9248046875 284.650390625 94.89453125 284.724609375 c 0
 87.8046875 287.646484375 82.8623046875 298.725585938 84.4169921875 309.787109375 c 0
 85.9716796875 320.848632812 94.15234375 331.927734375 102.206054688 334.849609375 c 0
 102.258789062 334.923828125 124.205078125 356.282226562 144.791015625 376.310546875 c 1
 164.01171875 512.713867188 188.4375 614.771484375 329.995117188 614.771484375 c 1
 329.897460938 614.075195312 l 1
EndSplineSet
EndChar

StartChar: bar
Encoding: 124 124 93
Width: 199
GlyphClass: 2
Flags: MW
VStem: 63 74.0996<-22 -22>
LayerCount: 2
Back
Fore
SplineSet
231.54296875 650 m 2
 137.099609375 -22 l 2
 134.991210938 -37 117.013671875 -50 96.1142578125 -50 c 0
 75.2138671875 -50 60.919921875 -36.79296875 63 -22 c 2
 157.443359375 650 l 2
 159.551757812 665 177.528320312 678 198.428710938 678 c 0
 219.328125 678 233.225585938 665 231.54296875 650 c 2
EndSplineSet
EndChar

StartChar: braceright
Encoding: 125 125 94
Width: 356
GlyphClass: 2
Flags: MW
HStem: -0.171875 0.696289<117.291 117.389 109.457 189.38> 534.991 79.084<195.687 203.618 195.687 251.472>
VStem: 92.9844 270.584
LayerCount: 2
Back
Fore
SplineSet
203.618164062 614.075195312 m 1
 203.716796875 614.768554688 l 1
 345.275390625 614.768554688 341.014648438 512.7109375 321.89453125 376.307617188 c 1
 336.849609375 356.279296875 352.791992188 334.920898438 352.823242188 334.846679688 c 0
 360.056640625 331.924804688 365.123046875 320.845703125 363.568359375 309.784179688 c 0
 362.013671875 298.72265625 353.95703125 287.643554688 346.045898438 284.721679688 c 0
 345.995117188 284.647460938 324.40234375 263.287109375 304.150390625 243.2578125 c 1
 284.810546875 104.372070312 261.46875 -0.171875 117.291015625 -0.171875 c 1
 117.388671875 0.5244140625 l 1
 101.525390625 0.5244140625 90.0478515625 16.6748046875 92.984375 37.57421875 c 0
 95.921875 58.474609375 111.939453125 74.6240234375 127.802734375 74.6240234375 c 0
 245.73828125 74.6240234375 226.352539062 278.235351562 230.086914062 304.807617188 c 0
 233.221679688 327.110351562 310.439453125 534.991210938 192.50390625 534.991210938 c 0
 176.640625 534.991210938 165.314453125 552.2265625 168.44921875 574.533203125 c 0
 171.583984375 596.838867188 187.754882812 614.075195312 203.618164062 614.075195312 c 1
EndSplineSet
EndChar

StartChar: asciitilde
Encoding: 126 126 95
Width: 489
GlyphClass: 2
Flags: MW
VStem: 102.939 42.1963 448.104 42.1963
LayerCount: 2
Back
Fore
SplineSet
318.814453125 393.297851562 m 1
 332.13671875 378.950195312 324.930664062 379.177734375 327.198242188 354.983398438 c 0
 329.318359375 332.353515625 343.135742188 313.96875 382.337890625 325.487304688 c 0
 423.486328125 337.577148438 430.944335938 365.69140625 429.140625 384.936523438 c 0
 427.965820312 397.465820312 445.682617188 440.151367188 448.103515625 417.967773438 c 1
 448.432617188 418.165039062 454.241210938 421.125 457.276367188 422.016601562 c 0
 471.916992188 426.318359375 488.62890625 420.723632812 490.299804688 402.90625 c 0
 499.24609375 307.446289062 428.427734375 265.512695312 389.044921875 253.940429688 c 0
 356.776367188 244.459960938 297.346679688 238.215820312 274.424804688 298.701171875 c 1
 261.102539062 313.048828125 268.309570312 312.821289062 266.041992188 337.015625 c 0
 263.921875 359.645507812 250.104492188 378.030273438 210.90234375 366.51171875 c 0
 169.75390625 354.421875 162.295898438 326.307617188 164.100585938 307.0625 c 0
 165.2734375 294.533203125 147.556640625 251.84765625 145.135742188 274.03125 c 1
 144.806640625 273.833984375 138.999023438 270.874023438 135.962890625 269.982421875 c 0
 121.322265625 265.680664062 104.610351562 271.275390625 102.939453125 289.092773438 c 0
 93.9931640625 384.552734375 164.811523438 426.486328125 204.1953125 438.05859375 c 0
 236.462890625 447.5390625 295.893554688 453.783203125 318.814453125 393.297851562 c 1
EndSplineSet
EndChar

StartChar: exclamdown
Encoding: 161 161 97
Width: 199
GlyphClass: 2
Flags: MW
HStem: 453.307 29.9521<156.922 200.212> 521.5 92.5<173.917 185.917>
VStem: 66.5791 157.088
LayerCount: 2
Back
Fore
SplineSet
223.666992188 567.75 m 0
 220.153320312 542.75 198.416992188 521.5 173.416992188 521.5 c 0
 148.416992188 521.5 131.403320312 542.75 134.916992188 567.75 c 0
 138.430664062 592.75 161.416992188 614 186.416992188 614 c 0
 211.416992188 614 227.180664062 592.75 223.666992188 567.75 c 0
66.5791015625 29.7021484375 m 2
 126.112304688 453.306640625 l 2
 128.3671875 469.352539062 146.47265625 483.258789062 167.372070312 483.258789062 c 0
 188.272460938 483.258789062 202.436523438 469.130859375 200.211914062 453.306640625 c 2
 200.211914062 453.306640625 140.91015625 29.8701171875 140.678710938 29.7021484375 c 0
 138.422851562 13.65625 120.319335938 -0.25 99.4189453125 -0.25 c 0
 78.51953125 -0.25 64.7490234375 13.65625 66.5791015625 29.7021484375 c 2
EndSplineSet
EndChar

StartChar: cent
Encoding: 162 162 98
Width: 549
GlyphClass: 2
Flags: MW
HStem: 83.0264 55.5752<497.155 510.915> 485.091 55.5752<553.661 567.42>
LayerCount: 2
Back
Fore
SplineSet
322.858398438 483.684570312 m 1
 241.7265625 472.72265625 165.130859375 399.821289062 152.766601562 311.84375 c 0
 140.3984375 223.845703125 196.534179688 150.928710938 274.61328125 139.994140625 c 1
 288.598632812 239.725585938 308.828125 383.856445312 322.858398438 483.684570312 c 1
412.556640625 594.009765625 m 2
 405.12890625 541.169921875 l 1
 500.659179688 541.048828125 561.471679688 540.666015625 561.471679688 540.666015625 c 2
 573.369140625 540.666015625 581.977539062 528.553710938 579.774414062 512.87890625 c 0
 577.571289062 497.203125 565.55859375 485.090820312 553.661132812 485.090820312 c 2
 553.661132812 485.090820312 474.250976562 485.104492188 397.250976562 485.109375 c 1
 348.549804688 138.583007812 l 1
 425.551757812 138.587890625 504.965820312 138.6015625 504.965820312 138.6015625 c 2
 516.86328125 138.6015625 525.471679688 126.489257812 523.268554688 110.813476562 c 0
 521.065429688 95.138671875 509.052734375 83.0263671875 497.155273438 83.0263671875 c 2
 497.155273438 83.0263671875 436.235351562 82.6435546875 340.669921875 82.5224609375 c 1
 333.288085938 29.99609375 l 2
 331.030273438 13.9287109375 312.922851562 0.00390625 292.0234375 0.00390625 c 0
 271.123046875 0.00390625 256.958984375 14.140625 259.185546875 29.974609375 c 2
 259.185546875 29.974609375 262.037109375 50.3212890625 266.666992188 83.3369140625 c 1
 151.678710938 93.6904296875 74.103515625 192.247070312 90.912109375 311.846679688 c 0
 107.717773438 431.424804688 212.961914062 529.967773438 330.834960938 540.349609375 c 1
 335.51171875 573.52734375 338.413085938 594 338.456054688 594.03125 c 0
 340.712890625 610.086914062 358.819335938 624.001953125 379.720703125 624.001953125 c 0
 400.62109375 624.001953125 414.389648438 610.077148438 412.556640625 594.009765625 c 2
EndSplineSet
EndChar

StartChar: sterling
Encoding: 163 163 99
Width: 715
GlyphClass: 2
Flags: MW
HStem: 0 74.0996<156.226 642.977> 252.622 74.1777<192.374 337.688> 505.426 74.7959<377.146 488.713>
LayerCount: 2
Back
Fore
SplineSet
653.391601562 74.099609375 m 2
 669.1953125 73.673828125 680.732421875 57.94921875 677.794921875 37.0498046875 c 0
 674.857421875 16.1494140625 658.83984375 0 642.9765625 0 c 0
 642.78125 -0.2080078125 78.255859375 0 78.255859375 0 c 2
 62.6123046875 -0.0009765625 50.9150390625 16.1494140625 53.8525390625 37.0498046875 c 0
 65.86328125 122.508789062 89.3603515625 199.483398438 134.625976562 252.689453125 c 1
 121.86328125 252.696289062 114.404296875 252.700195312 114.404296875 252.700195312 c 2
 98.7607421875 252.69921875 87.0634765625 268.849609375 90.0009765625 289.75 c 0
 112.505859375 449.881835938 269.465820312 580.221679688 440.256835938 580.221679688 c 0
 611.047851562 580.221679688 641.0859375 579.5 641.0859375 579.5 c 2
 656.94921875 579.5 668.427734375 563.349609375 665.490234375 542.450195312 c 0
 662.552734375 521.549804688 646.53515625 505.400390625 630.671875 505.400390625 c 2
 630.671875 505.400390625 547.681640625 505.42578125 429.745117188 505.42578125 c 0
 324.547851562 505.42578125 238.927734375 426.551757812 192.374023438 326.799804688 c 1
 288.452148438 326.799804688 l 2
 295.432617188 327.278320312 302.610351562 327.521484375 309.98828125 327.521484375 c 0
 480.779296875 327.521484375 482.263671875 326.799804688 482.263671875 326.799804688 c 2
 498.126953125 326.799804688 509.60546875 310.649414062 506.66796875 289.75 c 0
 503.73046875 268.849609375 487.712890625 252.700195312 471.849609375 252.700195312 c 0
 471.750976562 252.595703125 382.366210938 252.622070312 293.010742188 252.622070312 c 0
 194.611328125 249.41015625 201.803710938 171.760742188 156.225585938 74.099609375 c 1
 653.391601562 74.099609375 l 2
EndSplineSet
EndChar

StartChar: currency
Encoding: 164 164 100
Width: 519
GlyphClass: 2
Flags: MW
HStem: 73.1504 21<61.6943 91.2402> 131.799 46.3896<262.764 299.01> 441.011 46.3896<312.741 348.986 312.741 361.568> 525.049 21<122.253 157.702>
LayerCount: 2
Back
Fore
SplineSet
170.825195312 309.599609375 m 0
 161.0234375 239.856445312 212.95703125 178.188476562 287.40625 178.188476562 c 0
 361.85546875 178.188476562 431.123046875 239.856445312 440.924804688 309.599609375 c 0
 450.7265625 379.341796875 398.79296875 441.010742188 324.34375 441.010742188 c 0
 249.89453125 441.010742188 180.626953125 379.341796875 170.825195312 309.599609375 c 0
417.619140625 94.150390625 m 2
 383.024414062 158.03125 l 1
 352.293945312 141.434570312 317.1328125 131.798828125 280.88671875 131.798828125 c 0
 244.641601562 131.798828125 212.186523438 141.434570312 186.123046875 158.03125 c 1
 133.572265625 94.150390625 l 2
 124.162109375 83.650390625 101.375976562 73.150390625 81.1044921875 73.150390625 c 0
 60.8291015625 73.150390625 52.7685546875 83.650390625 61.6943359375 94.150390625 c 0
 61.9267578125 94.150390625 118.421875 163.798828125 146.4140625 198.325195312 c 1
 128.484375 229.166015625 120.657226562 267.750976562 126.5390625 309.599609375 c 0
 132.419921875 351.448242188 151.092773438 390.033203125 177.69140625 420.874023438 c 1
 159.403320312 455.400390625 122.485351562 525.048828125 122.252929688 525.048828125 c 0
 116.279296875 535.548828125 127.291015625 546.048828125 147.56640625 546.048828125 c 0
 167.837890625 546.048828125 187.672851562 535.548828125 194.130859375 525.048828125 c 2
 228.725585938 461.16796875 l 1
 259.455078125 477.764648438 294.618164062 487.400390625 330.86328125 487.400390625 c 0
 367.109375 487.400390625 399.5625 477.764648438 425.626953125 461.16796875 c 1
 478.177734375 525.048828125 l 2
 487.586914062 535.548828125 510.373046875 546.048828125 530.64453125 546.048828125 c 0
 550.919921875 546.048828125 558.98046875 535.548828125 550.055664062 525.048828125 c 0
 549.82421875 525.048828125 493.328125 455.400390625 465.3359375 420.874023438 c 1
 483.265625 390.033203125 491.091796875 351.448242188 485.2109375 309.599609375 c 0
 479.329101562 267.750976562 460.657226562 229.166015625 434.05859375 198.325195312 c 1
 452.346679688 163.798828125 489.265625 94.150390625 489.497070312 94.150390625 c 0
 495.469726562 83.650390625 484.458007812 73.150390625 464.182617188 73.150390625 c 0
 443.911132812 73.150390625 424.076171875 83.650390625 417.619140625 94.150390625 c 2
EndSplineSet
EndChar

StartChar: yen
Encoding: 165 165 101
Width: 710
GlyphClass: 2
Flags: MW
HStem: 30.3174 37.0498<488.259 554.966 656.634 660.545> 91.9551 37.0498<496.922 563.629> 113.479 82.4688<301.405 399.212>
LayerCount: 2
Back
Fore
SplineSet
670.599609375 624.599609375 m 2xa0
 691.514648438 624.599609375 705.719726562 610.676757812 703.4609375 594.607421875 c 2
 703.4609375 594.607421875 704.107421875 594.072265625 679.791992188 421.059570312 c 0
 678.611328125 412.655273438 677.1171875 404.329101562 675.3203125 396.091796875 c 0
 663.010742188 308.353515625 648.8125 207.184570312 637.8203125 129.005859375 c 1
 670.50390625 129.005859375 l 2
 678.435546875 129.005859375 684.174804688 120.930664062 682.706054688 110.48046875 c 0
 681.237304688 100.03125 673.119140625 91.955078125 665.296875 91.9560546875 c 2
 665.296875 91.9560546875 651.875 91.9462890625 632.606445312 91.9365234375 c 1
 631.387695312 83.2666015625 630.227539062 75.0537109375 629.147460938 67.3671875 c 1
 661.840820312 67.3671875 l 2
 669.772460938 67.3671875 675.51171875 59.2919921875 674.04296875 48.8427734375 c 0
 672.57421875 38.3916015625 664.456054688 30.3173828125 656.633789062 30.3173828125 c 2
 656.633789062 30.3173828125 643.201171875 30.30859375 623.916015625 30.2978515625 c 1
 621.432617188 12.7216796875 619.9921875 2.619140625 619.962890625 2.59765625 c 0
 617.704101562 -13.4716796875 599.596679688 -27.3984375 578.696289062 -27.3984375 c 0
 557.797851562 -27.3984375 544.030273438 -13.4716796875 545.86328125 2.59765625 c 2
 549.751953125 30.2685546875 l 1
 518.208984375 30.263671875 492.250976562 30.2734375 492.224609375 30.3173828125 c 0
 484.29296875 30.3173828125 478.553710938 38.3916015625 480.022460938 48.8427734375 c 0
 481.491210938 59.2919921875 489.469726562 67.154296875 497.431640625 67.3671875 c 2
 554.965820312 67.3671875 l 1
 558.4140625 91.9052734375 l 1
 526.872070312 91.9013671875 500.913085938 91.9111328125 500.887695312 91.955078125 c 0
 492.956054688 91.955078125 487.216796875 100.030273438 488.685546875 110.479492188 c 0
 490.153320312 120.9296875 498.1328125 128.791992188 506.094726562 129.004882812 c 2
 563.62890625 129.004882812 l 1xc0
 575.141601562 210.924804688 l 1
 510.958007812 151.092773438 443.946289062 113.478515625 354.477539062 113.478515625 c 0
 186.586914062 113.478515625 84.1240234375 252.326171875 108.163085938 423.37109375 c 0
 132.202148438 594.416015625 132.999023438 594.9453125 132.999023438 594.9453125 c 2
 135.231445312 610.83203125 153.317382812 624.600585938 174.215820312 624.600585938 c 0
 195.116210938 624.600585938 209.30859375 610.673828125 207.05078125 594.604492188 c 2
 207.05078125 594.604492188 199.423828125 540.526367188 182.633789062 421.055664062 c 0
 165.842773438 301.5859375 238.536132812 195.947265625 364.274414062 195.947265625 c 0
 486.150390625 195.947265625 580.96484375 295.19921875 603.130859375 410.09375 c 1
 629.0625 594.603515625 l 2
 631.3203125 610.672851562 649.440429688 624.599609375 670.353515625 624.599609375 c 2
 670.599609375 624.599609375 l 2xa0
EndSplineSet
EndChar

StartChar: brokenbar
Encoding: 166 166 102
Width: 198
GlyphClass: 2
Flags: MW
VStem: 69.7871 164.062
LayerCount: 2
Back
Fore
SplineSet
182.11328125 300 m 2
 143.88671875 28 l 2
 141.778320312 13 123.80078125 0 102.901367188 0 c 0
 82.0009765625 0 67.70703125 13.20703125 69.787109375 28 c 2
 108.013671875 300 l 2
 110.122070312 315 128.098632812 328 148.999023438 328 c 0
 169.8984375 328 183.795898438 315 182.11328125 300 c 2
233.848632812 672 m 2
 195.622070312 400 l 2
 193.513671875 385 175.536132812 372 154.63671875 372 c 0
 133.71875 372 119.411132812 385.20703125 121.491210938 400 c 2
 159.717773438 672 l 2
 161.826171875 687 179.81640625 700 200.734375 700 c 0
 221.633789062 700 235.53125 687 233.848632812 672 c 2
EndSplineSet
EndChar

StartChar: section
Encoding: 167 167 103
Width: 714
GlyphClass: 2
Flags: MW
HStem: 0 74.7959<318.281 435.208 318.281 448.334> 156.438 56.998<371.69 410.742 371.69 421.089> 268.425 75.0137 406.735 56.9941<397.212 439.335> 537.572 74.7959<371.06 487.987>
VStem: 503.321 60.377
LayerCount: 2
Back
Fore
SplineSet
252.162109375 343.551757812 m 1
 278.637695312 412.439453125 349.294921875 463.729492188 424.747070312 463.729492188 c 0
 499.990234375 463.729492188 556.216796875 413.356445312 563.698242188 345.609375 c 1
 637.233398438 346.948242188 718.497070312 352.037109375 696.4140625 194.908203125 c 0
 673.229492188 29.943359375 532.453125 0 364.215820312 0 c 0
 195.978515625 0 83.0537109375 0.7216796875 83.0537109375 0.7216796875 c 2
 67.427734375 0.7216796875 56.1552734375 16.873046875 59.0927734375 37.7734375 c 0
 62.0302734375 58.6748046875 77.9296875 74.8251953125 93.6572265625 74.8251953125 c 2
 93.6572265625 74.8251953125 259.817382812 74.7958984375 376.745117188 74.7958984375 c 0
 493.671875 74.7958984375 600.724609375 100.853515625 613.954101562 194.986328125 c 0
 614.233398438 196.97265625 644.120117188 262.953125 554.208984375 268.74609375 c 1
 525.724609375 203.893554688 457.463867188 156.438476562 384.713867188 156.438476562 c 0
 312.141601562 156.438476562 257.250976562 203.239257812 246.720703125 267.270507812 c 1
 172.15234375 266.107421875 87.42578125 257.866210938 109.889648438 417.708984375 c 0
 133.043945312 582.462890625 273.815429688 612.368164062 442.052734375 612.368164062 c 0
 610.290039062 612.368164062 723.21484375 611.646484375 723.21484375 611.646484375 c 2
 738.840820312 611.646484375 750.11328125 595.495117188 747.17578125 574.594726562 c 0
 744.23828125 553.693359375 728.338867188 537.54296875 712.611328125 537.54296875 c 2
 712.611328125 537.54296875 546.451171875 537.572265625 429.5234375 537.572265625 c 0
 312.596679688 537.572265625 205.54296875 511.5078125 192.310546875 417.3515625 c 0
 192.03125 415.365234375 162.100585938 349.190429688 252.162109375 343.551757812 c 1
503.321289062 343.958984375 m 1
 492.775390625 380.030273438 460.346679688 406.735351562 418.32421875 406.735351562 c 0
 376.100585938 406.735351562 335.984375 379.7734375 315.385742188 343.438476562 c 1
 356.82421875 343.639648438 422.0703125 343.885742188 503.321289062 343.958984375 c 1
308.833007812 268.424804688 m 1
 321.522460938 236.36328125 352.221679688 213.436523438 391.158203125 213.436523438 c 0
 430.326171875 213.436523438 467.676757812 236.607421875 489.314453125 268.927734375 c 1
 448.869140625 268.749023438 386.434570312 268.506835938 308.833007812 268.424804688 c 1
EndSplineSet
EndChar

StartChar: dieresis
Encoding: 168 168 104
Width: 369
GlyphClass: 2
Flags: MW
HStem: 611.25 88.75<198.753 211.279 349.417 361.943>
VStem: 158.679 92.5<655 655> 309.343 92.5<655 655>
LayerCount: 2
Back
Fore
SplineSet
198.779296875 611.25 m 0
 173.779296875 611.25 155.165039062 630 158.678710938 655 c 0
 162.19140625 680 186.252929688 700 211.252929688 700 c 0
 236.252929688 700 254.69140625 680 251.178710938 655 c 0
 247.665039062 630 223.779296875 611.25 198.779296875 611.25 c 0
349.443359375 611.25 m 0
 324.443359375 611.25 305.829101562 630 309.342773438 655 c 0
 312.85546875 680 336.916992188 700 361.916992188 700 c 0
 386.916992188 700 405.35546875 680 401.842773438 655 c 0
 398.329101562 630 374.443359375 611.25 349.443359375 611.25 c 0
EndSplineSet
EndChar

StartChar: copyright
Encoding: 169 169 105
Width: 731
GlyphClass: 2
Flags: MW
HStem: 0 82.4707<314.39 446.091 314.39 456.202> 151.225 37.3965<336.623 395.59 336.623 404.421> 425.523 37.3984<369.917 428.885> 536.729 82.4707<378.231 509.933>
LayerCount: 2
Back
Fore
SplineSet
173.259765625 309.599609375 m 0
 156.318359375 189.056640625 248.5390625 82.470703125 380.240234375 82.470703125 c 0
 511.94140625 82.470703125 634.12109375 189.056640625 651.0625 309.599609375 c 0
 668.002929688 430.141601562 575.783203125 536.728515625 444.08203125 536.728515625 c 0
 312.380859375 536.728515625 190.200195312 430.141601562 173.259765625 309.599609375 c 0
94.52734375 309.599609375 m 0
 118.54296875 480.482421875 280.56640625 619.19921875 455.671875 619.19921875 c 0
 630.77734375 619.19921875 753.810546875 480.482421875 729.794921875 309.599609375 c 0
 705.778320312 138.716796875 543.754882812 0 368.649414062 0 c 0
 193.543945312 0 70.5107421875 138.716796875 94.52734375 309.599609375 c 0
547.486328125 462.561523438 m 2
 555.357421875 462.561523438 561.043945312 454.484375 559.575195312 444.03515625 c 0
 558.106445312 433.583984375 550.09765625 425.509765625 542.166015625 425.509765625 c 2
 542.166015625 425.509765625 458.369140625 425.5234375 399.401367188 425.5234375 c 0
 340.43359375 425.5234375 280.821289062 372.37109375 271.64453125 307.072265625 c 0
 262.467773438 241.7734375 307.138671875 188.62109375 366.106445312 188.62109375 c 0
 425.07421875 188.62109375 508.875 188.634765625 508.875 188.634765625 c 2
 516.806640625 188.634765625 522.545898438 180.560546875 521.077148438 170.109375 c 0
 519.608398438 159.66015625 511.65234375 151.584960938 503.78125 151.584960938 c 2
 503.78125 151.584960938 446.794921875 151.224609375 362.047851562 151.224609375 c 0
 277.30078125 151.224609375 218.334960938 221.157226562 230.409179688 307.073242188 c 0
 242.484375 392.989257812 321.107421875 462.921875 405.854492188 462.921875 c 0
 490.6015625 462.921875 547.486328125 462.561523438 547.486328125 462.561523438 c 2
EndSplineSet
EndChar

StartChar: ordfeminine
Encoding: 170 170 106
Width: 325
GlyphClass: 2
Flags: MW
HStem: 495.18 28.8652<215.989 252.708> 671.135 28.8652<236.662 282.987>
VStem: 137.901 223.268<597 597>
LayerCount: 2
Back
Fore
SplineSet
347.104492188 498.844726562 m 2
 346.366210938 493.594726562 320.379882812 493.245117188 321.1171875 498.495117188 c 0
 322.622070312 509.19921875 324.12890625 519.903320312 325.633789062 530.607421875 c 1
 301.98046875 508.913085938 269.63671875 495.1796875 235.778320312 495.1796875 c 0
 173.885742188 495.1796875 129.958007812 541.064453125 137.901367188 597.58984375 c 0
 145.845703125 654.115234375 202.38671875 700 263.928710938 700 c 0
 325.470703125 700 369.11328125 654.115234375 361.168945312 597.58984375 c 2
 347.104492188 498.844726562 l 2
165.456054688 597.58984375 m 0
 159.970703125 558.557617188 192.826171875 524.044921875 239.151367188 524.044921875 c 0
 285.4765625 524.044921875 328.033203125 558.557617188 333.518554688 597.58984375 c 0
 339.004882812 636.622070312 306.149414062 671.134765625 259.82421875 671.134765625 c 0
 213.499023438 671.134765625 170.942382812 636.622070312 165.456054688 597.58984375 c 0
EndSplineSet
EndChar

StartChar: guillemotleft
Encoding: 171 171 107
Width: 614
GlyphClass: 2
Flags: W
LayerCount: 2
Back
Fore
SplineSet
335.598632812 360 m 0
 338.796875 382.75390625 355.748046875 405.547851562 372.456054688 411.557617188 c 0
 372.663085938 411.84765625 620.692382812 567.560546875 620.692382812 567.560546875 c 1
 636.9609375 572.006835938 649.631835938 562.7890625 647.233398438 545.72265625 c 0
 644.834960938 528.657226562 628.684570312 511.564453125 612.1875 507.056640625 c 1
 406.100585938 360.001953125 l 1
 570.853515625 212.947265625 l 1
 586.083007812 208.439453125 597.428710938 191.346679688 595.030273438 174.28125 c 0
 592.631835938 157.21484375 577.370117188 147.997070312 562.3515625 152.443359375 c 1
 562.3515625 152.443359375 358.08984375 308.15625 357.96484375 308.446289062 c 0
 342.946289062 314.456054688 332.400390625 337.24609375 335.598632812 360 c 0
99.7705078125 360.00390625 m 0
 102.967773438 382.7578125 119.919921875 405.551757812 136.626953125 411.561523438 c 0
 136.833984375 411.8515625 384.86328125 567.564453125 384.86328125 567.564453125 c 1
 401.131835938 572.010742188 413.803710938 562.79296875 411.405273438 545.7265625 c 0
 409.006835938 528.661132812 392.856445312 511.568359375 376.359375 507.060546875 c 1
 170.272460938 360.005859375 l 1
 335.025390625 212.951171875 l 1
 350.254882812 208.443359375 361.600585938 191.350585938 359.202148438 174.28515625 c 0
 356.803710938 157.21875 341.541015625 148.000976562 326.522460938 152.447265625 c 1
 326.522460938 152.447265625 122.26171875 308.16015625 122.135742188 308.450195312 c 0
 107.1171875 314.459960938 96.572265625 337.25 99.7705078125 360.00390625 c 0
EndSplineSet
EndChar

StartChar: logicalnot
Encoding: 172 172 108
Width: 616
GlyphClass: 2
Flags: MW
HStem: 305.879 74.0996<125.477 586.085 143.571 530.836>
LayerCount: 2
Back
Fore
SplineSet
530.8359375 305.87890625 m 1
 133.408203125 305.87890625 l 2
 117.544921875 305.87890625 106.06640625 322.029296875 109.00390625 342.928710938 c 0
 111.94140625 363.829101562 128.059570312 379.979492188 143.571289062 379.978515625 c 2
 586.084960938 379.978515625 l 2
 601.814453125 379.978515625 612.783203125 361.030273438 609.336914062 336.5078125 c 2
 587.735351562 182.806640625 l 2
 585.262695312 165.20703125 566.967773438 149.954101562 546.068359375 149.954101562 c 0
 525.16796875 149.954101562 511.391601562 166.840820312 514.05078125 185.754882812 c 2
 514.05078125 185.754882812 523.875 256.350585938 530.8359375 305.87890625 c 1
EndSplineSet
EndChar

StartChar: uni00AD
Encoding: 173 173 109
Width: 538
GlyphClass: 2
Flags: MW
HStem: 271.904 74.0996<120.173 503.365 138.518 492.951>
LayerCount: 2
Back
Fore
SplineSet
492.951171875 271.904296875 m 2
 128.104492188 271.904296875 l 2
 112.241210938 271.904296875 100.762695312 288.0546875 103.700195312 308.954101562 c 0
 106.637695312 329.854492188 122.874023438 346.004882812 138.517578125 346.00390625 c 2
 503.365234375 346.00390625 l 2
 519.228515625 346.00390625 530.70703125 329.854492188 527.76953125 308.954101562 c 0
 524.83203125 288.0546875 508.874023438 272.330078125 492.951171875 271.904296875 c 2
EndSplineSet
EndChar

StartChar: registered
Encoding: 174 174 110
Width: 731
GlyphClass: 2
Flags: MW
HStem: 0 82.4707<314.39 446.091 314.39 456.202> 426.217 37.3965<390.637 449.605> 536.729 82.4707<378.231 509.933>
LayerCount: 2
Back
Fore
SplineSet
173.259765625 309.599609375 m 0
 156.318359375 189.056640625 248.5390625 82.470703125 380.240234375 82.470703125 c 0
 511.94140625 82.470703125 634.12109375 189.056640625 651.0625 309.599609375 c 0
 668.002929688 430.141601562 575.783203125 536.728515625 444.08203125 536.728515625 c 0
 312.380859375 536.728515625 190.200195312 430.141601562 173.259765625 309.599609375 c 0
94.52734375 309.599609375 m 0
 118.54296875 480.482421875 280.56640625 619.19921875 455.671875 619.19921875 c 0
 630.77734375 619.19921875 753.810546875 480.482421875 729.794921875 309.599609375 c 0
 705.778320312 138.716796875 543.754882812 0 368.649414062 0 c 0
 193.543945312 0 70.5107421875 138.716796875 94.52734375 309.599609375 c 0
272.642578125 166.006835938 m 1
 271.46875 157.840820312 262.421875 150.762695312 251.96875 150.762695312 c 0
 241.516601562 150.762695312 234.458007812 157.83984375 235.581054688 166.005859375 c 0
 235.606445312 166.005859375 251.274414062 308.801757812 251.274414062 308.801757812 c 1
 268.743164062 393.962890625 341.827148438 463.61328125 426.57421875 463.61328125 c 0
 511.321289062 463.61328125 568.206054688 463.252929688 568.206054688 463.252929688 c 2
 576.077148438 463.252929688 581.763671875 455.177734375 580.295898438 444.728515625 c 0
 578.827148438 434.27734375 570.818359375 426.203125 562.88671875 426.203125 c 2
 562.88671875 426.203125 479.088867188 426.216796875 420.12109375 426.216796875 c 0
 361.153320312 426.216796875 301.607421875 373.530273438 292.510742188 308.802734375 c 0
 283.4140625 244.075195312 272.616210938 166.006835938 272.642578125 166.006835938 c 1
EndSplineSet
EndChar

StartChar: macron
Encoding: 175 175 111
Width: 904
GlyphClass: 2
Flags: MW
HStem: 625.9 74.0996<181.027 910.031 199.373 899.618>
LayerCount: 2
Back
Fore
SplineSet
199.373046875 700 m 2
 910.03125 700 l 2
 925.89453125 700 937.372070312 683.849609375 934.435546875 662.950195312 c 0
 931.498046875 642.049804688 915.26171875 625.899414062 899.618164062 625.900390625 c 2
 899.618164062 625.900390625 189.095703125 625.692382812 188.958984375 625.900390625 c 0
 173.095703125 625.900390625 161.6171875 642.049804688 164.5546875 662.950195312 c 0
 167.491210938 683.849609375 183.44921875 699.57421875 199.373046875 700 c 2
EndSplineSet
EndChar

StartChar: degree
Encoding: 176 176 112
Width: 354
GlyphClass: 2
Flags: MW
HStem: 464.818 33.1953<223.428 276.701 223.428 280.771> 667.166 33.1953<247.2 300.474>
VStem: 133.625 256.651<582 582>
LayerCount: 2
Back
Fore
SplineSet
165.314453125 582.58984375 m 0
 159.005859375 537.703125 196.791015625 498.013671875 250.064453125 498.013671875 c 0
 303.337890625 498.013671875 352.279296875 537.703125 358.587890625 582.58984375 c 0
 364.896484375 627.4765625 327.110351562 667.166015625 273.836914062 667.166015625 c 0
 220.563476562 667.166015625 171.623046875 627.4765625 165.314453125 582.58984375 c 0
133.625 582.58984375 m 0
 142.760742188 647.59375 207.7578125 700.361328125 278.501953125 700.361328125 c 0
 349.24609375 700.361328125 399.412109375 647.59375 390.276367188 582.58984375 c 0
 381.140625 517.5859375 316.142578125 464.818359375 245.3984375 464.818359375 c 0
 174.654296875 464.818359375 124.489257812 517.5859375 133.625 582.58984375 c 0
EndSplineSet
EndChar

StartChar: plusminus
Encoding: 177 177 113
Width: 594
GlyphClass: 2
Flags: MW
HStem: 0 74.0996<70.4087 531.2 88.6865 520.786> 349.003 74.0996<120.171 138.516 138.516 138.516 138.516 312.06>
LayerCount: 2
Back
Fore
SplineSet
520.786132812 0 m 2
 78.2734375 0 l 2
 62.5439453125 0 51.181640625 16.150390625 54.119140625 37.0498046875 c 0
 57.056640625 57.9501953125 73.1748046875 74.1005859375 88.6865234375 74.099609375 c 2
 531.200195312 74.099609375 l 2
 546.9296875 74.099609375 558.291992188 57.9501953125 555.354492188 37.0498046875 c 0
 552.416992188 16.150390625 536.575195312 0.42578125 520.786132812 0 c 2
570.115234375 349.002929688 m 2
 386.25 349.001953125 l 1
 372.413085938 250.420898438 360.00390625 162.208984375 359.896484375 162.134765625 c 0
 357.631835938 146.020507812 339.51953125 132.0546875 318.619140625 132.0546875 c 0
 297.719726562 132.0546875 283.958007812 146.020507812 285.796875 162.134765625 c 2
 312.059570312 349.002929688 l 1
 128.102539062 349.002929688 l 2
 112.239257812 349.002929688 100.76171875 365.153320312 103.698242188 386.052734375 c 0
 106.635742188 406.953125 122.872070312 423.103515625 138.515625 423.102539062 c 2
 138.515625 423.102539062 225.391601562 423.145507812 322.483398438 423.17578125 c 1
 348.735351562 609.969726562 l 2
 351 626.083984375 369.11328125 640.049804688 390.012695312 640.049804688 c 0
 410.913085938 640.049804688 425.069335938 625.862304688 422.834960938 609.970703125 c 2
 422.834960938 609.970703125 410.482421875 521.780273438 396.657226562 423.1953125 c 1
 493.67578125 423.212890625 580.469726562 423.201171875 580.529296875 423.102539062 c 0
 596.392578125 423.102539062 607.87109375 406.953125 604.93359375 386.052734375 c 0
 601.997070312 365.153320312 586.0390625 349.428710938 570.115234375 349.002929688 c 2
EndSplineSet
EndChar

StartChar: uni00B2
Encoding: 178 178 114
Width: 408
GlyphClass: 2
Flags: MW
HStem: 410.821 37.3975<237.971 296.428 237.971 305.004> 515.895 37.3984<196.019 208.035> 662.607 37.3984<273.726 332.183>
VStem: 120.221 326.338
LayerCount: 2
Back
Fore
SplineSet
403.619140625 411.181640625 m 2
 403.619140625 411.181640625 347.059570312 410.821289062 262.94921875 410.821289062 c 0
 178.838867188 410.821289062 109.249023438 401.491210938 120.220703125 479.556640625 c 0
 131.403320312 559.123046875 176.7578125 553.29296875 215.280273438 553.29296875 c 0
 299.923828125 553.29296875 356.739257812 552.931640625 356.739257812 552.931640625 c 2
 385.313476562 552.931640625 400.833984375 575.321289062 405.323242188 607.26953125 c 0
 413.678710938 666.71875 361.411132812 662.607421875 302.954101562 662.607421875 c 0
 244.497070312 662.607421875 161.422851562 662.594726562 161.422851562 662.594726562 c 2
 153.559570312 662.594726562 147.879882812 670.669921875 149.348632812 681.120117188 c 0
 150.81640625 691.569335938 158.72265625 699.64453125 166.53515625 699.64453125 c 2
 166.53515625 699.64453125 223.09375 700.005859375 307.204101562 700.005859375 c 0
 391.314453125 700.005859375 457.811523438 687.3359375 446.55859375 607.26953125 c 0
 436.290039062 534.204101562 399.546875 515.534179688 349.494140625 515.534179688 c 0
 264.850585938 515.534179688 208.03515625 515.89453125 208.03515625 515.89453125 c 2
 149.586914062 515.89453125 161.58984375 480.505859375 161.45703125 479.556640625 c 0
 157.107421875 448.608398438 208.7421875 448.21875 267.19921875 448.21875 c 0
 325.65625 448.21875 408.731445312 448.231445312 408.731445312 448.231445312 c 2
 416.594726562 448.231445312 422.274414062 440.157226562 420.805664062 429.70703125 c 0
 419.336914062 419.256835938 411.431640625 411.181640625 403.619140625 411.181640625 c 2
EndSplineSet
EndChar

StartChar: uni00B3
Encoding: 179 179 115
Width: 448
GlyphClass: 2
Flags: MW
HStem: 409.529 37.3975<285.035 344.002 285.035 350.439> 536.09 37.0498<135.555 353.061 144.728 347.854> 662.603 37.3975<315.346 374.314>
LayerCount: 2
Back
Fore
SplineSet
144.727539062 573.139648438 m 2
 353.060546875 573.139648438 l 2
 360.9921875 573.139648438 366.661132812 564.564453125 365.192382812 554.115234375 c 0
 363.723632812 543.6640625 355.67578125 536.08984375 347.853515625 536.08984375 c 2
 139.520507812 536.08984375 l 2
 131.588867188 536.08984375 125.849609375 544.1640625 127.318359375 554.615234375 c 0
 128.787109375 565.064453125 136.765625 572.926757812 144.727539062 573.139648438 c 2
207.155273438 699.639648438 m 2
 207.155273438 699.639648438 264.141601562 700 348.888671875 700 c 0
 433.635742188 700 493.270507812 634.830078125 482.017578125 554.764648438 c 0
 470.765625 474.69921875 392.8125 409.529296875 308.065429688 409.529296875 c 0
 223.318359375 409.529296875 166.43359375 409.889648438 166.43359375 409.889648438 c 2
 158.5625 409.889648438 152.875976562 417.96484375 154.344726562 428.4140625 c 0
 155.813476562 438.865234375 163.822265625 446.939453125 171.75390625 446.939453125 c 2
 171.75390625 446.939453125 255.55078125 446.926757812 314.518554688 446.926757812 c 0
 373.486328125 446.926757812 432.428710938 495.31640625 440.783203125 554.764648438 c 0
 449.138671875 614.212890625 403.797851562 662.602539062 344.830078125 662.602539062 c 0
 285.862304688 662.602539062 202.061523438 662.58984375 202.061523438 662.58984375 c 2
 194.129882812 662.58984375 188.390625 670.6640625 189.859375 681.115234375 c 0
 191.328125 691.564453125 199.284179688 699.639648438 207.155273438 699.639648438 c 2
EndSplineSet
EndChar

StartChar: acute
Encoding: 180 180 116
Width: 236
GlyphClass: 2
Flags: MW
HStem: 557.5 21G 607.5 92.5<199.459 275.376>
LayerCount: 2
Back
Fore
SplineSet
279.116210938 653.75 m 0
 263.274414062 628.75 229.98046875 607.5 203.541992188 607.5 c 0
 195.375976562 607.5 188.998046875 609.52734375 184.551757812 613.06640625 c 1
 161.372070312 577.020507812 183.674804688 571.014648438 204.90625 557.5 c 1
 170.798828125 562.083984375 128.487304688 572.5 131.650390625 583.75 c 0
 135.336914062 600 167.0234375 633.318359375 185.259765625 653.75 c 1
 201.102539062 678.75 235.71875 700 262.157226562 700 c 0
 288.595703125 700 294.958984375 678.75 279.116210938 653.75 c 0
EndSplineSet
EndChar

StartChar: mu
Encoding: 181 181 117
Width: 723
GlyphClass: 2
Flags: MW
HStem: 3.85645 82.4707<319.06 440.372 314.634 448.083> 594.939 29.6611<177.597 220.928>
LayerCount: 2
Back
Fore
SplineSet
136.401367188 526.145507812 m 2
 141.688476562 563.76953125 146.857421875 595.1484375 146.857421875 595.1484375 c 2
 149.075195312 610.926757812 167.147460938 624.600585938 188.046875 624.600585938 c 0
 208.947265625 624.600585938 223.161132812 610.829101562 220.927734375 594.939453125 c 2
 220.927734375 594.939453125 197.306640625 427.05859375 180.703125 308.921875 c 0
 164.100585938 190.786132812 251.765625 86.3271484375 377.502929688 86.3271484375 c 0
 503.240234375 86.3271484375 620.266601562 190.786132812 636.869140625 308.921875 c 0
 653.47265625 427.05859375 677.0390625 594.939453125 677.0390625 594.939453125 c 2
 679.272460938 610.829101562 697.357421875 624.600585938 718.2578125 624.600585938 c 0
 739.157226562 624.600585938 753.38671875 610.9375 751.170898438 595.171875 c 2
 751.170898438 595.171875 735.866210938 481.133789062 712.009765625 311.390625 c 0
 688.154296875 141.647460938 532.068359375 3.8564453125 364.096679688 3.8564453125 c 0
 274.022460938 3.8564453125 198.282226562 41.9013671875 150.935546875 102.3203125 c 1
 131.470703125 -36.181640625 l 2
 129.30078125 -51.6201171875 111.270507812 -65 90.37109375 -65 c 0
 69.470703125 -65 55.2724609375 -51.1083984375 57.4599609375 -35.5478515625 c 2
 136.401367188 526.145507812 l 2
EndSplineSet
EndChar

StartChar: paragraph
Encoding: 182 182 118
Width: 491
GlyphClass: 2
Flags: MW
HStem: 0.000976562 29.8447<251.231 294.537> 549.895 74.0996<398.419 445.822 398.419 398.419>
LayerCount: 2
Back
Fore
SplineSet
526.255859375 594.380859375 m 2
 446.881835938 29.6142578125 l 2
 444.65234375 13.75 426.569335938 0.0009765625 405.669921875 0.0009765625 c 0
 384.76953125 0.0009765625 370.59765625 14.078125 372.814453125 29.845703125 c 2
 372.814453125 29.845703125 426.337890625 411.732421875 445.822265625 549.89453125 c 1
 398.418945312 549.89453125 l 1
 325.331054688 29.845703125 l 2
 323.083984375 13.857421875 304.986328125 0.0009765625 284.086914062 0.0009765625 c 0
 263.186523438 0.0009765625 249.014648438 14.078125 251.231445312 29.845703125 c 2
 251.231445312 29.845703125 270.4921875 167.254882812 290.112304688 307.044921875 c 1
 130.612304688 308.1484375 116.400390625 433.41796875 118.181640625 446.096679688 c 0
 119.234375 453.583007812 125.163085938 623.9921875 287.748046875 623.994140625 c 2
 493.118164062 623.994140625 l 2
 514.158203125 623.994140625 528.056640625 610.245117188 526.255859375 594.380859375 c 2
EndSplineSet
EndChar

StartChar: periodcentered
Encoding: 183 183 119
Width: 200
GlyphClass: 2
Flags: MW
HStem: 218.75 92.5<130.618 142.618>
VStem: 92.8682 88.75<265 265>
LayerCount: 2
Back
Fore
SplineSet
92.8681640625 265 m 0
 96.3818359375 290 118.118164062 311.25 143.118164062 311.25 c 0
 168.118164062 311.25 185.131835938 290 181.618164062 265 c 0
 178.104492188 240 155.118164062 218.75 130.118164062 218.75 c 0
 105.118164062 218.75 89.3544921875 240 92.8681640625 265 c 0
EndSplineSet
EndChar

StartChar: cedilla
Encoding: 184 184 120
Width: 204
GlyphClass: 2
Flags: MW
HStem: -50.25 92.5<92.4473 104.447>
VStem: 54.6973 110.813
LayerCount: 2
Back
Fore
SplineSet
54.697265625 -4 m 0
 58.2109375 21 79.947265625 42.25 104.947265625 42.25 c 0
 112.668945312 42.25 119.629882812 40.22265625 125.458007812 36.68359375 c 1
 133.943359375 94.78515625 110.615234375 104.465820312 85.5029296875 126.25 c 1
 119.629882812 120.046875 163.900390625 105.951171875 165.510742188 90.7275390625 c 0
 168.669921875 68.7373046875 152.333984375 23.6494140625 143.447265625 -4 c 1
 139.93359375 -29 116.947265625 -50.25 91.947265625 -50.25 c 0
 66.947265625 -50.25 51.18359375 -29 54.697265625 -4 c 0
EndSplineSet
EndChar

StartChar: uni00B9
Encoding: 185 185 121
Width: 198
GlyphClass: 2
Flags: MW
HStem: 405 14<175.411 197.193>
LayerCount: 2
Back
Fore
SplineSet
206.080078125 637.55859375 m 1
 166.6484375 604.647460938 l 2
 160.295898438 599.34375 149.552734375 600.458007812 142.778320312 607.846679688 c 0
 136.001953125 615.236328125 136.360351562 625.615234375 142.625976562 630.845703125 c 2
 142.625976562 630.845703125 207.36328125 685.93359375 207.483398438 686 c 0
 213.719726562 691.302734375 219.688476562 701 232.7734375 700 c 0
 243.591796875 700 250.818359375 693.5 249.985351562 686 c 2
 212.4609375 419 l 2
 211.407226562 411.5 202.41796875 405 191.96875 405 c 0
 181.518554688 405 174.37109375 411.603515625 175.411132812 419 c 2
 175.411132812 419 194.784179688 557.180664062 206.080078125 637.55859375 c 1
EndSplineSet
EndChar

StartChar: ordmasculine
Encoding: 186 186 122
Width: 320
GlyphClass: 2
Flags: MW
HStem: 495.18 28.8652<213.347 259.672 213.347 263.211> 671.135 28.8652<234.02 280.345>
VStem: 135.259 223.174<597 597>
LayerCount: 2
Back
Fore
SplineSet
162.814453125 597.58984375 m 0
 157.329101562 558.557617188 190.184570312 524.044921875 236.509765625 524.044921875 c 0
 282.834960938 524.044921875 325.391601562 558.557617188 330.876953125 597.58984375 c 0
 336.36328125 636.622070312 303.5078125 671.134765625 257.182617188 671.134765625 c 0
 210.857421875 671.134765625 168.30078125 636.622070312 162.814453125 597.58984375 c 0
135.258789062 597.58984375 m 0
 143.203125 654.115234375 199.72265625 700 261.239257812 700 c 0
 322.755859375 700 366.376953125 654.115234375 358.432617188 597.58984375 c 0
 350.489257812 541.064453125 293.969726562 495.1796875 232.453125 495.1796875 c 0
 170.936523438 495.1796875 127.315429688 541.064453125 135.258789062 597.58984375 c 0
EndSplineSet
EndChar

StartChar: guillemotright
Encoding: 187 187 123
Width: 616
GlyphClass: 2
Flags: W
LayerCount: 2
Back
Fore
SplineSet
386.360351562 360 m 0
 383.162109375 337.24609375 366.2109375 314.452148438 349.502929688 308.442382812 c 0
 349.295898438 308.15234375 101.266601562 152.439453125 101.266601562 152.439453125 c 1
 84.998046875 147.993164062 72.3271484375 157.2109375 74.7255859375 174.27734375 c 0
 77.1240234375 191.342773438 93.2744140625 208.435546875 109.770507812 212.943359375 c 1
 315.858398438 359.998046875 l 1
 151.10546875 507.052734375 l 1
 135.875976562 511.560546875 124.530273438 528.653320312 126.927734375 545.71875 c 0
 129.327148438 562.78515625 144.588867188 572.002929688 159.607421875 567.556640625 c 1
 159.607421875 567.556640625 363.869140625 411.84375 363.994140625 411.553710938 c 0
 379.012695312 405.543945312 389.55859375 382.75390625 386.360351562 360 c 0
622.188476562 359.99609375 m 0
 618.991210938 337.2421875 602.0390625 314.448242188 585.33203125 308.438476562 c 0
 585.125 308.1484375 337.095703125 152.435546875 337.095703125 152.435546875 c 1
 320.827148438 147.989257812 308.155273438 157.20703125 310.553710938 174.2734375 c 0
 312.952148438 191.338867188 329.102539062 208.431640625 345.599609375 212.939453125 c 1
 551.686523438 359.994140625 l 1
 386.93359375 507.048828125 l 1
 371.704101562 511.556640625 360.358398438 528.649414062 362.756835938 545.71484375 c 0
 365.155273438 562.78125 380.41796875 571.999023438 395.436523438 567.552734375 c 1
 395.436523438 567.552734375 599.697265625 411.83984375 599.823242188 411.549804688 c 0
 614.841796875 405.540039062 625.38671875 382.75 622.188476562 359.99609375 c 0
EndSplineSet
EndChar

StartChar: onequarter
Encoding: 188 188 124
Width: 613
GlyphClass: 2
Flags: MW
HStem: 127.057 37.0859<536.129 585.771> 271.46 37.4004 339.049 14.876<170.197 191.856>
LayerCount: 2
Back
Fore
SplineSet
590.500976562 622.42578125 m 2
 126.298828125 29.5390625 l 2
 113.909179688 13.71484375 86.2177734375 0 64.2783203125 0 c 0
 42.337890625 0 36.291015625 13.9326171875 48.5107421875 29.5390625 c 2
 48.5107421875 29.5390625 512.36328125 622.259765625 512.712890625 622.42578125 c 0
 525.102539062 638.25 552.79296875 651.96484375 574.733398438 651.96484375 c 0
 596.672851562 651.96484375 602.443359375 638.25 590.500976562 622.42578125 c 2
559.392578125 292.474609375 m 1
 541.354492188 164.142578125 l 1
 585.770507812 164.142578125 l 2
 593.702148438 164.142578125 599.44140625 156.067382812 597.97265625 145.6171875 c 0
 596.504882812 135.16796875 588.385742188 127.091796875 580.563476562 127.092773438 c 2
 580.563476562 127.092773438 563.141601562 127.071289062 536.12890625 127.056640625 c 1
 520.36328125 14.875 l 2
 519.243164062 6.90625 510.197265625 0 499.747070312 0 c 0
 489.296875 0 482.208007812 7.0166015625 483.313476562 14.8759765625 c 2
 483.313476562 14.8759765625 490.234375 64.2841796875 499.041015625 127.044921875 c 1
 480.439453125 127.044921875 466.389648438 127.056640625 466.3671875 127.09375 c 0
 417.9453125 127.09375 394.165039062 126.65234375 314.555664062 126.98046875 c 1
 292.604492188 131.969726562 306.064453125 146.5859375 322.41015625 166.180664062 c 0
 387.259765625 243.928710938 443.206054688 306.782226562 490.467773438 308.860351562 c 0
 566.947265625 312.107421875 559.392578125 292.474609375 559.392578125 292.474609375 c 1
519.384765625 271.73046875 m 1
 511.322265625 271.73046875 500.671875 271.635742188 486.657226562 271.459960938 c 0
 464.262695312 271.163085938 436.768554688 247.810546875 375.506835938 173.348632812 c 0
 366.762695312 162.721679688 394.1484375 164.490234375 471.623046875 164.490234375 c 2
 471.623046875 164.490234375 475.024414062 164.49609375 504.297851562 164.5 c 1
 510.264648438 207.008789062 516.10546875 248.395507812 519.384765625 271.73046875 c 1
202.787109375 586.1484375 m 1
 163.06640625 551.178710938 l 2
 156.666015625 545.54296875 145.934570312 546.7265625 139.22265625 554.578125 c 0
 132.51171875 562.428710938 132.9609375 573.45703125 139.2734375 579.014648438 c 2
 139.2734375 579.014648438 204.495117188 637.546875 204.615234375 637.6171875 c 0
 210.8984375 643.251953125 216.952148438 653.555664062 230.028320312 652.493164062 c 0
 240.846679688 652.493164062 248.017578125 645.586914062 247.118164062 637.618164062 c 2
 207.248046875 353.923828125 l 2
 206.127929688 345.955078125 197.081054688 339.048828125 186.631835938 339.048828125 c 0
 176.181640625 339.048828125 169.092773438 346.065429688 170.197265625 353.924804688 c 2
 170.197265625 353.924804688 190.784179688 500.74609375 202.787109375 586.1484375 c 1
EndSplineSet
EndChar

StartChar: onehalf
Encoding: 189 189 125
Width: 695
GlyphClass: 2
Flags: MW
HStem: 0 37.3984<474.429 532.886 474.429 541.462> 105.074 37.3984<432.477 444.494> 251.787 37.3984<510.185 568.642> 323.5 14<173.04 194.822>
LayerCount: 2
Back
Fore
SplineSet
589.974609375 590 m 2
 131.04296875 28 l 2
 118.793945312 13 91.265625 0 69.37890625 0 c 0
 47.4912109375 0 41.3623046875 13.20703125 53.443359375 28 c 2
 53.443359375 28 512.028320312 589.842773438 512.375 590 c 0
 524.624023438 605 552.151367188 618 574.0390625 618 c 0
 595.92578125 618 601.778320312 605 589.974609375 590 c 2
640.076171875 0.361328125 m 2
 640.076171875 0.361328125 583.517578125 0 499.407226562 0 c 0
 415.296875 0 345.70703125 -9.330078125 356.678710938 68.736328125 c 0
 367.861328125 148.302734375 413.215820312 142.47265625 451.73828125 142.47265625 c 0
 536.381835938 142.47265625 593.197265625 142.111328125 593.197265625 142.111328125 c 2
 621.771484375 142.111328125 637.291992188 164.5 641.782226562 196.44921875 c 0
 650.13671875 255.8984375 597.870117188 251.787109375 539.413085938 251.787109375 c 0
 480.956054688 251.787109375 397.880859375 251.774414062 397.880859375 251.774414062 c 2
 390.017578125 251.774414062 384.337890625 259.849609375 385.806640625 270.298828125 c 0
 387.275390625 280.749023438 395.180664062 288.82421875 402.993164062 288.82421875 c 2
 402.993164062 288.82421875 459.551757812 289.185546875 543.662109375 289.185546875 c 0
 627.772460938 289.185546875 694.26953125 276.515625 683.017578125 196.44921875 c 0
 672.748046875 123.3828125 636.005859375 104.712890625 585.953125 104.712890625 c 0
 501.309570312 104.712890625 444.494140625 105.07421875 444.494140625 105.07421875 c 2
 386.045898438 105.07421875 398.048828125 69.685546875 397.915039062 68.736328125 c 0
 393.565429688 37.787109375 445.200195312 37.3984375 503.657226562 37.3984375 c 0
 562.114257812 37.3984375 645.189453125 37.4111328125 645.189453125 37.4111328125 c 2
 653.051757812 37.4111328125 658.731445312 29.3359375 657.262695312 18.88671875 c 0
 655.793945312 8.4365234375 647.888671875 0.361328125 640.076171875 0.361328125 c 2
203.709960938 556.05859375 m 1
 164.27734375 523.147460938 l 2
 157.923828125 517.84375 147.181640625 518.958007812 140.40625 526.34765625 c 0
 133.629882812 533.736328125 133.98828125 544.115234375 140.25390625 549.345703125 c 2
 140.25390625 549.345703125 204.991210938 604.43359375 205.111328125 604.5 c 0
 211.34765625 609.802734375 217.31640625 619.5 230.401367188 618.5 c 0
 241.220703125 618.5 248.448242188 612 247.615234375 604.5 c 2
 210.090820312 337.5 l 2
 209.037109375 330 200.046875 323.5 189.59765625 323.5 c 0
 179.147460938 323.5 172 330.103515625 173.040039062 337.5 c 2
 173.040039062 337.5 192.413085938 475.681640625 203.709960938 556.05859375 c 1
EndSplineSet
EndChar

StartChar: threequarters
Encoding: 190 190 126
Width: 703
GlyphClass: 2
Flags: MW
HStem: 129.007 37.0869<627.965 677.606> 275.054 37.3965 347.454 37.3965<224.891 283.859 224.891 290.422> 481.041 37.0498<116.585 293.905 125.758 288.698> 614.606 37.3984<257.181 316.149>
LayerCount: 2
Back
Fore
SplineSet
682.06640625 622.459960938 m 2
 218.059570312 29.541015625 l 2
 205.67578125 13.7158203125 177.998046875 0.0009765625 156.069335938 0.0009765625 c 0
 134.139648438 0.0009765625 128.09765625 13.9345703125 140.311523438 29.541015625 c 2
 140.311523438 29.541015625 603.96875 622.293945312 604.318359375 622.459960938 c 0
 616.702148438 638.28515625 644.37890625 652 666.30859375 652 c 0
 688.237304688 652 694.00390625 638.28515625 682.06640625 622.459960938 c 2
651.458984375 296.064453125 m 1
 633.190429688 166.09375 l 1
 677.606445312 166.09375 l 2
 685.538085938 166.09375 691.27734375 158.018554688 689.80859375 147.568359375 c 0
 688.33984375 137.119140625 680.221679688 129.04296875 672.399414062 129.043945312 c 2
 672.399414062 129.043945312 654.977539062 129.021484375 627.96484375 129.006835938 c 1
 611.95703125 15.1044921875 l 2
 610.819335938 7.013671875 601.758789062 0.0009765625 591.30859375 0.0009765625 c 0
 580.858398438 0.0009765625 573.784179688 7.125 574.907226562 15.1044921875 c 2
 574.907226562 15.1044921875 581.934570312 65.2705078125 590.875976562 128.993164062 c 1
 572.274414062 128.993164062 558.225585938 129.004882812 558.202148438 129.04296875 c 0
 509.780273438 129.04296875 486 128.595703125 406.391601562 128.928710938 c 1
 384.446289062 133.962890625 397.924804688 148.7109375 414.294921875 168.482421875 c 0
 479.243164062 246.932617188 535.26953125 310.353515625 582.534179688 312.450195312 c 0
 659.012695312 315.697265625 651.458984375 296.064453125 651.458984375 296.064453125 c 1
611.451171875 275.322265625 m 1
 603.388671875 275.322265625 592.73828125 275.229492188 578.723632812 275.053710938 c 0
 556.329101562 274.751953125 528.784179688 251.041015625 467.362304688 175.4375 c 0
 458.594726562 164.647460938 485.984375 166.442382812 563.458984375 166.442382812 c 2
 563.458984375 166.442382812 566.860351562 166.448242188 596.133789062 166.452148438 c 1
 602.192382812 209.611328125 608.12109375 251.630859375 611.451171875 275.322265625 c 1
125.7578125 518.090820312 m 2
 293.905273438 518.090820312 l 2
 301.836914062 518.090820312 307.505859375 509.515625 306.038085938 499.06640625 c 0
 304.568359375 488.615234375 296.520507812 481.041015625 288.698242188 481.041015625 c 2
 120.55078125 481.041015625 l 2
 112.619140625 481.041015625 106.879882812 489.115234375 108.349609375 499.56640625 c 0
 109.817382812 510.015625 117.796875 517.877929688 125.7578125 518.090820312 c 2
189.161132812 651.642578125 m 2
 189.161132812 651.642578125 206.248046875 652.004882812 290.899414062 652.004882812 c 0
 375.55078125 652.004882812 434.6640625 583.67578125 422.866210938 499.729492188 c 0
 411.068359375 415.783203125 332.748046875 347.454101562 248.096679688 347.454101562 c 0
 163.4453125 347.454101562 146.4609375 347.814453125 146.4609375 347.814453125 c 2
 138.598632812 347.814453125 132.918945312 355.889648438 134.387695312 366.338867188 c 0
 135.856445312 376.790039062 143.865234375 384.864257812 151.796875 384.864257812 c 2
 151.796875 384.864257812 195.407226562 384.850585938 254.375 384.850585938 c 0
 313.342773438 384.850585938 372.729492188 436.399414062 381.629882812 499.728515625 c 0
 390.530273438 563.057617188 345.6328125 614.606445312 286.665039062 614.606445312 c 0
 227.697265625 614.606445312 184.083007812 614.592773438 184.083007812 614.592773438 c 2
 176.151367188 614.592773438 170.412109375 622.666992188 171.880859375 633.118164062 c 0
 173.349609375 643.567382812 181.298828125 651.642578125 189.161132812 651.642578125 c 2
EndSplineSet
EndChar

StartChar: questiondown
Encoding: 191 191 127
Width: 617
GlyphClass: 2
Flags: MW
HStem: 0.000976562 64.3242<273.578 368.597 273.578 381.766> 231.949 63.7988<369.794 369.794 369.794 399.479> 535.043 79.5498<435.158 445.479>
LayerCount: 2
Back
Fore
SplineSet
369.793945312 295.748046875 m 1
 395.23046875 476.735351562 l 2
 397.208007812 490.810546875 412.8125 503.010742188 430.786132812 503.010742188 c 0
 448.759765625 503.010742188 460.944335938 490.876953125 459.033203125 477.287109375 c 2
 429.336914062 265.987304688 l 2
 426.638671875 246.787109375 412.966796875 232.340820312 399.478515625 231.94921875 c 2
 161.151367188 231.94921875 l 1
 175.704101562 138.341796875 228.78125 64.3251953125 318.375 64.3251953125 c 0
 418.819335938 64.3251953125 561.560546875 64.3486328125 561.560546875 64.3486328125 c 2
 575.071289062 64.3486328125 584.827148438 50.4599609375 582.30078125 32.4853515625 c 0
 579.774414062 14.5107421875 566.095703125 0.62109375 552.564453125 0.62109375 c 2
 552.564453125 0.62109375 454.60546875 0.0009765625 308.92578125 0.0009765625 c 0
 163.24609375 0.0009765625 61.525390625 117.665039062 81.841796875 262.224609375 c 0
 84.4931640625 281.091796875 98.5361328125 295.671875 111.969726562 295.670898438 c 2
 111.969726562 295.670898438 287.373046875 295.78125 369.793945312 295.748046875 c 1
477.943359375 574.818359375 m 0
 474.921875 553.318359375 456.228515625 535.04296875 434.728515625 535.04296875 c 0
 413.228515625 535.04296875 398.596679688 553.318359375 401.618164062 574.818359375 c 0
 404.639648438 596.318359375 424.408203125 614.592773438 445.908203125 614.592773438 c 0
 467.408203125 614.592773438 480.96484375 596.318359375 477.943359375 574.818359375 c 0
EndSplineSet
EndChar

StartChar: Agrave
Encoding: 192 192 128
Width: 746
GlyphClass: 2
Flags: MW
HStem: 0 82.4707<321.595 426.501> 502.729 82.4707<380.658 513.014> 666 92.5<432.869 482.785>
LayerCount: 2
Back
Fore
SplineSet
696.201171875 10.470703125 m 2
 694.092773438 -4.529296875 619.852539062 -5.529296875 621.9609375 9.470703125 c 0
 626.258789062 40.0546875 630.564453125 70.638671875 634.862304688 101.221679688 c 1
 567.282226562 39.236328125 474.872070312 0 378.130859375 0 c 0
 201.295898438 0 75.78515625 131.099609375 98.482421875 292.599609375 c 0
 121.1796875 454.099609375 282.725585938 585.19921875 458.55859375 585.19921875 c 0
 634.391601562 585.19921875 759.087890625 454.099609375 736.390625 292.599609375 c 2
 696.201171875 10.470703125 l 2
177.215820312 292.599609375 m 0
 161.54296875 181.079101562 255.416992188 82.470703125 387.772460938 82.470703125 c 0
 520.127929688 82.470703125 641.71875 181.079101562 657.391601562 292.599609375 c 0
 673.064453125 404.119140625 579.19140625 502.728515625 446.8359375 502.728515625 c 0
 314.48046875 502.728515625 192.888671875 404.119140625 177.215820312 292.599609375 c 0
416.127929688 712.25 m 0
 407.311523438 737.25 419.649414062 758.5 446.087890625 758.5 c 0
 472.526367188 758.5 501.168945312 737.25 509.985351562 712.25 c 1
 522.477539062 691.818359375 544.798828125 658.5 543.918945312 642.25 c 0
 543.919921875 631 498.680664062 620.583984375 463.284179688 616 c 1
 488.313476562 629.514648438 512.303710938 635.520507812 499.256835938 671.56640625 c 1
 493.814453125 668.02734375 486.868164062 666 478.702148438 666 c 0
 452.263671875 666 424.942382812 687.25 416.127929688 712.25 c 0
EndSplineSet
EndChar

StartChar: Aacute
Encoding: 193 193 129
Width: 746
GlyphClass: 2
Flags: MW
HStem: 0 82.4707<321.595 426.501> 502.729 82.4707<380.658 513.014> 666 92.5<454.007 529.923>
LayerCount: 2
Back
Fore
SplineSet
696.201171875 10.470703125 m 2
 694.092773438 -4.529296875 619.852539062 -5.529296875 621.9609375 9.470703125 c 0
 626.258789062 40.0546875 630.564453125 70.638671875 634.862304688 101.221679688 c 1
 567.282226562 39.236328125 474.872070312 0 378.130859375 0 c 0
 201.295898438 0 75.78515625 131.099609375 98.482421875 292.599609375 c 0
 121.1796875 454.099609375 282.725585938 585.19921875 458.55859375 585.19921875 c 0
 634.391601562 585.19921875 759.087890625 454.099609375 736.390625 292.599609375 c 2
 696.201171875 10.470703125 l 2
177.215820312 292.599609375 m 0
 161.54296875 181.079101562 255.416992188 82.470703125 387.772460938 82.470703125 c 0
 520.127929688 82.470703125 641.71875 181.079101562 657.391601562 292.599609375 c 0
 673.064453125 404.119140625 579.19140625 502.728515625 446.8359375 502.728515625 c 0
 314.48046875 502.728515625 192.888671875 404.119140625 177.215820312 292.599609375 c 0
533.663085938 712.25 m 0
 517.821289062 687.25 484.528320312 666 458.08984375 666 c 0
 449.923828125 666 443.545898438 668.02734375 439.099609375 671.56640625 c 1
 415.919921875 635.520507812 438.22265625 629.514648438 459.453125 616 c 1
 425.345703125 620.583984375 383.034179688 631 386.197265625 642.25 c 0
 389.883789062 658.5 421.5703125 691.818359375 439.806640625 712.25 c 1
 455.6484375 737.25 490.265625 758.5 516.704101562 758.5 c 0
 543.142578125 758.5 549.504882812 737.25 533.663085938 712.25 c 0
EndSplineSet
EndChar

StartChar: Acircumflex
Encoding: 194 194 130
Width: 740
GlyphClass: 2
Flags: MW
HStem: 0 82.4707<319.47 422.655> 502.729 82.4707<378.534 509.271>
VStem: 517.349 52.3252<623.85 633.143>
LayerCount: 2
Back
Fore
SplineSet
690.331054688 10.470703125 m 2
 688.22265625 -4.529296875 613.983398438 -5.529296875 616.091796875 9.470703125 c 0
 620.389648438 40.0546875 624.6953125 70.638671875 628.993164062 101.221679688 c 1
 562.026367188 39.236328125 470.521484375 0 374.7890625 0 c 0
 199.796875 0 75.7861328125 131.099609375 98.4833984375 292.599609375 c 0
 121.180664062 454.099609375 281.409179688 585.19921875 455.624023438 585.19921875 c 0
 629.838867188 585.19921875 753.217773438 454.099609375 730.520507812 292.599609375 c 2
 690.331054688 10.470703125 l 2
177.216796875 292.599609375 m 0
 161.543945312 181.079101562 254.1015625 82.470703125 384.838867188 82.470703125 c 0
 515.576171875 82.470703125 635.850585938 181.079101562 651.5234375 292.599609375 c 0
 667.196289062 404.119140625 574.639648438 502.728515625 443.90234375 502.728515625 c 0
 313.165039062 502.728515625 192.889648438 404.119140625 177.216796875 292.599609375 c 0
477.352539062 763.31640625 m 0
 492.474609375 763.31640625 505.88671875 755.435546875 510.263671875 742.7734375 c 0
 516.518554688 731.5 568.46875 636.80078125 568.48828125 636.765625 c 2
 569.41015625 635.087890625 l 1
 569.673828125 633.142578125 l 2
 570.713867188 625.461914062 568.135742188 616.75390625 561.459960938 610.5 c 0
 556.465820312 605.822265625 549.818359375 603.31640625 543.403320312 603.31640625 c 0
 529.637695312 603.31640625 520.161132812 613.009765625 517.348632812 623.849609375 c 2
 468.032226562 697 l 1
 398.155273438 623.849609375 l 2
 391.741210938 611.984375 379.69921875 603.31640625 366.329101562 603.31640625 c 0
 360.228515625 603.31640625 354.53125 605.571289062 350.823242188 609.85546875 c 0
 345.40234375 616.1171875 345.127929688 625.189453125 348.44140625 633.142578125 c 2
 349.251953125 635.087890625 l 1
 350.64453125 636.765625 l 1
 350.64453125 636.765625 430.013671875 732.421875 438.665039062 742.7734375 c 0
 447.149414062 756.306640625 462.640625 763.31640625 477.352539062 763.31640625 c 0
EndSplineSet
EndChar

StartChar: Atilde
Encoding: 195 195 131
Width: 746
GlyphClass: 2
Flags: MW
HStem: 0 82.4707<321.595 426.501> 502.729 82.4707<380.658 513.014>
VStem: 311.801 37.6094 610.085 37.6094
LayerCount: 2
Back
Fore
SplineSet
696.201171875 10.470703125 m 2
 694.092773438 -4.529296875 619.852539062 -5.529296875 621.9609375 9.470703125 c 0
 626.258789062 40.0546875 630.564453125 70.638671875 634.862304688 101.221679688 c 1
 567.282226562 39.236328125 474.872070312 0 378.130859375 0 c 0
 201.295898438 0 75.78515625 131.099609375 98.482421875 292.599609375 c 0
 121.1796875 454.099609375 282.725585938 585.19921875 458.55859375 585.19921875 c 0
 634.391601562 585.19921875 759.087890625 454.099609375 736.390625 292.599609375 c 2
 696.201171875 10.470703125 l 2
177.215820312 292.599609375 m 0
 161.54296875 181.079101562 255.416992188 82.470703125 387.772460938 82.470703125 c 0
 520.127929688 82.470703125 641.71875 181.079101562 657.391601562 292.599609375 c 0
 673.064453125 404.119140625 579.19140625 502.728515625 446.8359375 502.728515625 c 0
 314.48046875 502.728515625 192.888671875 404.119140625 177.215820312 292.599609375 c 0
501.483398438 730.993164062 m 1
 512.848632812 720.833007812 507.958984375 716.982421875 510.048828125 702.350585938 c 0
 512.018554688 688.553710938 521.388671875 677.030273438 552.446289062 684.62890625 c 0
 584.844726562 692.5546875 588.751953125 709.544921875 587.088867188 721.19921875 c 0
 586.446289062 725.690429688 599.674804688 766.98046875 610.084960938 751.1484375 c 1
 610.084960938 751.1484375 612.202148438 751.986328125 614.146484375 752.461914062 c 0
 627.919921875 755.83203125 645.453125 751.70703125 647.694335938 736.02734375 c 0
 657.744140625 665.647460938 594.911132812 634.487304688 560.799804688 626.140625 c 0
 533.264648438 619.404296875 480.564453125 614.240234375 458.010742188 658.881835938 c 1
 446.645507812 669.041992188 451.536132812 672.892578125 449.4453125 687.524414062 c 0
 447.475585938 701.321289062 438.10546875 712.844726562 407.048828125 705.24609375 c 0
 374.649414062 697.3203125 370.7421875 680.330078125 372.40625 668.67578125 c 0
 373.047851562 664.184570312 359.819335938 622.89453125 349.41015625 638.7265625 c 1
 349.41015625 638.7265625 347.291992188 637.888671875 345.348632812 637.413085938 c 0
 331.575195312 634.04296875 314.041015625 638.16796875 311.80078125 653.84765625 c 0
 301.75 724.227539062 364.583007812 755.387695312 398.694335938 763.734375 c 0
 426.229492188 770.470703125 478.930664062 775.634765625 501.483398438 730.993164062 c 1
EndSplineSet
EndChar

StartChar: Adieresis
Encoding: 196 196 132
Width: 735
GlyphClass: 2
Flags: MW
HStem: 0 82.4707<317.74 419.527> 502.729 82.4707<376.804 506.226> 631 88.75<378.102 390.629 528.766 541.293>
VStem: 338.027 92.5<674 674> 488.691 92.5<674 674>
LayerCount: 2
Back
Fore
SplineSet
685.557617188 10.470703125 m 2
 683.44921875 -4.529296875 609.209960938 -5.529296875 611.318359375 9.470703125 c 0
 615.616210938 40.0546875 619.921875 70.638671875 624.219726562 101.221679688 c 1
 557.751953125 39.236328125 466.983398438 0 372.0703125 0 c 0
 198.577148438 0 75.7861328125 131.099609375 98.4833984375 292.599609375 c 0
 121.180664062 454.099609375 280.337890625 585.19921875 453.237304688 585.19921875 c 0
 626.13671875 585.19921875 748.444335938 454.099609375 725.747070312 292.599609375 c 2
 685.557617188 10.470703125 l 2
177.215820312 292.599609375 m 0
 161.54296875 181.079101562 253.029296875 82.470703125 382.451171875 82.470703125 c 0
 511.873046875 82.470703125 631.076171875 181.079101562 646.749023438 292.599609375 c 0
 662.421875 404.119140625 570.936523438 502.728515625 441.514648438 502.728515625 c 0
 312.092773438 502.728515625 192.888671875 404.119140625 177.215820312 292.599609375 c 0
378.12890625 631 m 0
 353.12890625 631 334.513671875 649.75 338.02734375 674.75 c 0
 341.541015625 699.75 365.6015625 719.75 390.6015625 719.75 c 0
 415.6015625 719.75 434.041015625 699.75 430.52734375 674.75 c 0
 427.013671875 649.75 403.12890625 631 378.12890625 631 c 0
528.79296875 631 m 0
 503.79296875 631 485.177734375 649.75 488.69140625 674.75 c 0
 492.205078125 699.75 516.265625 719.75 541.265625 719.75 c 0
 566.265625 719.75 584.705078125 699.75 581.19140625 674.75 c 0
 577.677734375 649.75 553.79296875 631 528.79296875 631 c 0
EndSplineSet
EndChar

StartChar: Aring
Encoding: 197 197 133
Width: 741
GlyphClass: 2
Flags: MW
HStem: 0 82.4707<319.74 423.146> 502.729 82.4707<378.803 509.748> 624.603 43.7129<458.709 479.555 458.709 485.679> 734.505 43.7129<468.011 488.856>
LayerCount: 2
Back
Fore
SplineSet
691.080078125 10.470703125 m 2
 688.971679688 -4.529296875 614.731445312 -5.529296875 616.83984375 9.470703125 c 0
 621.137695312 40.0546875 625.443359375 70.638671875 629.741210938 101.221679688 c 1
 562.696289062 39.236328125 471.076171875 0 375.21484375 0 c 0
 199.987304688 0 75.78515625 131.099609375 98.482421875 292.599609375 c 0
 121.1796875 454.099609375 281.576171875 585.19921875 455.998046875 585.19921875 c 0
 630.419921875 585.19921875 753.966796875 454.099609375 731.26953125 292.599609375 c 2
 691.080078125 10.470703125 l 2
177.21484375 292.599609375 m 0
 161.541992188 181.079101562 254.267578125 82.470703125 385.211914062 82.470703125 c 0
 516.15625 82.470703125 636.598632812 181.079101562 652.271484375 292.599609375 c 0
 667.944335938 404.119140625 575.219726562 502.728515625 444.275390625 502.728515625 c 0
 313.331054688 502.728515625 192.887695312 404.119140625 177.21484375 292.599609375 c 0
435.969726562 701.41015625 m 0
 433.500976562 683.845703125 448.286132812 668.315429688 469.131835938 668.315429688 c 0
 489.977539062 668.315429688 509.127929688 683.845703125 511.596679688 701.41015625 c 0
 514.064453125 718.974609375 499.279296875 734.504882812 478.43359375 734.504882812 c 0
 457.587890625 734.504882812 438.4375 718.974609375 435.969726562 701.41015625 c 0
391.46484375 701.41015625 m 0
 397.422851562 743.8046875 439.196289062 778.217773438 484.577148438 778.217773438 c 0
 529.958007812 778.217773438 562.059570312 743.8046875 556.1015625 701.41015625 c 0
 550.142578125 659.015625 508.369140625 624.602539062 462.98828125 624.602539062 c 0
 417.607421875 624.602539062 385.505859375 659.015625 391.46484375 701.41015625 c 0
EndSplineSet
EndChar

StartChar: AE
Encoding: 198 198 134
Width: 1263
GlyphClass: 2
Flags: MW
HStem: 0 82.4707<310.626 415.53> 502.729 82.4707<369.689 496.626>
VStem: 648.108 77.2842
LayerCount: 2
Back
Fore
SplineSet
166.247070312 292.599609375 m 0
 150.57421875 181.079101562 244.448242188 82.470703125 376.803710938 82.470703125 c 0
 500.01953125 82.470703125 613.90625 167.930664062 641.692382812 269.708984375 c 0
 642.2890625 286.350585938 644.456054688 303.0703125 648.108398438 319.684570312 c 0
 646.465820312 419.60546875 557.385742188 502.728515625 435.8671875 502.728515625 c 0
 303.51171875 502.728515625 181.919921875 404.119140625 166.247070312 292.599609375 c 0
685.233398438 10.470703125 m 2
 683.125 -4.529296875 608.880859375 -5.529296875 610.989257812 9.470703125 c 0
 615.287109375 40.0546875 619.592773438 70.638671875 623.890625 101.221679688 c 1
 556.310546875 39.236328125 463.900390625 0 367.159179688 0 c 0
 190.32421875 0 64.8134765625 131.099609375 87.5107421875 292.599609375 c 0
 110.208007812 454.099609375 272.201171875 585.19921875 448.583984375 585.19921875 c 0
 564.860351562 585.19921875 658.869140625 528.225585938 702.935546875 443.12890625 c 1
 737.705078125 491.209960938 785.751953125 533.250976562 844.286132812 563.0546875 c 0
 979.555664062 631.930664062 1129.68847656 614.508789062 1215.72167969 529.504882812 c 0
 1234.96386719 510.493164062 1284.86523438 474.65625 1257.70019531 453.65625 c 0
 1183.15136719 393.470703125 1105.734375 336.862304688 1026.39257812 282.65625 c 0
 1012.59472656 273.420898438 988.21484375 269.752929688 976.921875 286.22265625 c 0
 965.629882812 302.692382812 969.403320312 322.69140625 982.659179688 332.65625 c 0
 1014.5859375 356.65625 1173.60546875 459.831054688 1150.16015625 471.022460938 c 0
 1070.55761719 509.018554688 976.02734375 542.388671875 875.932617188 491.6328125 c 0
 796.0703125 451.137695312 742.630859375 379.754882812 727.161132812 308.24609375 c 0
 726.71875 303.065429688 726.130859375 297.848632812 725.392578125 292.599609375 c 2
 722.645507812 273.30078125 l 2
 721.596679688 246.295898438 726.359375 220.005859375 737.576171875 196.142578125 c 0
 782.969726562 99.5625 933.03125 48.951171875 1046.984375 127.6796875 c 2
 1190.51757812 226.84375 l 2
 1204.17578125 236.280273438 1223.24511719 239.029296875 1238.35058594 225.65625 c 0
 1253.45703125 212.283203125 1253.40722656 187.952148438 1240.62304688 177.432617188 c 0
 1165.55273438 115.65625 1182.62207031 116.294921875 1081.26171875 61.2578125 c 0
 954.407226562 -7.6220703125 786.041992188 8.6015625 698.134765625 101.100585938 c 1
 685.233398438 10.470703125 l 2
EndSplineSet
EndChar

StartChar: Ccedilla
Encoding: 199 199 135
Width: 707
GlyphClass: 2
Flags: MW
HStem: -142.673 92.5<365.054 377.054> 3.35938 74.7959<304.387 352.097 353.827 421.092 304.387 437.897> 539.976 74.7959<369.292 485.996>
VStem: 327.304 88.75<4.29497e+009 4.29497e+009>
LayerCount: 2
Back
Fore
SplineSet
720.7890625 614.049804688 m 2
 736.388671875 614.049804688 747.638671875 597.8984375 744.701171875 576.999023438 c 0
 741.763671875 556.09765625 725.889648438 539.948242188 710.192382812 539.948242188 c 2
 710.192382812 539.948242188 544.348632812 539.975585938 427.643554688 539.975585938 c 0
 310.939453125 539.975585938 193.18359375 436.361328125 175.293945312 309.065429688 c 0
 157.403320312 181.76953125 246.03515625 78.1552734375 362.739257812 78.1552734375 c 0
 479.444335938 78.1552734375 645.295898438 78.1826171875 645.295898438 78.1826171875 c 2
 660.993164062 78.1826171875 672.327148438 62.033203125 669.389648438 41.1318359375 c 0
 666.453125 20.2314453125 650.6484375 4.0810546875 635.03125 4.0810546875 c 2
 635.03125 4.0810546875 521.967773438 3.359375 353.827148438 3.359375 c 1
 388.159179688 -1.392578125 432.892578125 -12.1904296875 435.002929688 -23.853515625 c 0
 438.885742188 -40.7001953125 424.032226562 -75.2412109375 416.053710938 -96.4228515625 c 1
 412.541015625 -121.422851562 389.553710938 -142.672851562 364.553710938 -142.672851562 c 0
 339.553710938 -142.672851562 323.791015625 -121.422851562 327.303710938 -96.4228515625 c 0
 330.817382812 -71.4228515625 352.553710938 -50.1728515625 377.553710938 -50.1728515625 c 0
 385.275390625 -50.1728515625 392.236328125 -52.2001953125 398.064453125 -55.7392578125 c 1
 403.783203125 -17.40234375 379.178710938 -11.0146484375 352.096679688 3.359375 c 1
 185.276367188 3.359375 69.1376953125 140.53515625 92.8232421875 309.065429688 c 0
 116.508789062 477.595703125 272.130859375 614.771484375 440.090820312 614.771484375 c 0
 608.05078125 614.771484375 720.7890625 614.049804688 720.7890625 614.049804688 c 2
EndSplineSet
EndChar

